<?xml version="1.0" encoding="UTF-8" standalone="no"?>
<!-- Created with Inkscape (http://www.inkscape.org/) -->
<svg xmlns:inkscape="http://www.inkscape.org/namespaces/inkscape" xmlns:rdf="http://www.w3.org/1999/02/22-rdf-syntax-ns#" xmlns="http://www.w3.org/2000/svg" xmlns:xlink="http://www.w3.org/1999/xlink" xmlns:ns1="http://sozi.baierouge.fr" xmlns:cc="http://creativecommons.org/ns#" xmlns:dc="http://purl.org/dc/elements/1.1/" xmlns:sodipodi="http://sodipodi.sourceforge.net/DTD/sodipodi-0.dtd" id="svg3241" sodipodi:docname="Новый документ 2" viewBox="0 0 394.59 888" version="1.1" inkscape:version="0.48.0 r9654">
  <sodipodi:namedview id="base" bordercolor="#666666" inkscape:pageshadow="2" inkscape:window-y="25" fit-margin-left="0" pagecolor="#ffffff" fit-margin-top="0" inkscape:window-maximized="0" inkscape:zoom="0.35" inkscape:window-x="25" inkscape:window-height="455" showgrid="false" borderopacity="1.0" inkscape:current-layer="layer1" inkscape:cx="197.2913" inkscape:cy="443.99227" fit-margin-right="0" fit-margin-bottom="0" inkscape:window-width="535" inkscape:pageopacity="0.0" inkscape:document-units="px"/>
  <g id="layer1" inkscape:label="Layer 1" inkscape:groupmode="layer" transform="translate(-177.71 -88.354)">
    <g id="g8134" inkscape:export-ydpi="90" inkscape:export-xdpi="90" transform="translate(3331.8 -7083.9)">
      <rect id="rect6803" style="stroke-linejoin:round;stroke:#000000;stroke-linecap:round;stroke-width:2.0842;fill:#ffffff" rx="30" ry="37.5" height="885.92" width="392.5" y="7173.3" x="-3153"/>
      <text id="text4422" y="7362.7881" x="-3039.0044" style="font-size:39.5px;font-family:Arial;fill:#000000" xml:space="preserve">
        <tspan id="tspan4424" y="7362.7881" x="-3039.0044" sodipodi:role="line">man, human</tspan>
      </text>
      <path id="path4371" style="fill:#000080" inkscape:connector-curvature="0" d="m-3086.3 7355c-0.2106 0.079-0.4476 0.1182-0.7112 0.1182-0.5264 0-1.3031-0.2105-2.3301-0.6317-1.4482-0.6058-2.3173-0.9615-2.6074-1.0667-0.4742 0.9748-0.7112 3.0814-0.7112 6.3201 0 0.3953 0.026 0.9947 0.079 1.7979 0.053 0.8033 0.079 1.4022 0.079 1.7967 0 1.3694-0.2106 2.9232-0.6317 4.6615 0.3954 0.7112 0.9089 1.2247 1.5406 1.5405 0.8952 0.3689 1.8037 0.7373 2.7255 1.1054 0.5264 0.5272 0.7896 0.9748 0.7896 1.3429 0 0.1052-0.013 0.1977-0.039 0.2773-1.8966-0.2636-3.7928-0.514-5.6885-0.751-2.554-0.3159-5.0689-0.4738-7.5449-0.4738-4.2391 0-8.913 0.4343-14.022 1.3031-0.2371-1.027 1.0138-1.8958 3.7525-2.6062 0.2106-1.4747 1.1978-2.9232 2.9618-4.3456-0.79-3.0811-1.185-5.6616-1.1849-7.7413-0.0001-1.7118 0.3029-2.8573 0.9089-3.4368 0.4741 0 1.5538 0.5003 3.239 1.5008 1.8435 1.0535 3.3973 2.1465 4.6614 3.2788 0.2893-1.58 0.434-2.4358 0.434-2.5676 0-0.079-0.04-0.297-0.1187-0.6522-0.079-0.3552-0.1449-0.8618-0.1971-1.52l-1.5804-6.4395c-0.7899 0.9483-1.5666 1.8833-2.3301 2.8051-0.4211 0.4476-1.1978 1.027-2.3301 1.7382-1.0013-1.2119-1.989-2.41-2.963-3.5946-0.9483-1.0536-2.0147-1.6595-3.1992-1.8178-0.606-0.368-0.9089-0.7366-0.9089-1.1054 0-0.079 0.033-0.2366 0.099-0.4738 0.066-0.237 0.086-0.4347 0.059-0.5931-0.2636-0.6315-0.5268-1.2636-0.7896-1.8961-0.3158-0.8157-0.4476-1.5397-0.3954-2.1722 0.3954-0.079 1.5016 1.0274 3.3186 3.3186 2.1328 2.6592 3.8839 4.3838 5.2533 5.1737 0.7635-0.7634 1.7969-1.9285 3.1004-3.4952 1.3035-1.5666 2.4161-2.798 3.3379-3.694 0.026-0.368-0.125-0.6576-0.4544-0.8685-0.3295-0.211-0.6257-0.3952-0.8885-0.5527-0.1318-0.3159-0.5006-0.9347-1.1066-1.8564 0.606-0.79 1.0536-1.5273 1.3429-2.212 0.4219-1.1323 0.8169-1.8829 1.185-2.2518 0.6324-0.6846 1.6333-1.0402 3.0027-1.0668 1.764-0.026 3.0279 0.2236 3.7918 0.7504 0.7638 0.5268 1.3301 1.4749 1.699 2.8443 0.079 0.8164-0.027 1.5011-0.317 2.054-0.1575 0.2894-0.4601 0.645-0.9077 1.0668-0.3424 0.3424-0.5003 0.6321-0.4737 0.8692 1.6056 0.8952 3.2382 3.0281 4.8977 6.3985 1.5268 3.0811 2.2903 5.451 2.2903 7.1097 0 0.3166-0.039 0.5537-0.1181 0.7112zm-7.8607-15.602c0.6059-0.3688 0.9089-0.8562 0.9089-1.4622 0-0.5794-0.303-1.3296-0.9089-2.2505-0.026-0.3166-0.3492-0.5999-0.968-0.8499-0.6188-0.2499-1.2834-0.3749-1.9938-0.3749-1.2906 0-1.9227 0.395-1.8961 1.185-0.0001 0.3423 0.5991 0.5662 1.7973 0.6714 1.1982 0.1053 1.8628 0.2897 1.9938 0.5533 0.1318 0.3946 0.4874 1.2372 1.0668 2.5278zm5.6885 13.312-2.3699-5.333-0.5931 3.3572zm-3.7923-8.6117c-0.1841-0.1575-0.7237-0.737-1.6189-1.7383-0.5272-0.5263-0.9881-0.8554-1.3827-0.9873-0.5272-0.7369-0.8169-1.7374-0.8691-3.0015-0.2636-0.7635-0.9748-1.1323-2.1337-1.1067-0.1318 0.026-0.4741 0.0005-1.027-0.078 0.053 0.079 0.1189 0.1447 0.1977 0.1977 0.2371 0.2106 0.3556 0.3946 0.3556 0.5521 0 0.1848-0.1382 0.3233-0.4147 0.4153-0.2764 0.092-0.4938 0.138-0.6521 0.138-0.4211 0-0.6578-0.1447-0.71-0.4339-0.053-0.1849-0.066-0.2773-0.04-0.2773-0.1583 0.2371-0.2901 0.5533-0.3954 0.9486 0.1053 0.6317 0.4806 1.1121 1.1259 1.4412s1.06 0.9019 1.244 1.7184c0.053 0.3158-0.2761 0.79-0.9873 1.4223-0.8952 0.8165-1.5273 1.7383-1.8961 2.7653 1.5277 4.8717 2.2915 8.4792 2.2915 10.822 0 1.6065-0.2371 3.0546-0.7112 4.3444 0.8422-0.052 1.8033-0.2101 2.8834-0.4737 1.3959-0.3424 2.3044-0.5529 2.7256-0.6317l0.4737-7.6232-3.1595-0.9873c-0.6325-0.1317-1.3041-0.7638-2.0149-1.8961s-1.0662-2.0806-1.0662-2.8449c0-0.2105 0.039-0.3817 0.1181-0.5135 1.7905 0.5795 2.8702 1.2905 3.2391 2.1331 0.3688 0.8426 1.4617 1.5668 3.2788 2.1728 0.1318-0.3946 0.316-1.4741 0.5527-3.2385 0.2366-1.7643 0.4341-2.8441 0.5924-3.2396zm-9.4411 18.131c-0.3946-1.2641-1.0789-2.3309-2.0528-3.2004-0.7378-0.6052-1.9758-1.3686-3.714-2.2904-0.131 0.6847-0.1965 1.4747-0.1965 2.37 0 1.817 0.2893 3.5287 0.8679 5.1351 1.2641-0.6059 2.9626-1.2773 5.0954-2.0143zm7.1893 0c-1.764-0.1583-4.6078 0.6381-8.5315 2.3892-3.9238 1.7511-6.0701 3.2061-6.4389 4.365 2.7122-0.4477 5.0427-0.6715 6.9916-0.6715 1.5277 0 2.8641 0.1382 4.0093 0.4147 1.1451 0.2764 1.731 0.4146 1.7575 0.4146 0.3954 0 0.9222-0.4344 1.5804-1.303 0.5006-1.5543 0.7509-2.871 0.7509-3.9503 0-0.5529-0.04-1.1058-0.1193-1.6587z"/>
      <path id="path4373" style="fill:#000080" inkscape:connector-curvature="0" d="m-3090.2 7411.3c-0.027 1.3163-0.013 2.5805 0.04 3.7924 0.053 1.4746 0.079 2.1854 0.08 2.1323-0.0001 0.5529-0.099 0.9612-0.2966 1.2248-0.1977 0.2636-0.6783 0.6192-1.4417 1.0668-0.026 5.3193-0.3428 9.5721-0.9487 12.758-0.052 0.079-0.078 0.1708-0.078 0.2761-0.0001 0.2106 0.2368 0.5396 0.7106 0.9873 0.4737 0.4476 0.7106 0.8164 0.7106 1.1065 0 0.2371-0.1053 0.4742-0.3158 0.7113l-19.355-0.04c-0.3423-0.3954-0.5135-0.7643-0.5135-1.1066 0-0.4212 0.4742-0.9214 1.4224-1.5008 1.0528-0.6317 1.6648-1.1912 1.8359-1.6786 0.1712-0.4874 0.2568-1.0337 0.2568-1.6388 0-1.2641-0.5266-3.1866-1.5797-5.7675-1.0532-2.5808-1.5798-4.3321-1.5798-5.2538 0-1.0005 0.3685-1.7379 1.1054-2.2121 0.5794-0.368 1.1456-0.5521 1.6985-0.5521 0.9748 0 1.9757 0.6056 3.0028 1.8167 0.1575 0.2105 0.9342 1.3429 2.3301 3.3969 0.843 1.2111 1.5144 1.8166 2.0143 1.8166 0.026-1.158 0.415-3.2842 1.1656-6.3786 0.7506-3.0943 1.1259-5.1157 1.1259-6.064 0-0.7104-0.145-1.1841-0.4351-1.4212-0.079-0.5271-0.3814-0.8695-0.9077-1.027-0.8431-0.2901-1.3039-0.4613-1.3827-0.5135-0.4211-0.2901-0.8028-0.7775-1.1452-1.4622-0.1848-0.4476-0.3825-0.882-0.593-1.3031 0.237-0.5529 0.632-1.369 1.1849-2.4483 0.4742-1.027 0.9483-2.0412 1.4224-3.0425 0.6847-0.9218 2.1988-1.3694 4.5422-1.3429 4.2399 0.053 6.2148 4.6088 5.9247 13.667zm-1.5008 4.5036c0.053-0.3689 0.04-1.4092-0.04-3.1209-0.079-2.0807-0.1181-3.2656-0.1181-3.5549-0.1318-1.6595-0.2701-3.3252-0.4147-4.9972-0.1447-1.6719-0.6383-2.9688-1.4809-3.8906-0.8426-0.9217-1.9619-1.3826-3.3577-1.3826-1.2642 0-1.9754 0.6056-2.1337 1.8166 0.659 0.1849 1.0805 0.4352 1.2645 0.751 0.2106 0.3954 0.5003 0.6851 0.8692 0.8692 0.1317 0.052 0.3425-0.01 0.6322-0.1785 0.2897-0.1711 0.5001-0.2567 0.6311-0.2567 0.2901 0 0.5536 0.2238 0.7907 0.6714 0.1575 0.3689 0.2363 0.6851 0.2363 0.9487 0 0.2893-0.1579 0.6052-0.4737 0.9474-0.3159 0.3425-0.5003 0.7245-0.5533 1.1465-0.079 0.8687-0.079 4.4236 0 10.664 0.3423-0.053 0.5267-0.053 0.5533 0-0.0001-1.0535-0.013-2.1199-0.04-3.1992-0.052-2.2646 0.014-3.4235 0.1977-3.4765 1.1065-0.2628 1.8965-0.2102 2.3699 0.1579 0.079 0.2105 0.1587 1.1456 0.2374 2.805 0.079 1.7906 0.1579 2.8834 0.2375 3.2789zm-5.3714-11.653c-0.3954-0.079-0.7643-0.4145-1.1066-1.0072-0.3424-0.5926-0.6188-0.8889-0.8294-0.8889-0.1583 0-0.3295 0.066-0.5135 0.1977 0-0.026 0.1185 0.046 0.3556 0.2169 0.2371 0.1712 0.3162 0.4939 0.2375 0.968-0.2371 0.2105-0.4742 0.3159-0.7112 0.3158-0.2636 0.0001-0.5206-0.1185-0.7709-0.3556-0.2504-0.2371-0.3884-0.3423-0.4141-0.3158-0.2901 0.3954-0.4086 0.7378-0.3556 1.027-0.026 0.1841-0.04 0.3552-0.04 0.5135 0 0.7635 0.5396 1.369 1.6189 1.8167 1.2119 0.4741 1.8439 0.7904 1.8962 0.9486 0.1052-0.1318 0.1579-0.4214 0.1579-0.8691-0.026-0.5528-0.026-0.8819 0-0.9872 0.026-0.1318 0.145-0.3954 0.3556-0.7908 0.1583-0.2628 0.1981-0.5259 0.1193-0.7896zm3.3969 8.3742-0.5533 0.078c-0.027 0.2901-0.079 1.4751-0.1579 3.5549-0.053 1.5807-0.1849 2.4631-0.3954 2.6471-0.184 0.2371-0.8949 0.2238-2.1324-0.04-0.1849-0.026-0.2773-0.5006-0.2773-1.4224v-1.6984c-0.052-0.8423-0.2101-1.4872-0.4737-1.9348-0.5795 1.7905-1.0006 3.8181-1.2633 6.0827-0.1584 1.5277-0.3167 3.0417-0.475 4.5421-0.184 1.2119-0.5657 1.8704-1.1451 1.9757-0.3689 0.1318-1.5277-1.2902-3.4765-4.266-2.0276-3.0812-3.4098-4.6217-4.1468-4.6217-0.1848 0-0.356 0.079-0.5135 0.2375-0.4211 0.052-0.6316 0.368-0.6316 0.9474 0 0.5795 0.4542 2.1923 1.3627 4.8387 0.9085 2.6463 1.3628 4.6542 1.3628 6.0235 0 0.8165-0.1451 1.5145-0.4352 2.0939-0.079 0.2894-0.309 0.6777-0.6907 1.1651-0.3818 0.4874-0.6124 0.8231-0.6919 1.0071h14.101c-0.131-0.2105-0.2889-0.8952-0.4737-2.0541 0.8695-2.2645 1.3043-6.5567 1.3043-12.876 0-3.1076-0.066-5.2011-0.1977-6.2804z"/>
      <path id="path4375" style="fill:#000080" inkscape:connector-curvature="0" d="m-3087.1 7472.7c-0.4212 0.4476-0.7896 0.8688-1.1054 1.2633-0.79 1.0536-1.3955 2.1465-1.8166 3.2788 0.079 2.4752-0.1322 3.7128-0.6329 3.7128-0.2106 0-0.4737-0.1314-0.7895-0.3942-0.3159 0.8688-0.8427 1.4216-1.5804 1.6587-0.026-0.2636-0.04-0.5401-0.04-0.8294 0-1.5276 0.5007-3.2261 1.502-5.0954 1.211-2.1858 1.8692-3.5291 1.9745-4.0297-0.1053-1.6057-1.1717-3.2909-3.1992-5.0557-0.1849 1.3163-0.2902 3.1072-0.3159 5.3726-0.026 2.1594-0.1189 3.6602-0.2772 4.5024-1.0006 0.9217-2.7517 1.3826-5.2533 1.3826-0.9218 0-2.6862-0.1317-5.2931-0.3953-0.0001 5.2934-0.026 8.2693-0.078 8.9275-0.053 0.9217-0.3295 1.4747-0.8293 1.6586-0.8696 0.3424-1.6861 1.001-2.4495 1.9758-1.3164 0-1.9745-0.1185-1.9745-0.3556 0-0.1053 0.3552-0.5268 1.0656-1.2645 0.8695-0.8688 1.5281-1.7379 1.9757-2.6074 0.1318-0.3681 0.1977-0.8157 0.1977-1.3429 0-0.4211-0.053-1.0531-0.1579-1.8961-0.1061-0.974-0.172-1.6849-0.1977-2.1325-0.7377 1.5534-1.462 3.0808-2.1728 4.5819-0.7108 1.5012-1.0795 2.7127-1.106 3.6344-0.3424 0.131-1.0403 0.5128-2.0939 1.1452-0.7634 0.4477-1.369 0.6714-1.8166 0.6714-0.3158 0-0.6055-0.092-0.8691-0.276 0-0.2901 0.5268-0.9093 1.5803-1.8576 1.1846-1.0262 1.8821-1.8162 2.0927-2.3699 0.2901-0.7104 0.7249-2.1979 1.3043-4.4626 0.5794-2.2646 1.0797-3.9237 1.5008-4.9772 0.079-0.026 1.1451-0.5927 3.1992-1.6985 1.4224-0.7377 2.963-1.3565 4.6217-1.8564 0.3423-1.027 0.5135-2.12 0.5135-3.2788 0-1.4747-0.2371-2.8573-0.7112-4.1479-2.607 0.5794-4.6016 1.2641-5.9838 2.0541-1.3823 0.7899-2.7714 1.33-4.1673 1.6201-0.08-0.1849-0.1193-0.4087-0.1193-0.6715 0-1.2906 0.9218-2.8705 2.7653-4.7398 1.2119-1.87 2.1204-3.2265 2.7255-4.0696 0.2371-0.079 0.4149 0.04 0.5334 0.3563 0.1185 0.3162 0.1911 0.4744 0.2176 0.4743 0.2105 0.052 0.5463-0.014 1.0071-0.1983 0.4609-0.1844 0.836-0.2766 1.1253-0.2767 0.5529-0.052 0.8294 0.0005 0.8294 0.1579 0 0.2115-1.0138 1.0806-3.0414 2.6075-2.1063 1.6064-3.278 2.8179-3.515 3.6343 0.2893 0.1841 1.698-0.5006 4.2262-2.054 2.423-1.4482 3.8583-2.396 4.3059-2.8436 0.052-0.1061 0.078-0.2246 0.078-0.3556 0-0.7643-0.487-1.2517-1.461-1.4622-0.1052-0.4742-0.3684-1.2903-0.7895-2.4483 0.052-0.237 0.2101-0.4874 0.4737-0.751 0.3689-0.3423 0.5794-0.5529 0.6317-0.6316 0.5006-0.7643 0.988-1.2778 1.4622-1.5406 0.7369-0.4476 1.7242-0.632 2.9618-0.5533 1.1057 0.053 1.9616 0.4481 2.5676 1.185 0.5006 0.6059 0.7509 1.3698 0.7509 2.2915 0 1.5534-0.5135 2.5933-1.5405 3.1197 1.2898 1.6852 2.5668 3.3575 3.8309 5.0171 2.0018 2.791 3.1209 5.003 3.3572 6.6359zm-6.2406-7.8607c-0.4477-0.3424-0.9347-0.882-1.461-1.6189-0.6847-0.9748-1.0271-1.4622-1.027-1.4622-0.1053-0.184-0.158-0.3685-0.158-0.5533 0-0.3946 0.2435-1.0001 0.7305-1.8166s0.7305-1.4092 0.7305-1.778c0-0.7104-0.6582-1.2634-1.9745-1.6587-0.79 0.079-1.2115 0.1193-1.2645 0.1193-0.4211 0.052-0.7635 0.1575-1.027 0.3158 0 0.0001 0.1448 0.072 0.4345 0.217 0.2897 0.1447 0.4346 0.3488 0.4346 0.6123 0 0.1576-0.053 0.3288-0.1579 0.5136-0.3424 0.184-0.6321 0.276-0.8691 0.276-0.2637 0-0.4348-0.1185-0.5136-0.3556-0.052-0.1575-0.078-0.2362-0.078-0.2362-0.1583 0.4998-0.2508 1.0134-0.2773 1.5405 1.6852 1.5534 2.5278 2.7119 2.5279 3.4753-0.0001 0.3424-0.204 0.665-0.6118 0.968-0.4079 0.303-0.6118 0.5332-0.6118 0.6907 0.184 1.3171 0.3287 2.9895 0.434 5.0171 0.079 1.5012 0.1446 2.989 0.1977 4.4637-0.2636 0.4741-1.0275 1.0074-2.2916 1.5996-1.2641 0.5923-1.9749 1.0464-2.1324 1.3622 0.4741 0.079 0.9876 0.1193 1.5406 0.1193 1.6851 0 3.5415-0.3029 5.5691-0.9089 0-1.9223 0.013-3.8578 0.04-5.8066 0.1318-2.5539 0.7373-4.2524 1.8166-5.0954z"/>
      <path id="path4377" style="fill:#000080" inkscape:connector-curvature="0" d="m-3089.5 7533c-0.6847 0.2371-1.027 0.4874-1.027 0.751 0 0.079 0.046 0.2763 0.138 0.5925s0.138 0.6057 0.138 0.8685c0 0.4742-0.079 0.7112-0.2374 0.7112-0.079 0-0.2432-0.059-0.4931-0.1778-0.2499-0.1185-0.4279-0.1778-0.534-0.1778-0.184 0-0.2893 0.1053-0.3158 0.3159-0.1053 0.6059-0.1314 1.4356-0.078 2.4892 0.6052 0.8687 0.9077 2.1324 0.9077 3.7911 0 0.79-0.092 1.9356-0.276 3.4367-0.1583 1.58-0.2503 2.6729-0.2761 3.2789 0 0.184 0.046 0.4341 0.1381 0.7503 0.092 0.3163 0.138 0.5403 0.138 0.6721 0 0.1575-0.039 0.3021-0.1181 0.4339l-5.7669 0.04c0.079-0.7377 0.6976-1.1986 1.8564-1.3826 1.2641-0.2371 2.0275-0.6586 2.2904-1.2645-0.0001-4.0286-0.4083-6.8594-1.2248-8.4924-0.3158 0-0.9147-0.059-1.7967-0.1778-0.882-0.1185-1.5074-0.1645-1.8763-0.138-0.2371 1.8957-1.0009 3.9498-2.2915 6.1622-1.1846 2.0276-1.7769 3.634-1.7768 4.8194-0.4212 0.2893-1.04 0.4339-1.8564 0.4339-0.2371 0-0.652-0.02-1.2447-0.059-0.5926-0.039-1.0601-0.059-1.4025-0.059-0.3423 0-0.6714 0.014-0.9872 0.04-0.1318-0.4219 0.3158-0.8566 1.3428-1.3043 1.3694-0.5794 2.2385-1.0664 2.6074-1.461 0.7369-1.3959 1.4349-2.9364 2.0938-4.6216 0.8157-2.0541 1.2236-3.4629 1.2236-4.2263 0-0.1848-0.026-0.3299-0.078-0.4352 0.1053-1.2376 0.395-2.7649 0.8691-4.5819l0.5919-2.2903c-1.2111-0.5529-1.8166-0.9612-1.8166-1.2248 0-0.1317 0.5268-0.5926 1.5804-1.3826-0.3424-0.184-0.8957-0.7895-1.6599-1.8166-0.6052-0.843-1.0789-1.1986-1.4213-1.0668-0.3954 0.1583-0.9485 0.8956-1.6593 2.212-0.7108 1.3163-1.2506 2.001-1.6195 2.054-0.4998 0.079-1.0793-0.2109-1.7382-0.8691-0.8687-0.8165-1.4743-1.3035-1.8166-1.461l-1.8962 22.04h-1.3429c-0.026-1.5269 0.2106-5.4507 0.7113-11.771 0.4741-6.241 0.6847-10.401 0.6316-12.481-0.6059-0.5271-1.0142-1.291-1.2247-2.2915 0.2371-0.3158 0.632-0.5264 1.1849-0.6317 0.4742-0.079 0.8957-0.5271 1.2645-1.3428 0.606 0 0.9089 0.3158 0.9089 0.9474 0 0.1319-0.02 0.382-0.06 0.7504-0.04 0.3685-0.06 0.6584-0.06 0.8698 0 1.6587 1.027 2.7251 3.0811 3.1992 0.79-0.9748 1.422-2.4362 1.8962-4.3842-0.052-0.2636-0.2628-0.3954-0.6317-0.3954h-0.2573-0.296c-0.6581 0-1.1849-0.2635-1.5803-0.7907-0.1575-0.1575-0.4866-0.5393-0.9873-1.1452 0.1841-0.3158 0.2761-1.0465 0.2761-2.1921s0.1583-1.9815 0.4749-2.5079c0.5264-0.79 1.5534-1.2509 3.0811-1.3827 1.7375 0.1584 2.9092 0.5666 3.5151 1.2247 0.6059 0.6582 1.0668 2.0276 1.3827 4.1082 3.4491 0.974 6.1614 3.0016 8.1367 6.0827 0.1318 2.1593 0.3162 3.7786 0.5533 4.8579 0.1575 0.659 0.3287 1.1464 0.5135 1.4622 0.1575 0.2106 0.2234 0.4079 0.1977 0.5919zm-11.535-13.706c0.08-0.2371 0.1194-0.4874 0.1194-0.751 0-0.7112-0.2636-1.2906-0.7908-1.7382-0.6051-0.5264-1.3027-0.7896-2.0927-0.7896-0.6324 0-1.0672 0.2106-1.3042 0.6317-0.027 0.1052-0.04 0.1844-0.04 0.2374 0 0.1319 0.3752 0.2307 1.1258 0.2965 0.7506 0.066 1.2971 0.4806 1.6395 1.2441 0.1583 0.7369 0.3821 1.1054 0.6714 1.1053 0.1848 0.0001 0.4086-0.079 0.6714-0.2362zm9.1252 12.679c-0.5272-4.661-1.5542-7.0309-3.0811-7.1096 0.5264 1.5277 1.0399 3.0682 1.5406 4.6217 0.6581 1.7639 1.1717 2.5933 1.5405 2.4879zm-4.1479-4.6216c0.053-1.9223-0.5923-3.7521-1.9359-5.4896-0.6052 0-1.2897-0.1712-2.0535-0.5135-0.7639-0.3424-1.3563-0.5135-1.7774-0.5136-0.2371-0.1317-0.4872-0.2832-0.7504-0.4544s-0.7239-0.7442-1.3821-1.719c-0.5006-0.4733-1.0141-0.6179-1.5405-0.4339 0 0 0.066 0.026 0.1965 0.079 0.237 0.079 0.3556 0.2367 0.3556 0.4738 0 0.1318-0.039 0.303-0.1182 0.5135-0.184 0.1318-0.3552 0.1977-0.5135 0.1977-0.1318 0-0.257-0.039-0.3755-0.1187-0.1185-0.079-0.1778-0.092-0.1778-0.039 0 0.2893 0.04 0.6317 0.1194 1.027 0.3945 0.2106 0.9209 0.4738 1.5791 0.7896 0.4476-0.1052 0.8297-0.1579 1.1464-0.1579 1.0527 0 1.5791 0.553 1.5791 1.6587 0 0.3954-0.066 0.9089-0.1977 1.5406 0.2371 0.4476 0.9021 0.9874 1.995 1.6195 1.0929 0.632 1.9556 1.5934 2.5881 2.884 0.6051-0.2113 1.0262-0.6594 1.2633-1.3441zm2.1722 9.9148c0.1318-2.607-0.276-5.1481-1.2235-7.6232-0.7643-0.1319-1.449 0.9084-2.0541 3.1209-0.5537 1.9488-0.7908 3.5021-0.7112 4.6602 0.2371 0 0.6847 0.013 1.3429 0.039 0.5529 0.053 1.0005 0.066 1.3428 0.04 0.4742-0.026 0.9085-0.1057 1.3031-0.2375z"/>
      <path id="path4379" style="fill:#000080" inkscape:connector-curvature="0" d="m-3082.4 7594.5c0.079 0.1317 0.1181 0.2768 0.1181 0.4351 0 0.3423-0.204 0.6254-0.6118 0.8492-0.4078 0.2239-0.8886 0.3225-1.4423 0.296-0.9475-0.184-1.9613-0.276-3.0413-0.276-2.2912 0-4.4505 0.3419-6.4781 1.0258-1.817 0.3166-3.634 0.6329-5.451 0.9487-2.001 0.3158-3.673 0.4869-5.0158 0.5135-1.0536 0.027-2.3438-0.079-3.8707-0.3158-1.3694-0.2371-2.7388-0.4609-4.1082-0.6715-0.7112-0.3688-1.7121-0.4873-3.0027-0.3556-2.0798 0.2106-3.0145 0.3159-2.8039 0.3159-0.8165-0.026-1.2247-0.3689-1.2247-1.0271 0.1318-0.2893 0.5533-0.6316 1.2645-1.027 0.8157-0.4476 1.342-0.8293 1.5791-1.1452 1.6065-2.1594 3.0418-3.6999 4.3059-4.6217 2.1328-1.5276 4.6606-2.2915 7.5834-2.2915 1.5807 0 4.1483 0.6321 7.7028 1.8962 3.3969 1.1853 6.6625 2.5812 9.7966 4.1876 1.2111 0.2629 2.7778 0.6839 4.7001 1.2634zm-7.663-0.4738c-0.052-0.3423-0.6317-0.7638-1.7383-1.2645-0.052-0.026-1.0921-0.4207-3.1197-1.185-0.1583-0.052-0.8828-0.3812-2.1734-0.9872-0.8157-0.3688-1.408-0.5533-1.7768-0.5533-0.2371 0-0.4017 0.066-0.4936 0.1977-0.092 0.1318-0.1317 0.6059-0.1188 1.4224 0.013 0.8165-0.047 1.4088-0.1784 1.7768-0.2628 1.0013-0.618 1.8444-1.0656 2.5291 0 0.2105 0.184 0.3158 0.5521 0.3158 0.2901 0 1.0539-0.1383 2.2915-0.4147s2.1855-0.4412 2.8437-0.4942c0.1052-0.026 1.1323-0.2636 3.0811-0.7112 1.0801-0.2371 1.7121-0.4476 1.8962-0.6317zm-11.06-1.7383c0-1.1845-0.2238-2.0271-0.6714-2.5277-0.5264-0.5794-1.4482-0.8426-2.7653-0.7896-1.4482 0.052-2.429 0.3154-2.9425 0.7896-0.5135 0.4741-0.8097 1.3694-0.8884 2.6857-0.053 0.9748 0.3154 1.7648 1.1054 2.3699 0.6847 0.5271 1.5405 0.8169 2.5676 0.8691 1.0005 0.053 1.8497-0.2035 2.5477-0.7697 0.6979-0.5661 1.0469-1.4419 1.0469-2.6273zm-8.0186 3.7129c0-0.1311-0.2106-0.6378-0.6317-1.5202-0.4211-0.8823-0.6316-1.6791-0.6316-2.3904 0-0.5794 0.1181-1.1455 0.3544-1.6984-0.1053-0.025-0.2234-0.038-0.3544-0.038-0.79 0-1.6985 0.5463-2.7255 1.6388-1.0271 1.0925-1.5012 2.0736-1.4224 2.9431 0.3158 0.2893 1.0925 0.5131 2.3301 0.6714 1.027 0.1318 2.0541 0.2632 3.0811 0.3942z"/>
      <path id="path4381" style="fill:#000080" inkscape:connector-curvature="0" d="m-3090.4 7643.7c0.052 0.2371 0.078 0.5397 0.078 0.9078 0 2.2654-0.6976 5.4257-2.0927 9.4808-0.7112 1.1588-1.33 2.0408-1.8563 2.6459-0.9483 1.0536-1.9953 1.8239-3.1408 2.3108-1.1456 0.4871-2.7322 0.8491-4.7597 1.0862-2.3177 0.237-3.6606 0.4082-4.0286 0.5135-0.4742 0.5271-0.751 0.8169-0.8306 0.8691-0.1575 0.1053-0.3154 0.1977-0.4737 0.2773-0.5529-0.2902-1.0532-0.659-1.5008-1.1067-0.3158-0.3158-0.6188-0.6316-0.9089-0.9474-0.6051-0.5795-1.0921-1.2512-1.461-2.0155 0.079-0.2105 0.3419-0.3817 0.7896-0.5136 0.5529-0.1839 0.935-0.368 1.1463-0.552l2.9618-2.5676c1.7648-1.9223 2.7918-3.0285 3.0811-3.3186 1.6595-1.6852 3.3054-3.1201 4.9375-4.3046 1.1854-0.843 2.568-1.5543 4.148-2.1337 1.3951-0.4998 2.5008-0.7498 3.3174-0.7498 0.29 0 0.4877 0.039 0.593 0.1181zm-2.2915 3.0016c-0.1053 0.026-0.6976 0.4741-1.7768 1.3428-1.2907 1.0006-2.4101 1.9356-3.3584 2.8052-0.6582 0.6059-1.3823 1.4485-2.1722 2.5278-1.1058 1.5276-1.672 2.3043-1.6985 2.3301-0.1318 0.1848-0.1185 0.2772 0.04 0.2772-0.026 0 0.3291-0.066 1.0668-0.1977 0.5264-0.079 0.8816-0.053 1.0656 0.078 0.08 0.2113 0.1194 0.3825 0.1194 0.5135 0 0.1318-0.2108 0.3689-0.6323 0.7112-0.4215 0.3424-0.9746 0.5135-1.6593 0.5135-0.4998 0-1.1054-0.092-1.8166-0.2766-0.7112-0.1844-1.1062-0.2634-1.1849-0.2369 0.5794-0.8164 1.1588-1.6325 1.7382-2.4483 1.2111-1.5276 2.4354-3.0553 3.673-4.5831 0.5529-0.7369 1.1058-1.487 1.6587-2.2505-2.5017 1.4482-5.214 4.213-8.1368 8.2946-0.237 0.3424-0.8297 0.7639-1.778 1.2646-0.8422 0.4476-1.2633 0.7635-1.2633 0.9475 0 0.3423 0.1119 0.6714 0.3357 0.9872 0.2238 0.3159 0.4937 0.487 0.8095 0.5136 0.1848 0.026 0.5075-0.1511 0.968-0.5328 0.4604-0.3818 0.8092-0.5726 1.0463-0.5726 4.293 0 6.7685-0.2504 7.4267-0.751 1.6587-1.2641 2.9224-2.5809 3.7912-3.9503 1.0013-1.5534 1.5807-3.9892 1.7382-7.3074z"/>
      <path id="path4383" style="fill:#000080" inkscape:connector-curvature="0" d="m-3083.5 7707.2c0.1052 0.2106 0.1578 0.8554 0.1579 1.9347-0.0001 1.449-0.1315 4.4774-0.3942 9.0855-0.5272 0.053-1.5808 0.039-3.1607-0.04-1.8958-0.079-3.673-0.092-5.3317-0.039-4.477 0.1576-10.455-0.1587-17.933-0.9486-0.9217 0.3954-2.054 0.5931-3.3969 0.5931s-2.4619-0.211-3.3572-0.6329c-1.027-0.4476-1.5011-1.0664-1.4224-1.8563 0.184-0.3424 0.4079-0.7767 0.6714-1.3032 0.6582-2.2381 1.0797-3.5942 1.2646-4.0684 0.6051-1.6064 1.1974-2.3964 1.7768-2.3699 0.5529 0.1319 1.0929 1.093 1.6201 2.8835 0.6317 2.2381 1.0266 3.5022 1.185 3.7923 0.2105 0.1575 0.4211 0.434 0.6316 0.8294 0.1583 0.2627 0.4741 0.4866 0.9475 0.6714 1.9488 0.1053 5.2143 0.1579 9.7966 0.1579 4.5558 0 8.0845-0.053 10.586-0.1579 0.3946 0.079 0.5919-0.1451 0.5919-0.6714 0.7112-4.9247 1.2247-7.5449 1.5406-7.8608 1.08 0.026 1.8571 0.04 2.3313 0.04 0.4733 0 1.105-0.013 1.895-0.04zm-1.461 1.3826c-1.0271 0-1.6724 0.039-1.936 0.1181 0.026 0.3689-0.1248 1.6461-0.4538 3.8316-0.3291 2.1854-0.4937 3.4099-0.4937 3.6736 0.6059 0.2636 1.5406 0.2636 2.8039 0 0.3166-3.5023 0.3431-6.0434 0.08-7.6233zm-28.242 5.451c-0.1848-0.7377-0.3693-1.4621-0.5533-2.1734-0.2893-1.0792-0.6051-1.9086-0.9475-2.488-0.5794 0.7635-1.2906 2.5543-2.1336 5.3726 0.2105 0.5264 0.3423 0.7896 0.3954 0.7896h0.5533c0.2105-0.2371 0.3158-0.4083 0.3158-0.5135 0-0.053-0.1382-0.1059-0.4147-0.1586-0.2764-0.052-0.4018-0.2236-0.3761-0.5129 0.1849-0.1318 0.4485-0.3688 0.7908-0.7112 0.1053-0.2893 0.3423-0.7369 0.7112-1.3429 0.184 0.1841 0.3221 0.4605 0.4141 0.8294s0.2236 0.619 0.3948 0.7504c0.1711 0.1314 0.4544 0.1842 0.8498 0.1585zm0.5533 1.6587c-0.027-0.2371-0.2242-0.3949-0.5931-0.4738-0.3688-0.053-0.6453-0.0003-0.8293 0.158-0.1318 0.2893 0.039 0.4339 0.5135 0.4339 0.2636 0 0.5666-0.039 0.9089-0.1181z"/>
      <path id="path4385" style="fill:#000080" inkscape:connector-curvature="0" d="m-3082.3 7783.7c-0.0001 0.5794-0.3159 0.869-0.9475 0.869-0.1584 0-0.7113-0.1446-1.6587-0.4339-0.08-0.026-0.3958-0.1849-0.9487-0.475-0.4211-0.237-0.7896-0.3555-1.1054-0.3555-0.1583 0-0.8957 0.026-2.212 0.079-0.9483 0.052-1.7254 0.052-2.3313 0-0.026-0.026-0.1374-0.092-0.3351-0.1977-0.1977-0.1053-0.3886-0.1579-0.5726-0.1579-0.1583 0-0.4416 0.1252-0.8498 0.3755-0.4083 0.2503-0.6912 0.3755-0.8487 0.3755-0.1848 0-0.3365-0.033-0.455-0.099-0.1186-0.066-0.204-0.099-0.2562-0.099-0.2371 1.6065-0.3556 3.0019-0.3556 4.1865 0 0.606 0.013 1.001 0.04 1.185 0.4998 0.2636 0.7498 0.6191 0.7498 1.0668 0 0.3946-0.1579 0.6976-0.4737 0.9089-0.2637 0-0.7705 0.072-1.5207 0.2169-0.7502 0.1447-1.1912 0.2171-1.323 0.2171-0.079 0-1.0662-0.066-2.9624-0.1978-1.8961-0.1318-3.2525-0.2105-4.0689-0.2362-0.2894-0.2113-0.4999-0.317-0.6317-0.317-0.1583 0-0.356 0.092-0.5931 0.2772-0.3423 0.2371-0.5462 0.3753-0.6117 0.4147-0.066 0.039-0.5198 0.059-1.3628 0.059 0.052 0-0.6391-0.04-2.074-0.1187-1.4348-0.079-2.4946-0.1055-3.1793-0.079-0.7635 0.026-1.1452-0.2366-1.1452-0.7895 0-0.6582 0.3552-1.185 1.0656-1.5804 0.1053-0.052 0.4083-0.078 0.9089-0.078 0.1583 0 0.7574 0.059 1.7973 0.1778 1.0399 0.1185 1.639 0.1778 1.7974 0.1778-0.1318 0 0.1579 0.039 0.8691 0.1181 0.3946 0.052 0.6843 0.013 0.8691-0.1181 0.4733-0.4219 1.1974-1.594 2.1722-3.5163 0.026-0.079 0.04-0.3813 0.04-0.9077 0-1.3694-0.5135-2.6074-1.5405-3.714-0.3689-0.184-0.909-0.5131-1.6201-0.9872-0.3424-0.2636-1.7905-1.6989-4.3445-4.3059-0.7899-0.7104-1.9094-1.8688-3.3583-3.4753-0.3159-0.3688-0.4738-1.2114-0.4738-2.5278 0-0.3423 0.303-1.027 0.9089-2.0541 0.4999-0.8694 1.5796-2.0942 3.2391-3.6742 1.4746-1.395 2.3699-2.5402 2.6857-3.4354-0.2106-0.2636-0.5133-0.4151-0.9083-0.4545-0.395-0.039-0.7506-0.079-1.0668-0.1188-0.3163-0.04-1.1193-0.244-2.4091-0.6129-1.0005-0.2893-1.5932-0.434-1.778-0.434-0.1053 0-0.4674 0.059-1.0862 0.1778-0.6187 0.1186-1.0467 0.1778-1.2837 0.1778-0.2894 0-0.6118-0.1515-0.9674-0.4544-0.3556-0.303-0.5334-0.5204-0.5334-0.6522 0-0.7104 0.5927-1.0921 1.778-1.1452 0.6847 0.0001 1.3561 0.0001 2.0143 0 0.3946-0.4998 1.0527-1.2239 1.9745-2.1722 0.1848-0.1583 0.6459-0.3361 1.3833-0.5334 0.7373-0.1972 1.2506-0.2959 1.5399-0.2959 1.2111 0 2.2642 0.6188 3.1595 1.8564 0.7899 1.1058 1.1849 2.2116 1.1849 3.3173 0 0.9749-0.6581 2.2786-1.9745 3.9111-1.3163 1.6326-1.9745 2.7912-1.9745 3.4759 0 0.4211 0.3552 0.6976 1.0656 0.8294 0.4476 0.026 0.8824 0.053 1.3043 0.079 3.4492 0.8953 5.3715 1.4088 5.7669 1.5406 2.6334 0.8687 4.8189 1.9612 6.5564 3.2776 1.3436 0.8165 3.2004 1.9886 5.5703 3.5163 0.3946 0.368 1.0528 0.8289 1.9745 1.3826 1.3429 0.4733 2.0935 0.7498 2.2518 0.8293 0.9217 0.3946 1.3826 0.829 1.3827 1.3031-0.0001 0.5007-0.4348 0.751-1.3043 0.751 0.053 0-0.2235-0.04-0.8294-0.1193-0.4476-0.052-0.9346-0.039-1.461 0.04 0.6316 0.843 1.3557 1.4091 2.1722 1.6984 1.0536 0.3424 1.7648 0.6715 2.1337 0.9873 0.1052 0.026 0.3419 0.04 0.71 0.04 0.4476 0.1318 0.6714 0.4741 0.6714 1.027zm-26.109-25.043v-1.0669c0.026-0.3423-0.1579-0.7501-0.5533-1.2235-0.5006-0.6325-1.1588-0.9354-1.9745-0.9089-0.2113 0-0.5472 0.1316-1.0077 0.3948s-0.7566 0.408-0.8884 0.4345c-0.1318 0.2901-0.3428 0.6852-0.6329 1.185 0.1061 0 0.4356 0.1053 0.9885 0.3158-0.08-0.1575-0.1194-0.3154-0.1194-0.4738 0-0.2635 0.099-0.4809 0.2966-0.6521 0.1977-0.1711 0.4018-0.2567 0.6123-0.2568 0.8165 0.0001 1.2248 0.277 1.2248 0.8306 0 0.184-0.079 0.3681-0.2375 0.5521-0.2628 0.2636-0.4074 0.4215-0.434 0.4737 1.0793 0.026 1.9878 0.1584 2.7255 0.3954zm19.276 22.831c0.1053-0.3424-0.1517-0.7637-0.7709-1.2639-0.6192-0.5003-1.2052-0.8031-1.7581-0.9084-1.4482-0.053-3.5284-0.2109-6.2406-0.4737-1.0271-0.1053-2.4097-0.2897-4.1479-0.5533-1.764-0.4476-3.3966-0.9612-4.8978-1.5406-0.6847-0.2636-1.3824-0.8034-2.0932-1.6194-0.7108-0.8161-1.0662-1.5798-1.0662-2.291 0-0.79 0.3684-1.3955 1.1054-1.8167 0.7112-0.053 1.0141-0.079 0.9089-0.079 0.4741 0 0.7638 0.026 0.8691 0.079 0.2371 0.079 0.3556 0.342 0.3556 0.7896 0 0.1841-0.1648 0.375-0.4942 0.5726-0.3295 0.1977-0.5995 0.2966-0.8101 0.2965v0.6715c0.7377 1.0005 1.3963 1.6326 1.9757 1.8961 2.8698 1.2899 7.9913 2.0405 15.365 2.2518-0.79-0.7112-1.8037-1.5409-3.0413-2.4892l-3.949-2.2904c-1.633-0.896-2.9104-1.5281-3.8321-1.8961-1.0793-0.4219-2.6725-0.8302-4.7796-1.2248-2.2647-0.4211-3.884-0.8028-4.858-1.1451-0.3423-0.1318-0.6586-0.6851-0.9487-1.6599-0.5263 0.237-0.9937 0.6979-1.4019 1.3826s-0.6124 1.33-0.6124 1.9359c0 1.1324 1.0665 2.5411 3.1993 4.2263 0.3689 0.2902 0.8561 0.8366 1.4616 1.6394 0.6055 0.8029 1.0401 1.31 1.3037 1.5213 0.3158 0.3158 0.8161 0.7502 1.5008 1.3031 1.4481 0.9483 2.6989 1.5932 3.7525 1.9347 0.7112 0.2114 1.7515 0.4356 3.1209 0.6727 1.1845 0.2105 1.9219 0.3158 2.212 0.3158 0.1318 0 0.3819-0.026 0.7504-0.079 0.3684-0.053 0.6186-0.066 0.7504-0.041 1.027 0.2114 1.4352 0.317 1.2247 0.317 0.3158 0 0.5396-0.026 0.6714-0.079 0.3424-0.4742 0.6582-0.8298 0.9475-1.0668 1.1588 0.6581 2.568 0.8952 4.2275 0.7112zm-7.9005 4.9375c0-1.2907-0.5661-2.2783-1.6984-2.9631-0.79-0.4998-2.0409-0.8156-3.7526-0.9474 0.026 0.5529 0.026 1.2641 0 2.1336-0.053 0.4477-0.3428 1.1849-0.8691 2.212-0.027 0.052-0.1712 0.2628-0.434 0.6316-0.1583 0.2628-0.2375 0.4734-0.2375 0.6317 0 0.3423 0.079 0.5927 0.2375 0.751 0.4999-0.1849 0.9475-0.2773 1.3429-0.2773 0.237 0 0.6714 0.079 1.3031 0.2375 0.6316 0.1583 1.2371 0.2375 1.8166 0.2375 0.6059 0 1.2906-0.066 2.0541-0.1977-0.0001-0.2901 0.04-0.738 0.1187-1.3434 0.079-0.6056 0.1187-0.9743 0.1187-1.1061z"/>
      <path id="path4387" style="fill:#000080" inkscape:connector-curvature="0" d="m-3092.6 7836.2c0 2.2124-0.7637 4.1809-2.291 5.9055s-3.3573 2.5869-5.4902 2.5869c-2.5017 0-4.5951-0.9612-6.2803-2.8834-1.5012-1.7117-2.2518-3.6473-2.2518-5.8066 0-2.4222 0.757-4.3575 2.2711-5.8061 1.514-1.4485 3.5351-2.1728 6.0633-2.1728 2.3177 0 4.2269 0.7571 5.7277 2.2711s2.2512 3.4825 2.2512 5.9054zm-1.461 0.1579c0-1.7639-0.4874-3.3306-1.4622-4.7-1.1846-1.7117-2.8039-2.5543-4.858-2.5278-2.054 0-3.8052 0.6847-5.2533 2.0541s-2.1722 3.0414-2.1722 5.0159c0 1.7647 0.6843 3.3579 2.0529 4.7795 1.4489 1.5012 3.1739 2.2518 5.1749 2.2518 1.7118 0 3.226-0.6451 4.5428-1.9353 1.3167-1.2902 1.9751-2.9363 1.9751-4.9381zm-4.3842 1.0669c-0.3424 0.2371-0.7112 0.4805-1.1066 0.7304-0.3954 0.25-0.8037 0.375-1.2248 0.375s-0.974-0.2765-1.6586-0.8294c-0.6847-0.5529-1.0271-1.0664-1.0271-1.5406 0-0.5263 0.2238-1.0199 0.6715-1.4808 0.4476-0.4609 1.0402-0.7307 1.778-0.8095 0.8687-0.053 1.7246 0.3154 2.5676 1.1054 0.3423 0.8695 0.3423 1.686 0 2.4495zm-1.4224-2.0939c-0.606-0.2105-1.1721-0.2105-1.6985 0l-0.4738 0.8691c0 0.5529 0.2632 0.8294 0.7896 0.8294l0.9475 0.039c0.3688-0.5529 0.5139-1.1323 0.4352-1.7383z"/>
      <path id="path4389" style="fill:#000080" inkscape:connector-curvature="0" d="m-3083.8 7892.8c0.026 0.8688-0.2379 1.5535-0.7908 2.0541-0.5529 0.5007-1.1978 0.751-1.9347 0.751-0.8696 0-1.6005-0.2831-2.1927-0.8492-0.5923-0.5662-0.8884-1.3234-0.8884-2.2717 0-0.7634 0.2633-1.4085 0.7901-1.9353s1.2378-0.7902 2.1331-0.7902c0.8422 0 1.5266 0.2897 2.0535 0.8691 0.5267 0.5795 0.8034 1.3035 0.8299 2.1722zm-14.141 0c0.026 0.8688-0.2369 1.5535-0.7901 2.0541-0.5533 0.5007-1.1985 0.751-1.9354 0.751-0.8695 0-1.6004-0.2831-2.1927-0.8492-0.5923-0.5662-0.8884-1.3234-0.8884-2.2717 0-0.7634 0.2634-1.4085 0.7902-1.9353s1.2378-0.7902 2.133-0.7902c0.8422 0 1.5267 0.2897 2.0535 0.8691 0.5267 0.5795 0.8034 1.3035 0.8299 2.1722zm-13.983 0c0.026 0.8688-0.2369 1.5535-0.7902 2.0541-0.5533 0.5007-1.1984 0.751-1.9353 0.751-0.8687 0-1.5995-0.2831-2.1921-0.8492-0.5927-0.5662-0.889-1.3234-0.889-2.2717 0-0.7634 0.2633-1.4085 0.7901-1.9353s1.2378-0.7902 2.1331-0.7902c0.8422 0 1.5267 0.2897 2.0534 0.8691 0.5268 0.5795 0.8035 1.3035 0.83 2.1722zm26.742 0c-0.027-1.0792-0.5268-1.6188-1.5008-1.6188-0.4477 0-0.8163 0.1512-1.106 0.4538s-0.4217 0.6515-0.396 1.047c0 0.8686 0.5267 1.303 1.5803 1.303 0.9483 0 1.4224-0.395 1.4225-1.185zm-14.141 0c-0.027-1.0792-0.5268-1.6188-1.5008-1.6188-0.4476 0-0.8163 0.1512-1.106 0.4538s-0.4213 0.6515-0.3948 1.047c0 0.8686 0.5264 1.303 1.5792 1.303 0.9482 0 1.4224-0.395 1.4224-1.185zm-13.983 0c-0.026-1.0792-0.5267-1.6188-1.5007-1.6188-0.4477 0-0.8163 0.1512-1.106 0.4538s-0.4213 0.6515-0.3948 1.047c0 0.8686 0.5264 1.303 1.5791 1.303 0.9483 0 1.4224-0.395 1.4224-1.185z"/>
      <path id="path4391" d="m-3087.4 7937.7c-0.3689 0.1318-0.8377 0.646-1.3906 1.5156-0.6582 1.1058-1.0401 1.712-1.1719 1.8438-0.2901-0.1848-0.6617-0.6863-1.1093-1.5157-0.4477-0.8293-0.8664-1.3056-1.2344-1.4375-0.2371 0.2106-0.5653 0.6638-1 1.375-0.4348 0.7112-0.8092 1.1802-1.125 1.3907-0.1318-0.1583-0.5294-0.7088-1.1875-1.6563-0.4476-0.659-0.8452-1.0306-1.1875-1.1094-0.3159 0.053-0.6875 0.4757-1.1094 1.2657-0.4999 0.9209-0.8057 1.4463-0.9375 1.5781-0.1053-0.1318-0.4056-0.6312-0.9062-1.5-0.4212-0.6847-0.7677-1.1333-1.0313-1.3438-0.3946 0.1318-0.8407 0.6105-1.3281 1.4531s-0.816 1.337-1 1.4688c-0.1053-0.1053-0.4009-0.6558-0.875-1.6563-0.3424-0.6847-0.7658-1.1073-1.2656-1.2656-0.5272 0.1053-1.0055 0.5279-1.4532 1.2656-0.2628 0.553-0.538 1.1034-0.8281 1.6563-0.3689-0.6059-0.7358-1.2278-1.0781-1.8594-0.4476-0.6582-0.8452-1.0094-1.1875-1.0625-0.3158 0.079-0.693 0.507-1.1406 1.2969-0.5529 0.9483-0.9042 1.498-1.0625 1.6562-0.1841-0.237-0.5103-0.7867-0.9844-1.6562-0.3424-0.6316-0.7399-1.0598-1.1875-1.2969-0.5794 0.026-1.2216 0.6021-1.9063 1.7344-0.4998 0.9474-0.9993 1.8954-1.5 2.8437 0.6317 0.6325 1.1719 0.9532 1.5938 0.9532 0.3681-1.3437 1.0511-2.3372 2.0781-2.9688 0.3166 0.6316 0.6577 1.2535 1 1.8594 0.3946 0.6847 0.8227 1.0618 1.2969 1.1406 0.2371-0.2371 0.5378-0.7342 0.9062-1.4844 0.3685-0.7502 0.6896-1.2316 0.9532-1.4687 0.2901 0.2893 0.6617 0.8397 1.1093 1.6562 0.3159 0.606 0.6883 0.9628 1.1094 1.0938 0.3158-0.1053 0.6954-0.5358 1.1563-1.3125 0.4608-0.7767 0.8098-1.2535 1.0468-1.4375 0.3159 0.5264 0.6421 1.0565 0.9844 1.6094s0.7602 0.9041 1.2344 1.0625c0.7899-0.3954 1.5388-1.2972 2.25-2.7188 0.5794 1.1058 1.053 1.9769 1.4219 2.6094 0.368 0.184 0.8165 0.184 1.3437 0 0.184-0.4476 0.3628-0.8906 0.5469-1.3125 0.237-0.5529 0.5115-0.9607 0.8281-1.25 0.8952 1.0793 1.4716 1.93 1.7344 2.5625 0.5006 0.2893 0.9491 0.2893 1.3437 0 0.1849-0.4476 0.3785-0.8962 0.5625-1.3438 0.2636-0.5537 0.5388-0.9559 0.8282-1.2187 0.8429 1.1058 1.4388 1.9566 1.7812 2.5625 0.4998 0.2893 0.928 0.2893 1.2969 0 0.7112-1.3694 1.2867-2.3629 1.7344-2.9688 1.0005 1.8701 1.6732 2.9607 2.0156 3.25 0.079 0.079 0.2727-0.043 0.5625-0.3593 0.2897-0.3159 0.4728-0.4844 0.5781-0.4844 0.079 0 0.1509 0.071 0.2031 0.2031-1.7117-3.1342-2.8126-4.8764-3.3125-5.2187zm0 12c-0.3689 0.1318-0.8377 0.6305-1.3906 1.5-0.6582 1.1058-1.0401 1.7276-1.1719 1.8594-0.2901-0.1848-0.6617-0.6863-1.1093-1.5157-0.4477-0.8293-0.8664-1.3056-1.2344-1.4375-0.2371 0.2106-0.5653 0.6638-1 1.375-0.4348 0.7112-0.8092 1.1802-1.125 1.3907-0.1318-0.1583-0.5294-0.7244-1.1875-1.6719-0.4476-0.659-0.8452-1.015-1.1875-1.0938-0.3159 0.053-0.6875 0.4757-1.1094 1.2656-0.4999 0.921-0.8057 1.4463-0.9375 1.5782-0.1053-0.1318-0.4056-0.6312-0.9062-1.5-0.4212-0.6847-0.7677-1.1333-1.0313-1.3438-0.3946 0.1318-0.8407 0.6105-1.3281 1.4531s-0.816 1.337-1 1.4688c-0.1053-0.1053-0.4009-0.6558-0.875-1.6563-0.3424-0.6847-0.7658-1.1073-1.2656-1.2656-0.5272 0.1053-1.0055 0.5279-1.4532 1.2656-0.2628 0.553-0.538 1.1034-0.8281 1.6563-0.3689-0.606-0.7358-1.2278-1.0781-1.8594-0.4476-0.6582-0.8452-1.0095-1.1875-1.0625-0.3158 0.079-0.693 0.5069-1.1406 1.2969-0.5529 0.9483-0.9042 1.4979-1.0625 1.6562-0.1841-0.237-0.5103-0.7867-0.9844-1.6562-0.3424-0.6316-0.7399-1.0598-1.1875-1.2969-0.5794 0.026-1.2216 0.6021-1.9063 1.7344-0.4998 0.9474-0.9993 1.8954-1.5 2.8437 0.6317 0.6325 1.1719 0.9532 1.5938 0.9532 0.3681-1.3437 1.0511-2.3372 2.0781-2.9688 0.3166 0.6316 0.6577 1.2535 1 1.8594 0.3946 0.6847 0.8227 1.0618 1.2969 1.1406 0.2371-0.2371 0.5378-0.7342 0.9062-1.4844 0.3685-0.7502 0.6896-1.2316 0.9532-1.4687 0.2901 0.2893 0.6617 0.8397 1.1093 1.6562 0.3159 0.606 0.6883 0.9628 1.1094 1.0938 0.3158-0.1053 0.6954-0.5358 1.1563-1.3125 0.4608-0.7767 0.8098-1.2535 1.0468-1.4375 0.3159 0.5264 0.6421 1.0565 0.9844 1.6094s0.7602 0.9041 1.2344 1.0625c0.7899-0.3954 1.5388-1.2972 2.25-2.7188 0.5794 1.1058 1.053 1.9769 1.4219 2.6094 0.368 0.184 0.8165 0.184 1.3437 0 0.184-0.4476 0.3628-0.8906 0.5469-1.3125 0.237-0.5529 0.5115-0.9607 0.8281-1.25 0.8952 1.0793 1.4716 1.93 1.7344 2.5625 0.5006 0.2893 0.9491 0.2893 1.3437 0 0.1849-0.4476 0.3785-0.8962 0.5625-1.3438 0.2636-0.5537 0.5388-0.9559 0.8282-1.2187 0.8429 1.1058 1.4388 1.9566 1.7812 2.5625 0.4998 0.2893 0.928 0.2893 1.2969 0 0.7112-1.3694 1.2867-2.3629 1.7344-2.9688 1.0005 1.8701 1.6732 2.9607 2.0156 3.25 0.079 0.079 0.2727-0.043 0.5625-0.3593 0.2897-0.3159 0.4728-0.4844 0.5781-0.4844 0.079 0 0.1509 0.071 0.2031 0.2031-1.7117-3.1342-2.8126-4.8764-3.3125-5.2187zm0 12c-0.3689 0.1318-0.8377 0.6305-1.3906 1.5-0.6582 1.1058-1.0401 1.7276-1.1719 1.8594-0.2901-0.1848-0.6617-0.6863-1.1093-1.5157-0.4477-0.8293-0.8664-1.3056-1.2344-1.4375-0.2371 0.2106-0.5653 0.6638-1 1.375-0.4348 0.7112-0.8092 1.1802-1.125 1.3907-0.1318-0.1583-0.5294-0.7244-1.1875-1.6719-0.4476-0.659-0.8452-1.015-1.1875-1.0938-0.3159 0.053-0.6875 0.4757-1.1094 1.2656-0.4999 0.921-0.8057 1.4463-0.9375 1.5782-0.1053-0.1318-0.4056-0.6312-0.9062-1.5-0.4212-0.6847-0.7677-1.1333-1.0313-1.3438-0.3946 0.1318-0.8407 0.6105-1.3281 1.4531s-0.816 1.337-1 1.4688c-0.1053-0.1053-0.4009-0.6558-0.875-1.6563-0.3424-0.6847-0.7658-1.1073-1.2656-1.2656-0.5272 0.1053-1.0055 0.5279-1.4532 1.2656-0.2628 0.553-0.538 1.1034-0.8281 1.6563-0.3689-0.606-0.7358-1.2278-1.0781-1.8594-0.4476-0.6582-0.8452-1.0095-1.1875-1.0625-0.3158 0.079-0.693 0.5069-1.1406 1.2969-0.5529 0.9483-0.9042 1.4979-1.0625 1.6562-0.1841-0.237-0.5103-0.7867-0.9844-1.6562-0.3424-0.6316-0.7399-1.0598-1.1875-1.2969-0.5794 0.026-1.2216 0.6021-1.9063 1.7344-0.4998 0.9474-0.9993 1.8954-1.5 2.8437 0.6317 0.6325 1.1719 0.9532 1.5938 0.9532 0.3681-1.3437 1.0511-2.3372 2.0781-2.9688 0.3166 0.6316 0.6577 1.2535 1 1.8594 0.3946 0.6847 0.8227 1.0618 1.2969 1.1406 0.2371-0.2371 0.5378-0.7342 0.9062-1.4844 0.3685-0.7502 0.6896-1.2316 0.9532-1.4687 0.2901 0.2893 0.6617 0.8397 1.1093 1.6562 0.3159 0.606 0.6883 0.9628 1.1094 1.0938 0.3158-0.1053 0.6954-0.5358 1.1563-1.3125 0.4608-0.7767 0.8098-1.2535 1.0468-1.4375 0.3159 0.5264 0.6421 1.0565 0.9844 1.6094s0.7602 0.9041 1.2344 1.0625c0.7899-0.3954 1.5388-1.2972 2.25-2.7188 0.5794 1.1058 1.053 1.9769 1.4219 2.6094 0.368 0.184 0.8165 0.184 1.3437 0 0.184-0.4476 0.3628-0.8906 0.5469-1.3125 0.237-0.5529 0.5115-0.9607 0.8281-1.25 0.8952 1.0793 1.4716 1.93 1.7344 2.5625 0.5006 0.2893 0.9491 0.2893 1.3437 0 0.1849-0.4476 0.3785-0.8962 0.5625-1.3438 0.2636-0.5537 0.5388-0.9559 0.8282-1.2187 0.8429 1.1058 1.4388 1.9566 1.7812 2.5625 0.4998 0.2893 0.928 0.2893 1.2969 0 0.7112-1.3694 1.2867-2.3629 1.7344-2.9688 1.0005 1.8701 1.6732 2.9451 2.0156 3.2344 0.079 0.079 0.2727-0.028 0.5625-0.3437 0.2897-0.3159 0.4728-0.4844 0.5781-0.4844 0.079 0 0.1509 0.071 0.2031 0.2031-1.7117-3.1342-2.8126-4.8764-3.3125-5.2187z" style="fill:#000080" inkscape:connector-curvature="0"/>
      <path id="path4397" style="fill:#000080" inkscape:connector-curvature="0" d="m-3085.2 8021.1h-9.7954l-0.1579-2.212h8.0572v-13.114l-27.413 0.08v13.074l8.1379-0.04c-0.1061 1.2376-0.1591 1.9749-0.1591 2.212h-9.7955v-16.905h31.126z"/>
      <text id="text4413" y="7842.6582" x="-3037.6157" style="font-size:39.5px;font-family:Arial;fill:#000000" xml:space="preserve">
        <tspan id="tspan4415" y="7842.6582" x="-3037.6157" sodipodi:role="line">sun</tspan>
      </text>
      <text id="text4418" y="7902.6416" x="-3037.6157" xml:space="preserve" style="font-size:39.5px;font-family:Arial;fill:#000000">
        <tspan id="tspan4420" sodipodi:role="line" x="-3037.6157" y="7902.6416">sand</tspan>
      </text>
      <text id="text4426" y="7422.772" x="-3036.5164" xml:space="preserve" style="font-size:39.5px;font-family:Arial;fill:#000000">
        <tspan id="tspan4428" sodipodi:role="line" x="-3036.5164" y="7422.772">woman</tspan>
      </text>
      <text id="text4430" y="7482.7559" x="-3037.9436" style="font-size:39.5px;font-family:Arial;fill:#000000" xml:space="preserve">
        <tspan id="tspan4432" y="7482.7559" x="-3037.9436" sodipodi:role="line">child, young</tspan>
      </text>
      <text id="text4434" y="7542.7393" x="-3037.7122" xml:space="preserve" style="font-size:39.5px;font-family:Arial;fill:#000000">
        <tspan id="tspan4436" sodipodi:role="line" x="-3037.7122" y="7542.7393">oldman, old</tspan>
      </text>
      <text id="text4438" y="7602.7231" x="-3037.8472" style="font-size:39.5px;font-family:Arial;fill:#000000" xml:space="preserve">
        <tspan id="tspan4440" y="7602.7231" x="-3037.8472" sodipodi:role="line">eye, see, look</tspan>
      </text>
      <text id="text4442" y="7662.707" x="-3037.8472" xml:space="preserve" style="font-size:39.5px;font-family:Arial;fill:#000000">
        <tspan id="tspan4444" sodipodi:role="line" x="-3037.8472" y="7662.707">ear, hear</tspan>
      </text>
      <text id="text4446" y="7722.6904" x="-3037.7507" style="font-size:39.5px;font-family:Arial;fill:#000000" xml:space="preserve">
        <tspan id="tspan4448" y="7722.6904" x="-3037.7507" sodipodi:role="line">donate</tspan>
      </text>
      <text id="text4450" y="7782.6743" x="-3038.9851" xml:space="preserve" style="font-size:39.5px;font-family:Arial;fill:#000000">
        <tspan id="tspan4452" sodipodi:role="line" x="-3038.9851" y="7782.6743">bird</tspan>
      </text>
      <text id="text4454" y="7962.6255" x="-3036.5164" style="font-size:39.5px;font-family:Arial;fill:#000000" xml:space="preserve">
        <tspan id="tspan4456" y="7962.6255" x="-3036.5164" sodipodi:role="line">water, liquid</tspan>
      </text>
      <text id="text4458" y="8022.6094" x="-3038.9851" xml:space="preserve" style="font-size:39.5px;font-family:Arial;fill:#000000">
        <tspan id="tspan4460" sodipodi:role="line" x="-3038.9851" y="8022.6094">building</tspan>
      </text>
      <text id="text6844" y="7230.9131" x="-2956.6846" style="stroke-linejoin:round;font-size:39.5px;fill:#000000;text-anchor:middle;stroke:#000000;stroke-linecap:round;font-family:Arial;text-align:center" xml:space="preserve">
        <tspan id="tspan6846" y="7230.9131" x="-2956.6846" sodipodi:role="line">Some Egyptian</tspan>
        <tspan id="tspan6848" y="7280.2881" x="-2956.6846" sodipodi:role="line">determinatives</tspan>
      </text>
    </g>
  </g>
  <metadata>
    <rdf:RDF>
      <cc:Work>
        <dc:format>image/svg+xml</dc:format>
        <dc:type rdf:resource="http://purl.org/dc/dcmitype/StillImage"/>
        <cc:license rdf:resource="http://creativecommons.org/licenses/publicdomain/"/>
        <dc:publisher>
          <cc:Agent rdf:about="http://openclipart.org/">
            <dc:title>Openclipart</dc:title>
          </cc:Agent>
        </dc:publisher>
      </cc:Work>
      <cc:License rdf:about="http://creativecommons.org/licenses/publicdomain/">
        <cc:permits rdf:resource="http://creativecommons.org/ns#Reproduction"/>
        <cc:permits rdf:resource="http://creativecommons.org/ns#Distribution"/>
        <cc:permits rdf:resource="http://creativecommons.org/ns#DerivativeWorks"/>
      </cc:License>
    </rdf:RDF>
  </metadata>
</svg>