<?xml version="1.0" encoding="UTF-8" standalone="no"?>
<!-- Created with Inkscape (http://www.inkscape.org/) -->

<svg
   xmlns:dc="http://purl.org/dc/elements/1.1/"
   xmlns:cc="http://creativecommons.org/ns#"
   xmlns:rdf="http://www.w3.org/1999/02/22-rdf-syntax-ns#"
   xmlns:svg="http://www.w3.org/2000/svg"
   xmlns="http://www.w3.org/2000/svg"
   xmlns:sodipodi="http://sodipodi.sourceforge.net/DTD/sodipodi-0.dtd"
   xmlns:inkscape="http://www.inkscape.org/namespaces/inkscape"
   width="45.200367"
   height="46.719093"
   viewBox="0 0 11.959263 12.361094"
   version="1.1"
   id="svg1020"
   inkscape:version="0.92.2 2405546, 2018-03-11"
   sodipodi:docname="a.svg">
  <defs
     id="defs1014" />
  <sodipodi:namedview
     id="base"
     pagecolor="#ffffff"
     bordercolor="#666666"
     borderopacity="1.0"
     inkscape:pageopacity="0.0"
     inkscape:pageshadow="2"
     inkscape:zoom="1"
     inkscape:cx="-450.59927"
     inkscape:cy="22.1"
     inkscape:document-units="mm"
     inkscape:current-layer="layer1"
     showgrid="false"
     fit-margin-top="5"
     fit-margin-left="5"
     fit-margin-bottom="5"
     units="px"
     fit-margin-right="5"
     inkscape:window-width="1344"
     inkscape:window-height="718"
     inkscape:window-x="22"
     inkscape:window-y="0"
     inkscape:window-maximized="1" />
  <metadata
     id="metadata1017">
    <rdf:RDF>
      <cc:Work
         rdf:about="">
        <dc:format>image/svg+xml</dc:format>
        <dc:type
           rdf:resource="http://purl.org/dc/dcmitype/StillImage" />
        <dc:title />
      </cc:Work>
    </rdf:RDF>
  </metadata>
  <g
     inkscape:label="Capa 1"
     inkscape:groupmode="layer"
     id="layer1"
     transform="translate(-99.020393,-142.31952)">
    <path
       id="path4464"
       d="m 109.65669,152.32062 c -0.0353,0.0846 -0.13759,0.16924 -0.30682,0.25387 0.16923,0.25408 0.25385,0.41287 0.25385,0.4764 0,0.0917 -0.0494,0.16578 -0.14824,0.22221 -0.0988,0.0564 -0.20111,0.0846 -0.30683,0.0846 -0.28229,0 -0.6986,-0.17991 -1.24895,-0.5397 -0.57146,-0.3669 -0.89251,-0.68439 -0.96312,-0.95246 -2e-5,0 -0.11639,-0.21521 -0.34915,-0.64564 -0.0493,-0.11282 -0.0987,-0.22221 -0.14824,-0.32813 -0.0846,-0.16214 -0.16225,-0.25387 -0.23286,-0.27518 -0.0282,0.24697 -0.0811,0.63153 -0.15859,1.15367 -0.0282,0.11282 -0.0987,0.16924 -0.21155,0.16924 -0.0424,0 -0.14475,-0.0476 -0.30698,-0.14275 -0.16226,-0.0952 -0.27513,-0.14986 -0.33864,-0.16408 -0.0917,0.15524 -0.1376,0.38455 -0.1376,0.68794 0,0.0353 0.007,0.0741 0.0211,0.11644 0.0141,0.0423 0.0212,0.0811 0.0212,0.11643 0.0917,0 0.24342,-0.0106 0.45508,-0.0318 0.21166,-0.0212 0.33158,-0.0318 0.3598,-0.0318 0.23275,0 0.39155,0.0212 0.47639,0.0636 0.16213,0.10572 0.32082,0.208 0.47607,0.30683 v 0.33881 h -1.18001 -0.78855 c -0.0422,0 -0.0792,0.0176 -0.11094,0.0528 -0.0318,0.0352 -0.0688,0.0528 -0.11125,0.0528 -0.0353,0 -0.11645,-0.0123 -0.24337,-0.037 -0.12693,-0.0247 -0.21517,-0.0405 -0.26469,-0.0476 0,-2e-5 -0.79021,-2e-5 -2.37066,0 -0.0282,-2e-5 -0.13404,0.0107 -0.31749,0.032 -0.13393,0.007 -0.23621,0.003 -0.30682,-0.0107 0,-2e-5 -0.0247,-0.0141 -0.0741,-0.0423 -0.0494,-0.0282 -0.0988,-0.0423 -0.14809,-0.0423 -0.0424,0 -0.10066,0.0247 -0.17473,0.074 -0.0741,0.0493 -0.13232,0.074 -0.17473,0.074 -0.0846,0 -0.16924,-0.0352 -0.25387,-0.10562 v -0.24353 c 0.0564,-0.0635 0.21161,-0.15701 0.46557,-0.28051 0.25398,-0.12348 0.42682,-0.18522 0.51855,-0.18522 0.0353,0 0.12881,0.03 0.28051,0.0899 0.15168,0.06 0.26634,0.0953 0.34397,0.10594 0.0776,0.0107 0.32108,0.016 0.73041,0.016 0.0846,-0.0635 0.14103,-0.1447 0.16924,-0.24354 0.25408,-0.75489 0.38111,-1.44277 0.38111,-2.06375 0,-0.56435 -0.0953,-1.22053 -0.28583,-1.9685 -0.17635,-0.71958 -0.36336,-1.22397 -0.56101,-1.51315 -0.0635,-0.0848 -0.0987,-0.20486 -0.10563,-0.36012 0.0211,-0.3598 0.0281,-0.90304 0.021,-1.6297 -0.007,-0.0211 -0.0812,-0.0916 -0.22221,-0.21155 -0.72669,-0.0424 -1.05128,-0.0636 -0.97377,-0.0636 -0.0704,10e-6 -0.208,0.0564 -0.41276,0.16924 -0.0986,-0.19743 -0.14793,-0.30326 -0.14793,-0.31749 0,-0.26806 0.26452,-0.45851 0.79356,-0.57134 0.29627,-0.0706 0.59266,-0.10594 0.88916,-0.10594 0.0353,-0.007 0.0882,-0.028 0.15858,-0.0633 0.23297,-0.0213 0.46939,-0.0461 0.70926,-0.0743 0.36689,-0.0282 0.76201,-0.0423 1.18533,-0.0423 0.13392,0.14126 0.20799,0.46585 0.22221,0.97379 0.0211,0.52903 0.10571,0.89594 0.25385,1.10071 0.56456,0.54325 1.2102,1.19233 1.93689,1.9472 0.71248,0.93125 1.40044,1.97194 2.06388,3.12221 0.0282,0.014 0.0669,0.0492 0.11627,0.10561 0.21165,0.33159 0.47272,0.80788 0.78322,1.42888 z m -1.26994,-1.30159 c -0.22588,-0.33181 -0.41999,-0.6494 -0.58233,-0.95279 -0.18346,-0.33848 -0.3668,-0.63831 -0.55004,-0.89949 -0.21877,-0.32449 -0.59977,-0.79722 -1.14301,-1.41817 -0.59277,-0.68428 -0.93858,-1.02642 -1.03741,-1.02642 -0.0353,0 -0.10588,0.0247 -0.2117,0.074 -0.10584,0.0493 -0.17985,0.074 -0.22205,0.074 0.0211,0 -0.0512,-0.005 -0.21704,-0.0158 -0.1658,-0.0106 -0.41094,-0.0158 -0.73542,-0.0158 0.13391,0.58567 0.49016,1.13957 1.06873,1.66171 0.36689,0.33161 0.97021,0.75847 1.81001,1.28061 0.88883,0.55036 1.49556,0.96313 1.82034,1.23831 z m 0.50804,1.778 v -0.18022 c -0.11305,-0.14814 -0.25419,-0.34569 -0.42342,-0.59267 -0.18346,-0.36668 -0.4763,-0.71237 -0.87851,-1.03707 -0.20455,-0.15524 -0.54325,-0.37745 -1.01608,-0.66663 0.15524,0.28228 0.38455,0.6985 0.68795,1.24863 0.19054,0.36001 0.3529,0.59644 0.48704,0.70926 0.45151,0.3458 0.74425,0.5187 0.87818,0.5187 z m -3.0906,-2.09576 c 0,-0.14103 -0.037,-0.34208 -0.1111,-0.60316 -0.0741,-0.26108 -0.14642,-0.41626 -0.21704,-0.46557 -0.64188,-0.45863 -1.17446,-0.95957 -1.59782,-1.50284 -0.47994,-0.60677 -0.71281,-1.13247 -0.69859,-1.57705 0.0211,-0.14103 0.13748,-0.21854 0.34913,-0.23254 0.0424,-0.007 0.10949,0.003 0.20122,0.0316 0.11993,0.0353 0.19755,0.053 0.23287,0.053 0.23275,0.0282 0.47617,0.0141 0.73025,-0.0423 0,-0.0917 -0.0212,-0.14825 -0.0636,-0.16957 -0.14104,-0.0917 -0.23975,-0.19399 -0.29616,-0.30682 -0.0495,-0.0846 -0.10961,-0.25396 -0.18022,-0.50804 -0.0422,-0.13392 -0.0669,-0.31383 -0.074,-0.5397 -2e-5,-0.28229 -0.004,-0.44108 -0.0107,-0.4764 -0.014,-0.0917 -0.0633,-0.18345 -0.14793,-0.27518 -1.10781,2e-5 -1.81346,0.053 -2.1168,0.15891 0.17634,0.0493 0.36684,0.11278 0.5715,0.1904 0.20467,0.0776 0.31399,0.17295 0.32799,0.286 0.0213,0.16924 0.0177,0.51138 -0.0107,1.02642 -0.014,0.42332 0.0178,0.75846 0.0953,1.00543 0.0635,0.21166 0.14471,0.38456 0.24354,0.5187 0.14102,0.18345 0.28572,0.3669 0.43407,0.55035 0.0917,0.11994 0.18345,0.29274 0.2752,0.51839 0.1128,0.28228 0.18334,0.44807 0.21153,0.49737 0.35269,0.63499 0.56434,1.02309 0.63497,1.16434 0.22586,0.45153 0.3529,0.80078 0.38112,1.04774 0.17633,0.0775 0.41975,0.1869 0.73025,0.32815 0.0704,-0.31049 0.10561,-0.53637 0.10561,-0.67761 z m -1.4605,0.41277 v -0.57135 c 0,-0.0564 -0.09,-0.25575 -0.26985,-0.598 -0.1799,-0.34224 -0.32271,-0.58744 -0.42843,-0.73558 0.0282,0.28228 0.0423,0.86795 0.0423,1.75697 0.0282,0.007 0.11992,0.0492 0.27518,0.12693 0.12682,0.0564 0.21143,0.0846 0.25387,0.0846 0.0777,0 0.12004,-0.0212 0.12693,-0.0636 z m 0.29649,0.92081 c 0,-0.12704 -0.0212,-0.20811 -0.0636,-0.24321 -0.11283,0 -0.24686,-0.0459 -0.4021,-0.13758 -0.0846,-0.0566 -0.16924,-0.11315 -0.25387,-0.16957 h -0.17989 c -0.24008,0.49395 -0.36012,0.79733 -0.36012,0.91015 0,0.0495 0.009,0.0919 0.0265,0.12709 0.0177,0.0352 0.0265,0.0564 0.0265,0.0635 0.11993,-1e-5 0.27518,0.0194 0.46573,0.0583 0.19055,0.0389 0.29639,0.0583 0.31749,0.0583 0.28228,0 0.42342,-0.22231 0.42342,-0.66695 z m -1.41817,-7.50345 c -0.007,1e-5 -0.03,0.0282 -0.0688,0.0846 -0.0388,0.0564 -0.0829,0.0846 -0.13242,0.0846 -0.0422,1e-5 -0.0898,-0.0194 -0.14276,-0.0581 -0.053,-0.0387 -0.0864,-0.0581 -0.10045,-0.0581 v -0.17989 c 0.0564,-0.0353 0.12694,-0.0883 0.21155,-0.15891 0.0706,0.007 0.12004,0.0389 0.14825,0.0953 0.0282,0.0564 0.0564,0.11993 0.0846,0.19055 z"
       style="fill:#000000;stroke-width:0.13229166"
       inkscape:connector-curvature="0" />
  </g>
</svg>
