<?xml version="1.0" encoding="UTF-8" standalone="no"?>
<!-- Created with Inkscape (http://www.inkscape.org/) -->

<svg
   xmlns:dc="http://purl.org/dc/elements/1.1/"
   xmlns:cc="http://creativecommons.org/ns#"
   xmlns:rdf="http://www.w3.org/1999/02/22-rdf-syntax-ns#"
   xmlns:svg="http://www.w3.org/2000/svg"
   xmlns="http://www.w3.org/2000/svg"
   xmlns:sodipodi="http://sodipodi.sourceforge.net/DTD/sodipodi-0.dtd"
   xmlns:inkscape="http://www.inkscape.org/namespaces/inkscape"
   width="45.200367"
   height="46.719093"
   viewBox="0 0 11.959263 12.361094"
   version="1.1"
   id="svg1020"
   inkscape:version="0.92.2 2405546, 2018-03-11"
   sodipodi:docname="k.svg">
  <defs
     id="defs1014" />
  <sodipodi:namedview
     id="base"
     pagecolor="#ffffff"
     bordercolor="#666666"
     borderopacity="1.0"
     inkscape:pageopacity="0.0"
     inkscape:pageshadow="2"
     inkscape:zoom="1"
     inkscape:cx="8.900734"
     inkscape:cy="22.1"
     inkscape:document-units="mm"
     inkscape:current-layer="layer1"
     showgrid="false"
     fit-margin-top="5"
     fit-margin-left="5"
     fit-margin-bottom="5"
     units="px"
     fit-margin-right="5"
     inkscape:window-width="798"
     inkscape:window-height="714"
     inkscape:window-x="324"
     inkscape:window-y="0"
     inkscape:window-maximized="0" />
  <metadata
     id="metadata1017">
    <rdf:RDF>
      <cc:Work
         rdf:about="">
        <dc:format>image/svg+xml</dc:format>
        <dc:type
           rdf:resource="http://purl.org/dc/dcmitype/StillImage" />
        <dc:title />
      </cc:Work>
    </rdf:RDF>
  </metadata>
  <g
     inkscape:label="Capa 1"
     inkscape:groupmode="layer"
     id="layer1"
     transform="translate(-99.020393,-142.31952)">
    <path
       id="path4512"
       d="m 109.46614,148.61634 c -10e-6,0.17656 -0.0547,0.33008 -0.16406,0.46056 -0.1094,0.13049 -0.22051,0.19218 -0.33333,0.18506 -0.32448,-0.0211 -0.5538,-0.15512 -0.68794,-0.4021 -0.0775,-0.19055 -0.15514,-0.381 -0.23286,-0.57135 -0.78313,1.0654 -1.89442,1.59808 -3.33375,1.59808 -1.01588,0 -1.95421,-0.25052 -2.81503,-0.75156 -0.91726,-0.52925 -1.37239,-1.15368 -1.36525,-1.87325 0.0424,-0.0424 0.0812,-0.0847 0.11627,-0.12693 0.0284,-0.0142 0.11315,-0.0213 0.25417,-0.0213 h 7.4508 c 0.22565,0.007 0.46724,0.19762 0.72477,0.57151 0.25751,0.3739 0.38627,0.68433 0.38628,0.93131 z m -0.45508,-0.25387 c -0.0353,-0.0777 -0.12176,-0.19066 -0.25934,-0.33878 -0.1376,-0.14816 -0.2416,-0.23276 -0.312,-0.25387 0.0635,0.3458 0.0987,0.53626 0.10561,0.57135 0.0777,0.23298 0.20832,0.38467 0.39178,0.45507 0.0846,-0.0917 0.12692,-0.17278 0.12692,-0.2432 0,-0.0495 -0.0177,-0.11303 -0.053,-0.19055 z m -1.10071,-0.6243 c -0.14814,-0.0635 -0.21866,-0.12004 -0.21154,-0.16957 h -6.69925 c 0.26806,0.53637 0.73369,0.97735 1.39686,1.32292 0.6914,0.35291 1.44291,0.52226 2.25439,0.50805 0.65606,-0.014 1.28049,-0.16569 1.87325,-0.45508 0.62787,-0.31049 1.08993,-0.71259 1.38615,-1.20632 z"
       style="fill:#000000;stroke-width:0.13229166"
       inkscape:connector-curvature="0" />
  </g>
</svg>
