<?xml version="1.0" encoding="UTF-8" standalone="no"?>
<!-- Created with Inkscape (http://www.inkscape.org/) -->

<svg
   xmlns:dc="http://purl.org/dc/elements/1.1/"
   xmlns:cc="http://creativecommons.org/ns#"
   xmlns:rdf="http://www.w3.org/1999/02/22-rdf-syntax-ns#"
   xmlns:svg="http://www.w3.org/2000/svg"
   xmlns="http://www.w3.org/2000/svg"
   xmlns:sodipodi="http://sodipodi.sourceforge.net/DTD/sodipodi-0.dtd"
   xmlns:inkscape="http://www.inkscape.org/namespaces/inkscape"
   width="45.200367"
   height="46.719093"
   viewBox="0 0 11.959263 12.361094"
   version="1.1"
   id="svg1020"
   inkscape:version="0.92.2 2405546, 2018-03-11"
   sodipodi:docname="child.svg">
  <defs
     id="defs1014" />
  <sodipodi:namedview
     id="base"
     pagecolor="#ffffff"
     bordercolor="#666666"
     borderopacity="1.0"
     inkscape:pageopacity="0.0"
     inkscape:pageshadow="2"
     inkscape:zoom="1"
     inkscape:cx="-304.59927"
     inkscape:cy="22.1"
     inkscape:document-units="mm"
     inkscape:current-layer="layer1"
     showgrid="false"
     fit-margin-top="5"
     fit-margin-left="5"
     fit-margin-bottom="5"
     units="px"
     fit-margin-right="5"
     inkscape:window-width="1344"
     inkscape:window-height="718"
     inkscape:window-x="22"
     inkscape:window-y="0"
     inkscape:window-maximized="1" />
  <metadata
     id="metadata1017">
    <rdf:RDF>
      <cc:Work
         rdf:about="">
        <dc:format>image/svg+xml</dc:format>
        <dc:type
           rdf:resource="http://purl.org/dc/dcmitype/StillImage" />
        <dc:title></dc:title>
      </cc:Work>
    </rdf:RDF>
  </metadata>
  <g
     inkscape:label="Capa 1"
     inkscape:groupmode="layer"
     id="layer1"
     transform="translate(-99.020393,-142.31952)">
    <path
       d="m 108.61598,148.48678 c -0.11144,0.11842 -0.20892,0.22987 -0.29247,0.33424 -0.20902,0.27877 -0.36923,0.56793 -0.48064,0.86752 0.0209,0.6549 -0.035,0.98234 -0.16746,0.98234 -0.0557,0 -0.12533,-0.0348 -0.20889,-0.10429 -0.0836,0.22987 -0.22296,0.37613 -0.41814,0.43886 -0.007,-0.0697 -0.0106,-0.1429 -0.0106,-0.21945 0,-0.40417 0.13248,-0.85357 0.39741,-1.34815 0.32041,-0.57833 0.49456,-0.93374 0.52242,-1.06619 -0.0279,-0.42485 -0.31002,-0.87072 -0.84646,-1.33766 -0.0489,0.34827 -0.0768,0.82211 -0.0836,1.4215 -0.007,0.57134 -0.0315,0.96843 -0.0733,1.19126 -0.26475,0.24387 -0.72806,0.36581 -1.38994,0.36581 -0.24389,0 -0.71072,-0.0348 -1.40047,-0.10458 -2e-5,1.40054 -0.007,2.18791 -0.0206,2.36206 -0.014,0.24387 -0.0872,0.39018 -0.21942,0.43884 -0.23008,0.0906 -0.44612,0.26485 -0.6481,0.52276 -0.3483,0 -0.52242,-0.0314 -0.52242,-0.0941 0,-0.0279 0.094,-0.13938 0.28194,-0.33457 0.23006,-0.22987 0.40431,-0.45982 0.52274,-0.68987 0.0349,-0.0974 0.0523,-0.21582 0.0523,-0.35531 0,-0.11142 -0.014,-0.27863 -0.0418,-0.50168 -0.0281,-0.2577 -0.0455,-0.44579 -0.0523,-0.56422 -0.19518,0.411 -0.38682,0.81513 -0.57489,1.21229 -0.18806,0.3972 -0.28561,0.71774 -0.29262,0.96161 -0.0906,0.0347 -0.27525,0.13567 -0.55401,0.303 -0.20198,0.11845 -0.36222,0.17764 -0.48064,0.17764 -0.0836,0 -0.16021,-0.0243 -0.22995,-0.073 0,-0.0768 0.13938,-0.24058 0.41812,-0.49149 0.31342,-0.27151 0.49797,-0.48053 0.55369,-0.62703 0.0768,-0.18796 0.19179,-0.58153 0.34509,-1.18073 0.1533,-0.59918 0.28567,-1.03815 0.39709,-1.31689 0.0209,-0.007 0.30297,-0.15682 0.84646,-0.44939 0.37634,-0.19519 0.78396,-0.35891 1.22282,-0.49117 0.0906,-0.27173 0.13586,-0.56092 0.13586,-0.86752 0,-0.39018 -0.0627,-0.75599 -0.18817,-1.09747 -0.68977,0.1533 -1.2175,0.33446 -1.58321,0.54348 -0.36574,0.209 -0.73327,0.3519 -1.1026,0.42866 -0.0212,-0.0489 -0.0316,-0.10814 -0.0316,-0.17767 0,-0.34147 0.24389,-0.75949 0.73165,-1.25407 0.32065,-0.49477 0.56102,-0.85368 0.72112,-1.07675 0.0627,-0.0209 0.10978,0.0106 0.14113,0.0943 0.0314,0.0837 0.0506,0.12552 0.0576,0.12549 0.0557,0.0138 0.14454,-0.004 0.26646,-0.0525 0.12195,-0.0488 0.2212,-0.0732 0.29774,-0.0732 0.14629,-0.0138 0.21944,1.4e-4 0.21944,0.0418 0,0.056 -0.26823,0.28591 -0.8047,0.6899 -0.55729,0.42503 -0.8673,0.74557 -0.93001,0.96158 0.0765,0.0487 0.44926,-0.13245 1.11818,-0.54346 0.64109,-0.38317 1.02084,-0.63394 1.13927,-0.75237 0.0138,-0.0281 0.0206,-0.0594 0.0206,-0.0941 0,-0.20222 -0.12885,-0.33118 -0.38656,-0.38688 -0.0278,-0.12546 -0.0975,-0.34139 -0.20889,-0.64777 0.0138,-0.0627 0.0556,-0.12896 0.12534,-0.19871 0.0976,-0.0906 0.1533,-0.14628 0.16713,-0.16711 0.13246,-0.20222 0.26141,-0.33808 0.38688,-0.40761 0.19497,-0.11843 0.45619,-0.16722 0.78364,-0.1464 0.29255,0.014 0.51901,0.11856 0.67935,0.31353 0.13245,0.16031 0.19867,0.36243 0.19867,0.6063 0,0.411 -0.13586,0.68614 -0.40759,0.82542 0.34126,0.44587 0.67913,0.88833 1.01359,1.32744 0.52965,0.73845 0.82574,1.32371 0.88826,1.75575 z m -1.65116,-2.07981 c -0.11845,-0.0906 -0.24731,-0.23337 -0.38656,-0.42834 -0.18116,-0.25791 -0.27175,-0.38687 -0.27172,-0.38687 -0.0279,-0.0487 -0.0418,-0.0975 -0.0418,-0.1464 0,-0.1044 0.0644,-0.26461 0.19328,-0.48064 0.12885,-0.21603 0.19328,-0.37285 0.19328,-0.47043 0,-0.18796 -0.17415,-0.33427 -0.52242,-0.43886 -0.20902,0.0209 -0.32054,0.0316 -0.33457,0.0316 -0.11141,0.0138 -0.20201,0.0417 -0.27172,0.0836 0,2e-5 0.0383,0.019 0.11496,0.0574 0.0767,0.0383 0.11499,0.0923 0.11499,0.16201 0,0.0417 -0.014,0.087 -0.0418,0.13589 -0.0906,0.0487 -0.16725,0.073 -0.22995,0.073 -0.0698,0 -0.11504,-0.0313 -0.13589,-0.0941 -0.0138,-0.0417 -0.0206,-0.0625 -0.0206,-0.0625 -0.0419,0.13224 -0.0664,0.26813 -0.0734,0.40759 0.44588,0.41101 0.66882,0.71753 0.66884,0.91951 -2e-5,0.0906 -0.054,0.17595 -0.16187,0.25612 -0.10792,0.0802 -0.16187,0.14107 -0.16187,0.18274 0.0487,0.34849 0.087,0.79098 0.11483,1.32744 0.0209,0.3972 0.0383,0.79084 0.0523,1.18103 -0.0697,0.12543 -0.27186,0.26654 -0.60632,0.42322 -0.33446,0.15672 -0.52253,0.27686 -0.5642,0.36042 0.12544,0.0209 0.2613,0.0316 0.40762,0.0316 0.44585,0 0.93702,-0.0801 1.47349,-0.24048 0,-0.50861 0.003,-1.02071 0.0106,-1.53633 0.0349,-0.67572 0.19508,-1.12511 0.48064,-1.34815 z"
       inkscape:connector-curvature="0"
       style="fill:#000000;stroke-width:0.26458332"
       id="path4375" />
  </g>
</svg>
