<?xml version="1.0" encoding="UTF-8" standalone="no"?>
<!-- Created with Inkscape (http://www.inkscape.org/) -->

<svg
   xmlns:dc="http://purl.org/dc/elements/1.1/"
   xmlns:cc="http://creativecommons.org/ns#"
   xmlns:rdf="http://www.w3.org/1999/02/22-rdf-syntax-ns#"
   xmlns:svg="http://www.w3.org/2000/svg"
   xmlns="http://www.w3.org/2000/svg"
   xmlns:sodipodi="http://sodipodi.sourceforge.net/DTD/sodipodi-0.dtd"
   xmlns:inkscape="http://www.inkscape.org/namespaces/inkscape"
   width="45.200367"
   height="46.719093"
   viewBox="0 0 11.959263 12.361094"
   version="1.1"
   id="svg1020"
   inkscape:version="0.92.2 2405546, 2018-03-11"
   sodipodi:docname="d.svg">
  <defs
     id="defs1014" />
  <sodipodi:namedview
     id="base"
     pagecolor="#ffffff"
     bordercolor="#666666"
     borderopacity="1.0"
     inkscape:pageopacity="0.0"
     inkscape:pageshadow="2"
     inkscape:zoom="1"
     inkscape:cx="26.400734"
     inkscape:cy="22.1"
     inkscape:document-units="mm"
     inkscape:current-layer="layer1"
     showgrid="false"
     fit-margin-top="5"
     fit-margin-left="5"
     fit-margin-bottom="5"
     units="px"
     fit-margin-right="5"
     inkscape:window-width="798"
     inkscape:window-height="714"
     inkscape:window-x="701"
     inkscape:window-y="0"
     inkscape:window-maximized="0" />
  <metadata
     id="metadata1017">
    <rdf:RDF>
      <cc:Work
         rdf:about="">
        <dc:format>image/svg+xml</dc:format>
        <dc:type
           rdf:resource="http://purl.org/dc/dcmitype/StillImage" />
        <dc:title />
      </cc:Work>
    </rdf:RDF>
  </metadata>
  <g
     inkscape:label="Capa 1"
     inkscape:groupmode="layer"
     id="layer1"
     transform="translate(-99.020393,-142.31952)">
    <path
       id="path4472"
       d="m 109.9189,147.93302 c 0.0493,0.0848 0.0669,0.31416 0.053,0.68795 -0.007,0.3669 -0.0353,0.66684 -0.0846,0.89981 -0.0213,0.0704 -0.20123,0.10217 -0.5397,0.0953 -0.20477,-0.007 -0.40943,-0.0142 -0.61398,-0.0213 -0.7267,-0.0211 -1.32635,0.007 -1.79903,0.0846 -0.72693,0.11993 -1.64412,0.18345 -2.7518,0.19056 -1.70749,0.014 -2.62467,0.0246 -2.7518,0.0316 -0.54326,0.0213 -1.00187,-0.20799 -1.37583,-0.68794 -0.0211,-0.0846 -0.0316,-0.16568 -0.0316,-0.24319 0,-0.19767 0.11637,-0.46929 0.34913,-0.81488 0.11304,-0.16945 0.27539,-0.25419 0.48706,-0.25419 0.0846,0 0.22392,0.0177 0.41791,0.053 0.19401,0.0353 0.34043,0.053 0.43925,0.053 0.13393,0 0.25387,-0.0212 0.35981,-0.0636 -0.11283,-0.14813 -0.18334,-0.2575 -0.21155,-0.32814 -0.0213,-0.0704 -0.0213,-0.18323 0,-0.33848 0.0564,-0.0495 0.17989,-0.0707 0.37045,-0.0636 0.21166,0.0142 0.42332,0.0283 0.63497,0.0423 0.43021,0.007 1.1146,-0.0457 2.05317,-0.15858 0.33157,0.014 0.7831,0.10573 1.35453,0.27518 0.70559,0.20455 1.16422,0.32804 1.37583,0.37046 0.45863,0.0846 0.95601,0.14103 1.49212,0.16924 0.25407,0.007 0.51159,0.0141 0.77257,0.021 z m -0.45509,0.41277 c -0.10572,-0.0493 -0.34204,-0.0775 -0.70894,-0.0846 -0.46573,-0.007 -0.79033,-0.0247 -0.97377,-0.053 -0.3387,-0.0493 -0.79377,-0.18333 -1.36525,-0.4021 -0.52926,-0.19055 -0.99144,-0.30338 -1.38655,-0.33848 -0.11993,-0.0142 -0.24341,-0.0213 -0.37045,-0.0213 -0.26808,0 -0.6402,0.0335 -1.11637,0.10061 -0.47619,0.0671 -0.83775,0.10061 -1.08473,0.10061 0.007,0.16924 0.27497,0.25385 0.80422,0.25385 0.17634,0 0.46206,-0.0123 0.85718,-0.037 0.3951,-0.0247 0.67384,-0.037 0.83619,-0.037 0.40222,1e-5 0.62098,0.0564 0.6563,0.16924 -2e-5,-0.0282 -0.0248,0.0741 -0.0743,0.30684 -0.19744,0.0635 -0.5679,0.0953 -1.11135,0.0953 -0.26808,0 -0.70017,-0.0106 -1.29628,-0.0316 -0.59612,-0.0211 -1.01765,-0.0317 -1.26461,-0.0317 -0.49395,0 -0.81498,0.0282 -0.96312,0.0846 -0.2965,0.11283 -0.44474,0.26451 -0.44474,0.45507 0,0.14815 0.0812,0.2804 0.24352,0.39678 0.16235,0.11639 0.31759,0.15692 0.46573,0.1216 1.28416,0.12704 2.83634,0.1377 4.65667,0.032 0.26096,-0.0142 0.64019,-0.0584 1.13768,-0.13243 0.4975,-0.074 0.86617,-0.12164 1.10604,-0.14275 0.53614,-0.0353 0.99821,-0.046 1.38615,-0.032 0.11304,-0.26096 0.11659,-0.51848 0.0107,-0.77256 z"
       style="fill:#000000;stroke-width:0.13229166"
       inkscape:connector-curvature="0" />
  </g>
</svg>
