<?xml version="1.0" encoding="UTF-8" standalone="no"?>
<!-- Created with Inkscape (http://www.inkscape.org/) -->

<svg
   xmlns:dc="http://purl.org/dc/elements/1.1/"
   xmlns:cc="http://creativecommons.org/ns#"
   xmlns:rdf="http://www.w3.org/1999/02/22-rdf-syntax-ns#"
   xmlns:svg="http://www.w3.org/2000/svg"
   xmlns="http://www.w3.org/2000/svg"
   xmlns:sodipodi="http://sodipodi.sourceforge.net/DTD/sodipodi-0.dtd"
   xmlns:inkscape="http://www.inkscape.org/namespaces/inkscape"
   width="45.200367"
   height="46.719093"
   viewBox="0 0 11.959263 12.361094"
   version="1.1"
   id="svg1020"
   inkscape:version="0.92.2 2405546, 2018-03-11"
   sodipodi:docname="f.svg">
  <defs
     id="defs1014" />
  <sodipodi:namedview
     id="base"
     pagecolor="#ffffff"
     bordercolor="#666666"
     borderopacity="1.0"
     inkscape:pageopacity="0.0"
     inkscape:pageshadow="2"
     inkscape:zoom="1"
     inkscape:cx="-264.09927"
     inkscape:cy="22.1"
     inkscape:document-units="mm"
     inkscape:current-layer="layer1"
     showgrid="false"
     fit-margin-top="5"
     fit-margin-left="5"
     fit-margin-bottom="5"
     units="px"
     fit-margin-right="5"
     inkscape:window-width="1344"
     inkscape:window-height="718"
     inkscape:window-x="22"
     inkscape:window-y="0"
     inkscape:window-maximized="1" />
  <metadata
     id="metadata1017">
    <rdf:RDF>
      <cc:Work
         rdf:about="">
        <dc:format>image/svg+xml</dc:format>
        <dc:type
           rdf:resource="http://purl.org/dc/dcmitype/StillImage" />
        <dc:title />
      </cc:Work>
    </rdf:RDF>
  </metadata>
  <g
     inkscape:label="Capa 1"
     inkscape:groupmode="layer"
     id="layer1"
     transform="translate(-99.020393,-142.31952)">
    <path
       id="path4474"
       d="m 110.42918,149.87853 c -0.007,0.0704 -0.0353,0.14448 -0.0846,0.22221 -0.0706,0.0917 -0.1447,0.13759 -0.2222,0.13759 -1.12182,0.0353 -1.92273,0.0353 -2.40268,0 -0.0422,0 -0.30673,-0.0547 -0.79355,-0.16407 -0.48685,-0.10939 -0.75503,-0.16408 -0.80455,-0.16408 -0.62787,0 -1.19221,0.0177 -1.69307,0.053 -0.0353,0 -0.0971,0.0282 -0.18539,0.0846 -0.0883,0.0564 -0.15707,0.0846 -0.20637,0.0846 h -1.36525 c -0.12704,0 -0.3387,-0.10938 -0.63498,-0.32815 -0.23986,-0.18345 -0.39333,-0.32103 -0.4604,-0.41276 -0.0671,-0.0917 -0.15002,-0.2151 -0.24885,-0.37013 -0.014,-0.0284 -0.0986,-0.0426 -0.25386,-0.0426 -0.0424,0 -0.11477,0.009 -0.21705,0.0265 -0.10227,0.0177 -0.1745,0.0265 -0.2167,0.0265 -0.31051,0 -0.5116,-0.0212 -0.60333,-0.0635 -0.0917,-0.0423 -0.183445,-0.13932 -0.275175,-0.291 -0.0917,-0.1517 -0.13759,-0.26285 -0.13759,-0.33348 0,-0.16214 0.10584,-0.28906 0.31749,-0.38079 0.148135,-0.0564 0.299825,-0.11294 0.455065,-0.16957 v -0.10561 c -0.0142,-0.007 -0.173,-0.10948 -0.476375,-0.30715 -0.23277,-0.14813 -0.34915,-0.26452 -0.34915,-0.34914 0,-0.0564 0.0406,-0.11988 0.12177,-0.19039 0.0812,-0.0705 0.14996,-0.10578 0.20638,-0.10578 0.112815,0 0.282115,0.0759 0.507875,0.22754 0.22576,0.15169 0.37751,0.29451 0.45523,0.42843 0.19034,-0.23986 0.33138,-0.39856 0.42311,-0.47607 0.15524,-0.11993 0.3317,-0.1799 0.52937,-0.1799 0.10571,0 0.19737,0.0388 0.275,0.11643 0.0776,0.0776 0.11643,0.16575 0.11643,0.26436 0,0.13414 -0.19044,0.26818 -0.57134,0.40211 -0.0635,0.0424 -0.1659,0.10249 -0.30715,0.18022 0.0706,0.0704 0.19066,0.15148 0.36012,0.24321 0.19745,0.11282 0.32793,0.19399 0.39145,0.24352 0.15523,0.18345 0.43041,0.44453 0.82553,0.78322 0.007,0.007 0.10238,0.0103 0.28583,0.0103 -0.0282,0 0.19228,-0.0582 0.66146,-0.17457 0.46918,-0.11638 0.88721,-0.16746 1.25412,-0.15325 0.3809,0.007 0.97,0.15498 1.76729,0.44425 0.79732,0.28928 1.3159,0.43393 1.55575,0.43393 0.0422,0 0.17089,-0.005 0.38612,-0.0158 0.2152,-0.0106 0.38987,-0.0158 0.52402,-0.0158 0.7409,0 1.10425,0.12704 1.09005,0.38112 z m -3.18559,-0.21187 c -0.007,0 -0.3387,-0.10928 -0.99476,-0.32782 -0.54349,-0.17656 -0.95269,-0.26129 -1.22765,-0.25419 -0.22587,0.0142 -0.60694,0.0725 -1.14318,0.17473 -0.53626,0.10228 -0.81137,0.15342 -0.82537,0.15342 -0.24697,0 -0.61743,-0.21872 -1.11137,-0.65614 -0.49393,-0.43741 -0.91725,-0.65613 -1.26994,-0.65613 -0.26119,0 -0.42697,0.10229 -0.49739,0.30684 l 0.0633,0.12692 c 0.0777,1e-5 0.19243,0.007 0.34413,0.0211 0.15169,0.0141 0.26285,0.0212 0.33347,0.0212 0.0422,0 0.10739,-0.0159 0.19557,-0.0477 0.0882,-0.0317 0.17811,-0.0476 0.26984,-0.0476 0.12704,0.007 0.26463,0.12006 0.41277,0.33881 0.20477,0.30339 0.36712,0.5045 0.48706,0.60332 0.26095,0.21167 0.59254,0.31749 0.99476,0.31749 -0.0353,0 0.20278,-0.0476 0.71427,-0.14292 0.51148,-0.0953 0.96834,-0.13581 1.37054,-0.1216 h 0.4021 c 0.0353,0 0.26291,0.0317 0.68279,0.0951 0.41985,0.0634 0.68621,0.0951 0.79904,0.0951 z"
       style="fill:#000000;stroke-width:0.13229166"
       inkscape:connector-curvature="0" />
  </g>
</svg>
