<?xml version="1.0" encoding="UTF-8" standalone="no"?>
<!-- Created with Inkscape (http://www.inkscape.org/) -->

<svg
   xmlns:dc="http://purl.org/dc/elements/1.1/"
   xmlns:cc="http://creativecommons.org/ns#"
   xmlns:rdf="http://www.w3.org/1999/02/22-rdf-syntax-ns#"
   xmlns:svg="http://www.w3.org/2000/svg"
   xmlns="http://www.w3.org/2000/svg"
   xmlns:sodipodi="http://sodipodi.sourceforge.net/DTD/sodipodi-0.dtd"
   xmlns:inkscape="http://www.inkscape.org/namespaces/inkscape"
   width="45.200367"
   height="46.719093"
   viewBox="0 0 11.959263 12.361094"
   version="1.1"
   id="svg1020"
   inkscape:version="0.92.2 2405546, 2018-03-11"
   sodipodi:docname="g.svg">
  <defs
     id="defs1014" />
  <sodipodi:namedview
     id="base"
     pagecolor="#ffffff"
     bordercolor="#666666"
     borderopacity="1.0"
     inkscape:pageopacity="0.0"
     inkscape:pageshadow="2"
     inkscape:zoom="1"
     inkscape:cx="26.400734"
     inkscape:cy="22.1"
     inkscape:document-units="mm"
     inkscape:current-layer="layer1"
     showgrid="false"
     fit-margin-top="5"
     fit-margin-left="5"
     fit-margin-bottom="5"
     units="px"
     fit-margin-right="5"
     inkscape:window-width="798"
     inkscape:window-height="714"
     inkscape:window-x="701"
     inkscape:window-y="0"
     inkscape:window-maximized="0" />
  <metadata
     id="metadata1017">
    <rdf:RDF>
      <cc:Work
         rdf:about="">
        <dc:format>image/svg+xml</dc:format>
        <dc:type
           rdf:resource="http://purl.org/dc/dcmitype/StillImage" />
        <dc:title />
      </cc:Work>
    </rdf:RDF>
  </metadata>
  <g
     inkscape:label="Capa 1"
     inkscape:groupmode="layer"
     id="layer1"
     transform="translate(-99.020393,-142.31952)">
    <path
       id="path4476"
       d="m 108.60691,150.38889 c -0.43043,0.28228 -0.90316,0.46927 -1.41817,0.56101 -0.3245,0.0564 -0.83953,0.0916 -1.54516,0.1056 -0.26808,0.007 -0.66674,-0.0598 -1.196,-0.20088 -0.31048,-0.0846 -0.62097,-0.16935 -0.93146,-0.25419 -0.0775,-0.12682 -0.11627,-0.23264 -0.11627,-0.31748 0,-0.014 0.14459,-0.49373 0.43376,-1.4392 0.0917,-0.49394 0.20111,-1.05484 0.32814,-1.68275 -0.20454,-0.0635 -0.37035,-0.13759 -0.49739,-0.2222 v -0.19057 c 0.0917,-0.0917 0.64564,-0.13758 1.66172,-0.13758 0.50083,0 1.11465,0.0106 1.8415,0.0317 0.72679,0.0211 1.06899,0.0316 1.02658,0.0316 l 0.0739,0.0743 v 0.2009 c -0.0846,0.0566 -0.16573,0.0955 -0.24336,0.11659 -0.0776,0.0211 -0.14109,0.0493 -0.1904,0.0846 0.0917,0.93836 0.1728,1.53458 0.24321,1.78858 0.0424,0.14104 0.11304,0.3739 0.21188,0.69861 0.23985,0.32448 0.34569,0.5749 0.31748,0.75124 z m -0.55036,-0.22221 c -0.0142,-0.0917 -0.0601,-0.22932 -0.13758,-0.41277 -0.0988,-0.21877 -0.15881,-0.36345 -0.17991,-0.43409 -0.0493,-0.18323 -0.11283,-0.53592 -0.19055,-1.05806 -0.0564,-0.38112 -0.10927,-0.75858 -0.15858,-1.13237 l -2.78342,-0.0107 c -0.0706,0.48684 -0.18711,1.12892 -0.34945,1.9263 -0.0353,0.11283 -0.10938,0.33148 -0.22221,0.65596 -0.0917,0.25408 -0.13759,0.40577 -0.13759,0.45507 0,0.0495 0.009,0.0884 0.0265,0.11661 0.0177,0.0282 0.0265,0.0493 0.0265,0.0633 0.35269,0.0706 0.70548,0.14468 1.0584,0.22221 0.388,0.0777 0.73725,0.11659 1.04774,0.11659 0.95235,0 1.61911,-0.16935 2.00025,-0.50804 z m -1.31225,-0.26452 c 0,0.0564 -0.0424,0.16579 -0.12726,0.32814 0.0284,0 -0.17613,0.007 -0.61366,0.021 -0.31759,0.007 -0.5046,0.004 -0.56101,-0.0107 -0.0846,-0.0282 -0.13575,-0.0635 -0.15342,-0.10578 -0.0177,-0.0423 -0.0265,-0.11989 -0.0265,-0.2327 0,-0.15525 0.0882,-0.51516 0.26452,-1.07973 0.19055,-0.62075 0.34579,-0.9559 0.46573,-1.00543 0.16235,0.0706 0.33525,0.39878 0.5187,0.98445 0.15525,0.51504 0.23288,0.88194 0.23288,1.10071 z m -0.41277,-0.0636 c 0.0211,-0.0988 -0.002,-0.27168 -0.069,-0.51855 -0.0671,-0.24685 -0.14292,-0.39149 -0.22753,-0.43391 -0.20456,0.22587 -0.30684,0.47283 -0.30684,0.74091 0,0.0775 0.0141,0.15158 0.0423,0.22221 z"
       style="fill:#000000;stroke-width:0.13229166"
       inkscape:connector-curvature="0" />
  </g>
</svg>
