<?xml version="1.0" encoding="UTF-8" standalone="no"?>
<!-- Created with Inkscape (http://www.inkscape.org/) -->

<svg
   xmlns:dc="http://purl.org/dc/elements/1.1/"
   xmlns:cc="http://creativecommons.org/ns#"
   xmlns:rdf="http://www.w3.org/1999/02/22-rdf-syntax-ns#"
   xmlns:svg="http://www.w3.org/2000/svg"
   xmlns="http://www.w3.org/2000/svg"
   xmlns:sodipodi="http://sodipodi.sourceforge.net/DTD/sodipodi-0.dtd"
   xmlns:inkscape="http://www.inkscape.org/namespaces/inkscape"
   width="45.200367"
   height="46.719093"
   viewBox="0 0 11.959263 12.361094"
   version="1.1"
   id="svg1020"
   inkscape:version="0.92.2 2405546, 2018-03-11"
   sodipodi:docname="i.svg">
  <defs
     id="defs1014" />
  <sodipodi:namedview
     id="base"
     pagecolor="#ffffff"
     bordercolor="#666666"
     borderopacity="1.0"
     inkscape:pageopacity="0.0"
     inkscape:pageshadow="2"
     inkscape:zoom="1"
     inkscape:cx="-264.09927"
     inkscape:cy="22.1"
     inkscape:document-units="mm"
     inkscape:current-layer="layer1"
     showgrid="false"
     fit-margin-top="5"
     fit-margin-left="5"
     fit-margin-bottom="5"
     units="px"
     fit-margin-right="5"
     inkscape:window-width="1344"
     inkscape:window-height="718"
     inkscape:window-x="22"
     inkscape:window-y="0"
     inkscape:window-maximized="1" />
  <metadata
     id="metadata1017">
    <rdf:RDF>
      <cc:Work
         rdf:about="">
        <dc:format>image/svg+xml</dc:format>
        <dc:type
           rdf:resource="http://purl.org/dc/dcmitype/StillImage" />
        <dc:title />
      </cc:Work>
    </rdf:RDF>
  </metadata>
  <g
     inkscape:label="Capa 1"
     inkscape:groupmode="layer"
     id="layer1"
     transform="translate(-99.020393,-142.31952)">
    <path
       id="path4600"
       style="fill:#000000;stroke-width:0.13229166"
       inkscape:connector-curvature="0"
       d="m 106.15887,152.96643 c -0.0211,-2e-5 -0.0687,0.009 -0.14275,0.0263 -0.0741,0.0175 -0.12878,0.0263 -0.16408,0.0263 -0.0777,0 -0.13415,-0.007 -0.16924,-0.021 -0.10594,-0.0706 -0.15891,-0.13414 -0.15891,-0.19055 -0.007,-0.0775 -0.004,-0.35269 0.0107,-0.82553 0.014,-0.3527 -0.0249,-0.62076 -0.11659,-0.80423 -0.13394,-0.29649 -0.35968,-0.57521 -0.6773,-0.83619 -0.29627,-0.22586 -0.59255,-0.44807 -0.88883,-0.66661 -0.007,-0.0424 -0.0107,-0.0989 -0.0107,-0.16957 l 0.63497,-4.93157 c 0.0211,-0.0566 0.0423,-0.18721 0.0636,-0.39177 0.11282,-0.13392 0.20799,-0.20089 0.28551,-0.2009 0.43042,1e-5 0.76212,0.25753 0.9951,0.77257 0.17634,0.39512 0.26806,0.85019 0.27517,1.36525 l 0.0423,1.90487 c 0.014,0.64919 0.021,1.95447 0.021,3.91583 z m -0.49739,-2.27568 v -4.31787 c 0,-0.16234 -0.0264,-0.41986 -0.0793,-0.77256 -0.0529,-0.35269 -0.10761,-0.582 -0.16423,-0.68794 -0.17634,-0.3598 -0.34914,-0.51504 -0.51838,-0.46574 l -0.60332,4.90022 c 0.0917,0.0353 0.31393,0.21521 0.66662,0.5397 0.16945,0.20455 0.40232,0.47262 0.6986,0.80421 z" />
  </g>
</svg>
