<?xml version="1.0" encoding="UTF-8" standalone="no"?>
<!-- Created with Inkscape (http://www.inkscape.org/) -->

<svg
   xmlns:dc="http://purl.org/dc/elements/1.1/"
   xmlns:cc="http://creativecommons.org/ns#"
   xmlns:rdf="http://www.w3.org/1999/02/22-rdf-syntax-ns#"
   xmlns:svg="http://www.w3.org/2000/svg"
   xmlns="http://www.w3.org/2000/svg"
   xmlns:sodipodi="http://sodipodi.sourceforge.net/DTD/sodipodi-0.dtd"
   xmlns:inkscape="http://www.inkscape.org/namespaces/inkscape"
   width="45.200367"
   height="46.719093"
   viewBox="0 0 11.959263 12.361094"
   version="1.1"
   id="svg1020"
   inkscape:version="0.92.2 2405546, 2018-03-11"
   sodipodi:docname="j.svg">
  <defs
     id="defs1014" />
  <sodipodi:namedview
     id="base"
     pagecolor="#ffffff"
     bordercolor="#666666"
     borderopacity="1.0"
     inkscape:pageopacity="0.0"
     inkscape:pageshadow="2"
     inkscape:zoom="1"
     inkscape:cx="26.400734"
     inkscape:cy="22.1"
     inkscape:document-units="mm"
     inkscape:current-layer="layer1"
     showgrid="false"
     fit-margin-top="5"
     fit-margin-left="5"
     fit-margin-bottom="5"
     units="px"
     fit-margin-right="5"
     inkscape:window-width="798"
     inkscape:window-height="714"
     inkscape:window-x="701"
     inkscape:window-y="0"
     inkscape:window-maximized="0" />
  <metadata
     id="metadata1017">
    <rdf:RDF>
      <cc:Work
         rdf:about="">
        <dc:format>image/svg+xml</dc:format>
        <dc:type
           rdf:resource="http://purl.org/dc/dcmitype/StillImage" />
        <dc:title></dc:title>
      </cc:Work>
    </rdf:RDF>
  </metadata>
  <g
     inkscape:label="Capa 1"
     inkscape:groupmode="layer"
     id="layer1"
     transform="translate(-99.020393,-142.31952)">
    <path
       id="path4152-0"
       style="fill:#000000;stroke-width:0.13229166"
       inkscape:connector-curvature="0"
       d="m 108.64594,152.1776 c 0,0.24697 -0.0388,0.37046 -0.11627,0.37046 -0.11304,0 -0.22598,-0.12349 -0.3388,-0.37046 -0.007,-0.014 -0.0883,-0.21855 -0.24352,-0.61365 -0.23987,-0.62787 -0.35981,-1.15357 -0.35981,-1.57705 0,-0.17634 0.0229,-0.43386 0.0688,-0.77257 0.0459,-0.33869 0.0688,-0.58555 0.0688,-0.74058 -1e-5,-0.30338 -0.06,-0.57856 -0.1799,-0.82554 -0.0353,-0.0777 -0.10938,-0.16951 -0.22221,-0.27534 -0.11284,-0.10582 -0.2116,-0.17461 -0.29634,-0.20637 -0.0847,-0.0318 -0.23292,-0.0864 -0.44458,-0.16391 -0.46552,-0.11994 -0.94525,-0.17991 -1.4392,-0.17991 l -2.30703,0.12694 c -0.26829,0 -0.4342,-0.0212 -0.49771,-0.0636 -0.0917,-0.0704 -0.15514,-0.24319 -0.19024,-0.51837 -0.0213,-0.11993 0.007,-0.27695 0.0845,-0.47106 0.0776,-0.19411 0.11643,-0.2946 0.11643,-0.30151 0,-0.0564 -0.16578,-0.12342 -0.49737,-0.20105 -0.33159,-0.0776 -0.49739,-0.19759 -0.49739,-0.35996 0,-0.17634 0.13048,-0.32447 0.39145,-0.44442 0.19765,-0.0917 0.37411,-0.13758 0.52936,-0.13758 0.23986,0 0.4303,0.0987 0.57134,0.29617 0.11304,0.16946 0.16956,0.34936 0.16956,0.53969 0,0.0284 -0.0335,0.15019 -0.10061,0.3653 -0.0671,0.2151 -0.10061,0.33676 -0.10061,0.36496 0,0.11994 0.0423,0.17991 0.12694,0.17989 0.0142,2e-5 0.17302,-0.0246 0.47639,-0.074 0.3387,-0.0635 0.58911,-0.10226 0.75125,-0.11627 0.44463,-0.0424 0.9068,-0.0636 1.38655,-0.0636 0.84662,0 1.43576,0.0564 1.76728,0.16924 0.49394,0.17657 0.84673,0.54347 1.0584,1.1007 0.11992,0.26119 0.17989,0.56101 0.1799,0.8995 -1e-5,0.14836 -0.0547,0.50826 -0.16407,1.07971 -0.10939,0.57146 -0.16407,0.98422 -0.16407,1.2383 0,0.35979 0.0688,0.68784 0.20639,0.9841 0.13759,0.29628 0.20637,0.55026 0.20637,0.76191 z m -0.41276,-4.20132 c -0.0422,-0.0495 -0.0599,-0.0954 -0.053,-0.13758 0.0213,-0.0706 0.032,-0.11305 0.032,-0.12725 -0.0142,-0.13394 -0.0636,-0.29262 -0.14825,-0.47608 -0.0635,-0.14813 -0.11294,-0.23986 -0.14825,-0.27518 -0.15524,-0.24696 -0.47273,-0.43041 -0.95246,-0.55035 -0.3527,-0.0846 -0.73014,-0.12692 -1.13236,-0.12693 -0.80443,1e-5 -1.57004,0.0459 -2.29672,0.13759 -0.57856,0.0775 -0.91371,0.10928 -1.00543,0.0953 0.0495,0.0493 0.21532,0.074 0.49739,0.074 0.28227,0 0.42342,-0.007 0.42342,-0.0213 -0.0282,-0.007 -0.10938,-0.0103 -0.24353,-0.0103 0.0777,0 0.18889,-0.004 0.33348,-0.0107 0.14459,-0.007 0.23099,-0.0107 0.25919,-0.0107 0.0282,0 0.22049,-0.007 0.57685,-0.0211 0.35634,-0.0141 0.55217,-0.0211 0.58749,-0.0212 0.70559,2e-5 1.23473,0.0423 1.5875,0.12694 0.63496,0.15525 1.07949,0.46929 1.33363,0.94212 0.12703,0.23277 0.18344,0.79367 0.16924,1.68275 0.11992,-0.83973 0.17989,-1.26305 0.17989,-1.26994 z m -5.58787,-2.80472 c 0,-0.0988 -0.0335,-0.18876 -0.10061,-0.26984 -0.0671,-0.0811 -0.15001,-0.12159 -0.24885,-0.12159 -0.22565,-0.0213 -0.38789,0.0598 -0.48673,0.24319 0.33159,0.10595 0.55036,0.15892 0.6563,0.15891 0.0564,1e-5 0.11638,-0.004 0.17989,-0.0107 z" />
  </g>
</svg>
