<?xml version="1.0" encoding="UTF-8" standalone="no"?>
<!-- Created with Inkscape (http://www.inkscape.org/) -->

<svg
   xmlns:dc="http://purl.org/dc/elements/1.1/"
   xmlns:cc="http://creativecommons.org/ns#"
   xmlns:rdf="http://www.w3.org/1999/02/22-rdf-syntax-ns#"
   xmlns:svg="http://www.w3.org/2000/svg"
   xmlns="http://www.w3.org/2000/svg"
   xmlns:sodipodi="http://sodipodi.sourceforge.net/DTD/sodipodi-0.dtd"
   xmlns:inkscape="http://www.inkscape.org/namespaces/inkscape"
   width="45.200367"
   height="46.719093"
   viewBox="0 0 11.959263 12.361094"
   version="1.1"
   id="svg1020"
   inkscape:version="0.92.2 2405546, 2018-03-11"
   sodipodi:docname="kh.svg">
  <defs
     id="defs1014" />
  <sodipodi:namedview
     id="base"
     pagecolor="#ffffff"
     bordercolor="#666666"
     borderopacity="1.0"
     inkscape:pageopacity="0.0"
     inkscape:pageshadow="2"
     inkscape:zoom="1"
     inkscape:cx="-231.59927"
     inkscape:cy="22.1"
     inkscape:document-units="mm"
     inkscape:current-layer="layer1"
     showgrid="false"
     fit-margin-top="5"
     fit-margin-left="5"
     fit-margin-bottom="5"
     units="px"
     fit-margin-right="5"
     inkscape:window-width="1344"
     inkscape:window-height="718"
     inkscape:window-x="22"
     inkscape:window-y="0"
     inkscape:window-maximized="1" />
  <metadata
     id="metadata1017">
    <rdf:RDF>
      <cc:Work
         rdf:about="">
        <dc:format>image/svg+xml</dc:format>
        <dc:type
           rdf:resource="http://purl.org/dc/dcmitype/StillImage" />
        <dc:title></dc:title>
      </cc:Work>
    </rdf:RDF>
  </metadata>
  <g
     inkscape:label="Capa 1"
     inkscape:groupmode="layer"
     id="layer1"
     transform="translate(-99.020393,-142.31952)">
    <path
       d="m 104.90908,146.01959 c -0.77623,0 -1.37091,0.22881 -1.79421,0.69453 -0.3951,0.44442 -0.59531,1.04876 -0.59531,1.81076 0,0.77623 0.22762,1.38033 0.68625,1.81075 0.45865,0.43043 1.06409,0.64492 1.819,0.64492 0.6703,0 1.25307,-0.24421 1.73636,-0.7276 0.48326,-0.48342 0.71929,-1.05775 0.71932,-1.72805 -3e-5,-0.67717 -0.24207,-1.26365 -0.73589,-1.76112 -0.49384,-0.49749 -1.10884,-0.74414 -1.83552,-0.74414 z m -0.1075,0.41341 c 0.0508,-0.004 0.0982,-0.004 0.14058,0 0.59253,0.0495 1.04664,0.20324 1.36424,0.47128 h -2.68711 c 0.10568,-0.11994 0.30845,-0.23319 0.61183,-0.33899 0.22754,-0.0794 0.4183,-0.12032 0.57052,-0.13229 z m 1.8273,0.89297 c 0.127,0.0917 0.20582,0.25389 0.24802,0.47956 l -3.81159,-0.008 c 0.014,-0.17634 0.0748,-0.32655 0.17362,-0.44648 l 3.3901,-0.0248 z m -3.62162,0.90122 3.96055,0.008 c 0.0703,0.13393 0.0729,0.31038 0.0164,0.52917 h -4.00182 c -0.0283,-0.0846 -0.0294,-0.18714 -0.008,-0.3142 0.0212,-0.17634 0.0331,-0.25144 0.0331,-0.22324 z m 0.0496,0.96737 h 3.81978 c 0.0143,0.13391 -0.0514,0.31039 -0.20669,0.52917 h -3.15859 c -0.0635,-0.014 -0.14221,-0.0879 -0.24804,-0.21497 -0.10584,-0.12703 -0.17849,-0.22958 -0.20669,-0.3142 z m 0.71104,0.96737 h 2.34817 c -0.28231,0.16235 -0.47188,0.27178 -0.57049,0.3142 -0.15523,0.0564 -0.35663,0.0827 -0.60357,0.0827 -0.26122,0 -0.43884,-0.0131 -0.53745,-0.0413 -0.14126,-0.0424 -0.35462,-0.16496 -0.63666,-0.35555 z"
       inkscape:connector-curvature="0"
       style="fill:#000000;stroke-width:0.26458332"
       id="path5859" />
  </g>
</svg>
