<?xml version="1.0" encoding="UTF-8" standalone="no"?>
<!-- Created with Inkscape (http://www.inkscape.org/) -->

<svg
   xmlns:dc="http://purl.org/dc/elements/1.1/"
   xmlns:cc="http://creativecommons.org/ns#"
   xmlns:rdf="http://www.w3.org/1999/02/22-rdf-syntax-ns#"
   xmlns:svg="http://www.w3.org/2000/svg"
   xmlns="http://www.w3.org/2000/svg"
   xmlns:sodipodi="http://sodipodi.sourceforge.net/DTD/sodipodi-0.dtd"
   xmlns:inkscape="http://www.inkscape.org/namespaces/inkscape"
   width="45.200367"
   height="46.719093"
   viewBox="0 0 11.959263 12.361094"
   version="1.1"
   id="svg1020"
   inkscape:version="0.92.2 2405546, 2018-03-11"
   sodipodi:docname="l.svg">
  <defs
     id="defs1014" />
  <sodipodi:namedview
     id="base"
     pagecolor="#ffffff"
     bordercolor="#666666"
     borderopacity="1.0"
     inkscape:pageopacity="0.0"
     inkscape:pageshadow="2"
     inkscape:zoom="1"
     inkscape:cx="-392.59927"
     inkscape:cy="22.1"
     inkscape:document-units="mm"
     inkscape:current-layer="layer1"
     showgrid="false"
     fit-margin-top="5"
     fit-margin-left="5"
     fit-margin-bottom="5"
     units="px"
     fit-margin-right="5"
     inkscape:window-width="1344"
     inkscape:window-height="718"
     inkscape:window-x="22"
     inkscape:window-y="0"
     inkscape:window-maximized="1" />
  <metadata
     id="metadata1017">
    <rdf:RDF>
      <cc:Work
         rdf:about="">
        <dc:format>image/svg+xml</dc:format>
        <dc:type
           rdf:resource="http://purl.org/dc/dcmitype/StillImage" />
        <dc:title></dc:title>
      </cc:Work>
    </rdf:RDF>
  </metadata>
  <g
     inkscape:label="Capa 1"
     inkscape:groupmode="layer"
     id="layer1"
     transform="translate(-99.020393,-142.31952)">
    <path
       d="m 109.98269,150.455 c -0.19767,0.12705 -1.46417,0.18002 -3.79941,0.15891 -0.0706,0 -0.10594,-0.0282 -0.10594,-0.0846 0,-0.0212 0.004,-0.0529 0.0108,-0.0953 0.007,-0.0424 0.0108,-0.0742 0.0108,-0.0953 0,-0.0846 -0.0423,-0.13761 -0.12692,-0.15891 -0.13414,-0.0282 -0.32469,-0.0423 -0.57165,-0.0423 -0.17638,0 -0.45498,0.0109 -0.83588,0.032 -0.34581,0.0212 -0.56456,0.0281 -0.6563,0.0209 -0.0917,-0.007 -0.2011,0.0387 -0.32813,0.13759 -0.12705,0.0988 -0.22577,0.14824 -0.29618,0.14824 -0.92437,0.0212 -2.02152,0.0246 -3.29141,0.0109 -0.0424,-0.35981 0.10218,-0.5397 0.43376,-0.5397 0.14126,0 0.32115,0.0317 0.53969,0.0953 0.43043,-0.0635 0.83974,-0.1447 1.22796,-0.24352 0.10573,-0.0282 0.19735,-0.10584 0.27485,-0.23289 0.10594,-0.16235 0.17656,-0.25763 0.21188,-0.28583 0.0564,-0.10573 0.0846,-0.17978 0.0846,-0.2222 0,-0.0424 -0.053,-0.0671 -0.15888,-0.074 -0.14105,-0.007 -0.25387,-0.0353 -0.33848,-0.0846 -0.0143,-0.0214 -0.16238,-0.14835 -0.44442,-0.3811 -0.12706,-0.10594 -0.22942,-0.23297 -0.30716,-0.38114 0.0212,-0.16211 0.16955,-0.40899 0.44474,-0.74056 0.28916,-0.36002 0.44085,-0.54703 0.45508,-0.56103 0.20455,-0.20455 0.4303,-0.35269 0.67728,-0.44442 0.3669,-0.0566 0.80431,0.13383 1.31226,0.57134 0.34578,0.34581 0.69149,0.68808 1.03709,1.02677 0.40219,0.19034 0.85029,0.28551 1.34421,0.28551 0.18346,0 0.33869,-0.0212 0.46575,-0.0633 0.57856,-0.38822 1.01243,-0.58232 1.30159,-0.58232 0.23275,0 0.39156,0.11649 0.47641,0.34946 0.0212,0.0635 -0.0319,0.0953 -0.15891,0.0953 h -0.11629 -0.13758 c -0.2894,0 -0.46585,0.0846 -0.52935,0.25386 0.3882,-0.0353 0.80629,0.16574 1.25428,0.60315 0.44797,0.43743 0.67194,0.86791 0.67196,1.29143 -2e-5,0.0846 -0.0106,0.16214 -0.0317,0.23254 z m -0.50805,-0.49739 c 0.0493,-0.16923 -0.0936,-0.4232 -0.42876,-0.76189 -0.33514,-0.3387 -0.6332,-0.50806 -0.89415,-0.50806 -0.0777,0 -0.14481,0.0212 -0.20122,0.0636 -0.0422,0.0704 -0.081,0.14091 -0.11626,0.21156 -0.0353,0.0706 -0.0459,0.15179 -0.0317,0.24352 0.11282,0.0422 0.36679,0.19743 0.76192,0.46572 0.31046,0.21167 0.55388,0.3175 0.73025,0.3175 0.0635,0 0.12348,-0.0109 0.17989,-0.032 z m -1.28061,0.10594 -0.3388,-0.29617 -1.164,0.074 0.10593,0.30681 z m -3.66183,-2.03184 c 0.0564,-0.0988 0.0564,-0.25408 0,-0.46575 -0.0493,-0.16944 -0.22212,-0.34234 -0.51837,-0.51869 -0.26832,-0.16213 -0.48353,-0.2432 -0.64564,-0.2432 -0.0706,0 -0.10594,0.0212 -0.10594,0.0633 0,0.0282 0.014,0.0635 0.0423,0.10594 0.0564,0.0846 0.16401,0.16753 0.32282,0.2487 0.15877,0.0812 0.26283,0.16762 0.31215,0.25935 0.0214,0.0422 0.032,0.0951 0.032,0.15859 0,0.0495 -0.0124,0.12541 -0.0371,0.2277 -0.0249,0.10226 -0.0371,0.17105 -0.0371,0.20638 0,0.12684 0.0847,0.19023 0.25418,0.19023 0.16214,0 0.28906,-0.0775 0.38079,-0.23254 z m 2.63517,1.29093 c 0.0917,-0.0353 0.13758,-0.0812 0.13758,-0.13759 0,-0.0353 -0.023,-0.0917 -0.0688,-0.16922 -0.0459,-0.0775 -0.0722,-0.13748 -0.0791,-0.17992 0.007,-0.0846 -0.11303,-0.13404 -0.35978,-0.14825 -0.15525,0 -0.31051,0.003 -0.46574,0.0106 -0.16235,-0.007 -0.31761,-0.0177 -0.46572,-0.0317 -0.19058,-0.0214 -0.43043,-0.0602 -0.71962,-0.1166 -0.23296,-0.0422 -0.39176,-0.0633 -0.47638,-0.0633 -0.18346,2e-5 -0.33515,0.0741 -0.45508,0.22222 -0.0212,0.0212 -0.23276,0.20799 -0.63497,0.56068 -0.33158,0.2894 -0.49739,0.47641 -0.49739,0.56102 0,0.0353 0.0177,0.0565 0.053,0.0636 0.12706,-0.0846 0.22233,-0.14459 0.28586,-0.17991 0.14102,-0.0777 0.28205,-0.12714 0.4231,-0.14825 0.20476,0.0564 0.85039,0.0741 1.93688,0.053 0.3951,-0.007 0.8572,-0.10594 1.38623,-0.29649 z m -3.72533,-1.6614 c -0.18347,-0.26805 -0.3528,-0.40209 -0.50806,-0.40209 -0.0564,0 -0.11636,0.014 -0.17989,0.0423 -0.13393,0.0564 -0.2785,0.15512 -0.43375,0.29615 -0.16947,0.16237 -0.25064,0.29996 -0.24353,0.41277 0,0.0777 0.0794,0.14658 0.23821,0.20654 0.15877,0.06 0.24873,0.15338 0.26985,0.28019 0.0353,0.0143 0.074,0.0214 0.11625,0.0214 0.0988,0 0.22937,-0.0494 0.39161,-0.14824 0.16225,-0.0988 0.27512,-0.15523 0.33864,-0.16926 0.0777,-0.24696 0.0813,-0.42685 0.0109,-0.53969 z m -0.5397,-0.13242 c 0.0353,0.0388 0.053,0.0829 0.053,0.13242 0,0.16214 -0.0776,0.2432 -0.23286,0.2432 -0.16947,0 -0.25419,-0.067 -0.25419,-0.20089 0,-0.0564 0.03,-0.10933 0.0901,-0.15873 0.0601,-0.0494 0.12531,-0.0741 0.19571,-0.0741 0.0635,0 0.11293,0.0193 0.14825,0.0581 z"
       inkscape:connector-curvature="0"
       style="fill:#000000;stroke-width:0.26458332"
       id="path4034" />
  </g>
</svg>
