<?xml version="1.0" encoding="UTF-8" standalone="no"?>
<!-- Created with Inkscape (http://www.inkscape.org/) -->

<svg
   xmlns:dc="http://purl.org/dc/elements/1.1/"
   xmlns:cc="http://creativecommons.org/ns#"
   xmlns:rdf="http://www.w3.org/1999/02/22-rdf-syntax-ns#"
   xmlns:svg="http://www.w3.org/2000/svg"
   xmlns="http://www.w3.org/2000/svg"
   xmlns:sodipodi="http://sodipodi.sourceforge.net/DTD/sodipodi-0.dtd"
   xmlns:inkscape="http://www.inkscape.org/namespaces/inkscape"
   width="45.200367"
   height="46.719093"
   viewBox="0 0 11.959263 12.361094"
   version="1.1"
   id="svg1020"
   inkscape:version="0.92.2 2405546, 2018-03-11"
   sodipodi:docname="m.svg">
  <defs
     id="defs1014" />
  <sodipodi:namedview
     id="base"
     pagecolor="#ffffff"
     bordercolor="#666666"
     borderopacity="1.0"
     inkscape:pageopacity="0.0"
     inkscape:pageshadow="2"
     inkscape:zoom="1"
     inkscape:cx="-264.09927"
     inkscape:cy="22.1"
     inkscape:document-units="mm"
     inkscape:current-layer="layer1"
     showgrid="false"
     fit-margin-top="5"
     fit-margin-left="5"
     fit-margin-bottom="5"
     units="px"
     fit-margin-right="5"
     inkscape:window-width="1344"
     inkscape:window-height="718"
     inkscape:window-x="22"
     inkscape:window-y="0"
     inkscape:window-maximized="1" />
  <metadata
     id="metadata1017">
    <rdf:RDF>
      <cc:Work
         rdf:about="">
        <dc:format>image/svg+xml</dc:format>
        <dc:type
           rdf:resource="http://purl.org/dc/dcmitype/StillImage" />
        <dc:title />
      </cc:Work>
    </rdf:RDF>
  </metadata>
  <g
     inkscape:label="Capa 1"
     inkscape:groupmode="layer"
     id="layer1"
     transform="translate(-99.020393,-142.31952)">
    <path
       id="path4488"
       d="m 109.78372,152.30478 c -0.0353,0.0564 -0.0882,0.14814 -0.15858,0.27517 h -0.1799 l -0.21188,-0.16924 c 0.0282,0.11283 0.10055,0.22742 0.21705,0.34383 0.11647,0.11636 0.17472,0.21698 0.17473,0.30181 -1e-5,0.11283 0.004,0.22209 0.0106,0.32783 -0.0284,0.0213 -0.0567,0.0425 -0.085,0.0636 -0.25387,0.0282 -0.63832,0.0423 -1.15334,0.0423 -0.0849,0 -0.22244,-0.0246 -0.41277,-0.074 -0.23988,-0.0706 -0.41277,-0.15179 -0.5187,-0.24352 -0.16236,-0.14814 -0.33871,-0.38446 -0.52905,-0.70893 -0.11993,-0.21878 -0.23987,-0.43754 -0.35979,-0.65631 -0.16236,-0.28227 -0.34936,-0.52925 -0.56101,-0.74089 -0.0211,0.0213 -0.0705,0.19065 -0.14825,0.50804 -0.0635,0.26807 -0.1588,0.40209 -0.28584,0.40209 -0.11993,0 -0.26452,-0.0846 -0.43376,-0.25384 -0.11993,0.007 -0.18345,0.10582 -0.19055,0.29616 v 0.39177 c -0.0493,0.11994 -0.10217,0.3034 -0.15858,0.55036 -0.13416,0.12703 -0.25064,0.2011 -0.34946,0.2222 -0.0493,0.007 -0.22922,0.0107 -0.5397,0.0107 -0.0424,0 -0.17296,-0.0177 -0.39161,-0.053 -0.21866,-0.0353 -0.34919,-0.053 -0.39161,-0.053 -0.0353,0 -0.10055,0.0335 -0.19572,0.10061 -0.0952,0.0671 -0.16398,0.10061 -0.20639,0.10061 -0.0424,0 -0.19061,-0.0335 -0.44458,-0.10061 -0.25397,-0.0671 -0.40205,-0.10061 -0.44425,-0.10061 -0.0353,0 -0.0883,0.0264 -0.15891,0.0793 -0.0706,0.0529 -0.12704,0.0793 -0.16924,0.0793 -0.0424,0 -0.14297,-0.0176 -0.30166,-0.0528 -0.15869,-0.0352 -0.25924,-0.0528 -0.30167,-0.0528 -0.007,0 -0.10238,0.0141 -0.28583,0.0423 -0.14814,0.0211 -0.26452,0.0211 -0.34914,0 0,-0.0142 -0.009,-0.0336 -0.0265,-0.0583 -0.0177,-0.0247 -0.0265,-0.0617 -0.0265,-0.11096 0,-0.13415 0.15524,-0.3035 0.46573,-0.50804 0.0211,-0.0142 0.11981,-0.0213 0.29616,-0.0213 0.0424,0 0.13065,0.0159 0.2647,0.0476 0.13402,0.0318 0.22225,0.0476 0.26467,0.0476 0.0282,0 0.0882,-0.0247 0.17991,-0.0741 0.0917,-0.0494 0.15868,-0.0741 0.20088,-0.0741 0.0424,0 0.12715,0.0177 0.25419,0.053 0.12704,0.0353 0.21165,0.053 0.25385,0.053 0.11994,0 0.19057,-0.0776 0.21188,-0.23288 v -0.29616 c 0.0422,-0.11993 0.0986,-0.31049 0.16924,-0.57167 0.0493,-0.25407 0.074,-0.63862 0.074,-1.15368 0,0.0495 -0.0177,-0.44075 -0.053,-1.47081 -0.014,-0.38823 -0.0704,-0.68816 -0.16924,-0.89983 -0.0917,-0.19034 -0.25041,-0.43719 -0.47606,-0.74058 -0.27518,-0.36002 -0.44109,-0.58932 -0.49771,-0.68795 -0.014,-0.0848 -0.0422,-0.19775 -0.0846,-0.3388 -0.22565,-0.36689 -0.33848,-0.81841 -0.33848,-1.35454 0,-0.27516 0.0705,-0.61031 0.21155,-1.00543 0.0564,-0.14125 0.16224,-0.22242 0.31749,-0.24352 0.0988,-0.014 0.40932,-0.021 0.93148,-0.021 0.10571,0 0.23264,-0.004 0.38078,-0.0107 0.14813,1e-5 0.24697,1e-5 0.2965,0 0.27516,1e-5 0.45507,0.0917 0.53969,0.27518 0.0493,0.11283 0.15513,0.58556 0.31749,1.41817 0.50793,0.28917 1.01597,0.76536 1.52413,1.42848 0.27517,0.36691 0.64552,0.93848 1.11104,1.71477 0.19766,0.33869 0.69159,1.03363 1.4818,2.08478 0.29627,0.42332 0.776,1.04775 1.4392,1.87325 z m -6.18053,-7.72596 v -0.28551 c -0.0213,-0.007 -0.0813,-0.0706 -0.17989,-0.19056 -0.0848,-0.0846 -0.18368,-0.12692 -0.2965,-0.12694 0.007,2e-5 -0.0916,0.007 -0.29617,0.021 -0.16235,0.0142 -0.28229,0.0142 -0.3598,0 -0.0142,-0.007 -0.21533,0.0177 -0.60332,0.0743 -0.0564,0.23277 -0.0846,0.43733 -0.0846,0.61368 0.0353,-0.0422 0.11115,-0.0862 0.22753,-0.1321 0.11638,-0.0459 0.20988,-0.0688 0.28051,-0.0688 0.0422,0 0.11445,0.0335 0.21672,0.10044 0.10228,0.067 0.17463,0.10046 0.21704,0.10045 0.0353,1e-5 0.10233,-0.0335 0.20106,-0.10045 0.0987,-0.0669 0.16573,-0.10044 0.20105,-0.10044 0.0846,0 0.24341,0.0317 0.47639,0.095 z m 5.5245,8.39258 c -0.14127,-0.28917 -0.33538,-0.57847 -0.58234,-0.86786 -0.0917,-0.0633 -0.19756,-0.15491 -0.31749,-0.27483 -0.11993,-0.18345 -0.29984,-0.43043 -0.53969,-0.74092 -0.29628,-0.28938 -0.76546,-0.65274 -1.40759,-1.09005 -0.20456,-0.14125 -0.38801,-0.27883 -0.55036,-0.41277 -0.46573,-0.32469 -0.93136,-0.64928 -1.39686,-0.97378 -0.52216,-0.38088 -0.90672,-0.7831 -1.15368,-1.20665 -0.11994,-0.20453 -0.1799,-0.38445 -0.1799,-0.53968 0,-0.19745 0.004,-0.30327 0.0107,-0.31749 0.0846,-0.16925 0.26806,-0.29973 0.55035,-0.39146 0.21854,-0.0706 0.4302,-0.10593 0.63497,-0.10593 0.18345,-0.014 0.27518,0.046 0.27518,0.17989 0,0.0707 -0.0282,0.12716 -0.0846,0.16956 -0.40933,0.14815 -0.71626,0.23634 -0.92081,0.26452 v 0.48672 c 0.21876,0.31051 0.71259,0.75858 1.48154,1.34422 0.57167,0.4302 1.14667,0.86052 1.72508,1.29094 0.3036,0.19766 0.7058,0.46584 1.20665,0.80453 -0.35981,-0.52924 -0.86075,-1.2877 -1.50284,-2.27541 -0.38801,-0.61388 -0.69494,-1.06195 -0.9208,-1.34422 -0.40911,-0.52924 -0.83243,-0.94557 -1.26995,-1.24895 -0.0706,-0.0351 -0.1588,-0.0915 -0.26453,-0.16924 -0.12704,-0.16235 -0.18345,-0.34936 -0.16924,-0.56101 h -0.18022 c -0.0493,0.0353 -0.13393,0.0565 -0.25385,0.0636 -0.11994,0.007 -0.20111,0.0248 -0.24353,0.053 0,0.17633 -0.0141,0.395 -0.0423,0.65596 -0.0211,0.0849 -0.0599,0.15546 -0.11627,0.21186 -0.0564,0.0775 -0.0882,0.11984 -0.0953,0.12693 h -0.24353 c -0.0422,-0.0424 -0.0986,-0.10592 -0.16924,-0.19055 -0.007,-0.0775 -0.0601,-0.24331 -0.15891,-0.49739 0.0142,-0.0775 0.004,-0.18333 -0.0316,-0.31749 -0.007,2e-5 -0.0847,-0.0141 -0.23287,-0.0423 -0.0917,-0.0211 -0.15169,-0.0599 -0.17989,-0.11627 l -0.0107,0.37012 c 0,0.18346 0.0953,0.49751 0.28583,0.94213 0.16947,0.38091 0.29649,0.62788 0.38112,0.74091 0.45152,0.58546 0.81132,1.1287 1.07939,1.6297 0.25407,0.43732 0.50804,0.87474 0.76191,1.31227 0.30337,0.52925 0.47982,0.93847 0.52935,1.22766 0.14814,0.0495 0.34569,0.11657 0.59267,0.2012 0,0.014 0.0106,-0.0337 0.0317,-0.14309 0.0211,-0.10938 0.0316,-0.2558 0.0316,-0.43925 -0.0422,-0.10571 -0.0633,-0.20444 -0.0633,-0.29617 0,-0.18345 0.0882,-0.27517 0.26452,-0.27517 0.23985,0 0.50448,0.23286 0.79388,0.69859 0.18345,0.31739 0.36334,0.63487 0.5397,0.95246 0.12702,0.21878 0.32457,0.5186 0.59266,0.8995 0.0282,0.0353 0.15169,0.0847 0.37046,0.14825 0.43041,0.11993 0.66672,0.17989 0.70892,0.17989 0.21876,0 0.36346,-0.0389 0.43409,-0.11658 z m -5.11175,-1.9259 v -0.82555 c -0.15526,-0.22586 -0.36348,-0.55044 -0.62465,-0.97378 h -0.12693 v 1.651 c 0.28228,0.14814 0.47984,0.2222 0.59267,0.2222 0.0564,0 0.10938,-0.0246 0.15891,-0.0739 z m 0.39143,0.47605 c -0.19055,0.0988 -0.29638,0.14825 -0.31748,0.14825 -0.0424,0 -0.1271,-0.0335 -0.25402,-0.10061 -0.12693,-0.0671 -0.21161,-0.10061 -0.25402,-0.10061 -0.10573,0 -0.20801,0.16591 -0.30683,0.49772 -0.0424,0.16214 -0.0812,0.32791 -0.11627,0.49739 0.28206,0.11281 0.52537,0.16924 0.72992,0.16924 0.28939,0 0.44819,-0.13059 0.4764,-0.39179 0.0142,-0.23986 0.0283,-0.47973 0.0423,-0.71959 z"
       style="fill:#000000;stroke-width:0.13229166"
       inkscape:connector-curvature="0" />
  </g>
</svg>
