<?xml version="1.0" encoding="UTF-8" standalone="no"?>
<!-- Created with Inkscape (http://www.inkscape.org/) -->

<svg
   xmlns:dc="http://purl.org/dc/elements/1.1/"
   xmlns:cc="http://creativecommons.org/ns#"
   xmlns:rdf="http://www.w3.org/1999/02/22-rdf-syntax-ns#"
   xmlns:svg="http://www.w3.org/2000/svg"
   xmlns="http://www.w3.org/2000/svg"
   xmlns:sodipodi="http://sodipodi.sourceforge.net/DTD/sodipodi-0.dtd"
   xmlns:inkscape="http://www.inkscape.org/namespaces/inkscape"
   width="45.200367"
   height="46.719093"
   viewBox="0 0 11.959263 12.361094"
   version="1.1"
   id="svg1020"
   inkscape:version="0.92.2 2405546, 2018-03-11"
   sodipodi:docname="man.svg">
  <defs
     id="defs1014" />
  <sodipodi:namedview
     id="base"
     pagecolor="#ffffff"
     bordercolor="#666666"
     borderopacity="1.0"
     inkscape:pageopacity="0.0"
     inkscape:pageshadow="2"
     inkscape:zoom="1"
     inkscape:cx="-322.09927"
     inkscape:cy="22.1"
     inkscape:document-units="mm"
     inkscape:current-layer="layer1"
     showgrid="false"
     fit-margin-top="5"
     fit-margin-left="5"
     fit-margin-bottom="5"
     units="px"
     fit-margin-right="5"
     inkscape:window-width="1344"
     inkscape:window-height="718"
     inkscape:window-x="22"
     inkscape:window-y="0"
     inkscape:window-maximized="1" />
  <metadata
     id="metadata1017">
    <rdf:RDF>
      <cc:Work
         rdf:about="">
        <dc:format>image/svg+xml</dc:format>
        <dc:type
           rdf:resource="http://purl.org/dc/dcmitype/StillImage" />
        <dc:title />
      </cc:Work>
    </rdf:RDF>
  </metadata>
  <g
     inkscape:label="Capa 1"
     inkscape:groupmode="layer"
     id="layer1"
     transform="translate(-99.020393,-142.31952)">
    <path
       d="m 108.83422,149.09076 c -0.0557,0.0209 -0.11843,0.0313 -0.18818,0.0313 -0.13927,0 -0.34477,-0.0557 -0.6165,-0.16714 -0.38317,-0.16029 -0.61312,-0.2544 -0.68988,-0.28223 -0.12546,0.25791 -0.18817,0.81528 -0.18817,1.67219 0,0.10459 0.007,0.26318 0.0209,0.47569 0.014,0.21254 0.0209,0.371 0.0209,0.47538 0,0.36232 -0.0557,0.77343 -0.16714,1.23336 0.10462,0.18817 0.24048,0.32403 0.40762,0.40759 0.23685,0.0976 0.47723,0.19507 0.72112,0.29247 0.13927,0.13949 0.20891,0.25791 0.20891,0.35531 0,0.0278 -0.003,0.0523 -0.0103,0.0734 -0.5018,-0.0697 -1.00351,-0.136 -1.50508,-0.19871 -0.67574,-0.0836 -1.34114,-0.12536 -1.99625,-0.12536 -1.1216,0 -2.35823,0.11491 -3.70999,0.34478 -0.0627,-0.27172 0.26823,-0.50159 0.99285,-0.68955 0.0557,-0.39019 0.31692,-0.77343 0.78364,-1.14978 -0.20902,-0.81521 -0.31353,-1.49796 -0.3135,-2.04822 -3e-5,-0.45291 0.0801,-0.75599 0.24048,-0.90932 0.12544,0 0.41111,0.13237 0.85698,0.39709 0.48776,0.27874 0.89887,0.56793 1.23333,0.86752 0.0765,-0.41805 0.11483,-0.64448 0.11483,-0.67935 0,-0.0209 -0.0106,-0.0786 -0.0314,-0.17256 -0.0209,-0.094 -0.0383,-0.22802 -0.0521,-0.40217 l -0.41814,-1.70378 c -0.209,0.2509 -0.4145,0.49829 -0.61651,0.74218 -0.11141,0.11843 -0.31692,0.27173 -0.6165,0.4599 -0.26493,-0.32065 -0.52626,-0.63765 -0.78396,-0.95107 -0.25091,-0.27877 -0.53306,-0.43908 -0.84646,-0.48096 -0.16034,-0.0974 -0.24048,-0.19489 -0.24048,-0.29247 0,-0.0209 0.009,-0.0626 0.0262,-0.12536 0.0175,-0.0627 0.0228,-0.11501 0.0156,-0.15692 -0.0697,-0.16709 -0.13938,-0.33433 -0.20891,-0.50168 -0.0836,-0.21582 -0.11843,-0.40738 -0.10462,-0.57473 0.10462,-0.0209 0.3973,0.27183 0.87805,0.87805 0.5643,0.70358 1.02762,1.15988 1.38994,1.36887 0.202,-0.20198 0.47543,-0.51025 0.82031,-0.92477 0.34488,-0.4145 0.63926,-0.7403 0.88315,-0.97737 0.007,-0.0974 -0.0331,-0.17399 -0.12022,-0.22979 -0.0872,-0.0558 -0.16555,-0.10456 -0.23509,-0.14624 -0.0349,-0.0836 -0.13245,-0.2473 -0.29278,-0.49117 0.16033,-0.20902 0.27876,-0.4041 0.3553,-0.58526 0.11163,-0.29958 0.21614,-0.49818 0.31354,-0.59579 0.16732,-0.18113 0.43214,-0.27522 0.79446,-0.28225 0.46673,-0.007 0.80113,0.0592 1.00325,0.19854 0.20209,0.13938 0.35192,0.39023 0.44952,0.75255 0.0209,0.21601 -0.007,0.39717 -0.0839,0.54346 -0.0417,0.0766 -0.12173,0.17065 -0.24016,0.28226 -0.0906,0.0906 -0.13237,0.16724 -0.12533,0.22997 0.42481,0.23686 0.85677,0.80119 1.29585,1.69294 0.40396,0.81521 0.60597,1.44224 0.60597,1.88111 0,0.0838 -0.0103,0.1465 -0.0312,0.18817 z m -2.07981,-4.12803 c 0.16031,-0.0976 0.24048,-0.22653 0.24048,-0.38687 0,-0.1533 -0.0802,-0.35179 -0.24048,-0.59545 -0.007,-0.0838 -0.0924,-0.15872 -0.25612,-0.22487 -0.16373,-0.0661 -0.33957,-0.0992 -0.52753,-0.0992 -0.34147,0 -0.50871,0.10451 -0.50167,0.31353 -3e-5,0.0906 0.15851,0.14981 0.47553,0.17764 0.31703,0.0279 0.49287,0.0767 0.52753,0.1464 0.0349,0.1044 0.12896,0.32734 0.28226,0.66881 z m 1.50508,3.52214 -0.62704,-1.41103 -0.15692,0.88826 z m -1.00338,-2.27852 c -0.0487,-0.0417 -0.19148,-0.19499 -0.42834,-0.45992 -0.13948,-0.13925 -0.26143,-0.22633 -0.36583,-0.26122 -0.13949,-0.19498 -0.21614,-0.45969 -0.22995,-0.79415 -0.0697,-0.20201 -0.25792,-0.29959 -0.56455,-0.29282 -0.0349,0.007 -0.12543,1.4e-4 -0.27172,-0.0206 0.014,0.0209 0.0315,0.0383 0.0523,0.0523 0.0627,0.0557 0.0941,0.10441 0.0941,0.14608 0,0.0489 -0.0366,0.0855 -0.10972,0.10988 -0.0731,0.0243 -0.13065,0.0365 -0.17254,0.0365 -0.11141,0 -0.17404,-0.0383 -0.18785,-0.11481 -0.014,-0.0489 -0.0175,-0.0734 -0.0106,-0.0734 -0.0419,0.0627 -0.0768,0.1464 -0.10462,0.25099 0.0279,0.16713 0.12716,0.29424 0.29789,0.38131 0.17074,0.0871 0.28046,0.23863 0.32915,0.45466 0.014,0.0836 -0.0731,0.20903 -0.26123,0.37632 -0.23685,0.21603 -0.4041,0.45993 -0.50167,0.73165 0.4042,1.28897 0.60629,2.24346 0.60629,2.86332 0,0.42506 -0.0627,0.8082 -0.18817,1.14946 0.22283,-0.0138 0.47712,-0.0556 0.7629,-0.12533 0.36933,-0.0906 0.6097,-0.14629 0.72115,-0.16714 l 0.12533,-2.01697 -0.83595,-0.26122 c -0.16735,-0.0349 -0.34505,-0.20209 -0.53311,-0.50168 -0.18807,-0.29959 -0.2821,-0.55049 -0.2821,-0.75271 0,-0.0557 0.0103,-0.101 0.0312,-0.13587 0.47373,0.15333 0.7594,0.34145 0.85701,0.56438 0.0976,0.22294 0.38674,0.41455 0.86751,0.57489 0.0349,-0.1044 0.0836,-0.39002 0.14624,-0.85685 0.0626,-0.46681 0.11486,-0.7525 0.15674,-0.85715 z m -2.49796,4.79716 c -0.1044,-0.33446 -0.28546,-0.61671 -0.54314,-0.84677 -0.19521,-0.16012 -0.52276,-0.36211 -0.98266,-0.606 -0.0347,0.18116 -0.052,0.39018 -0.052,0.62706 0,0.48075 0.0765,0.93364 0.22963,1.35866 0.33446,-0.16031 0.78386,-0.33795 1.34816,-0.53295 z m 1.90217,0 c -0.46673,-0.0419 -1.21915,0.16883 -2.25729,0.63215 -1.03817,0.46331 -1.60605,0.84828 -1.70363,1.1549 0.7176,-0.11845 1.33422,-0.17767 1.84986,-0.17767 0.40421,0 0.7578,0.0366 1.0608,0.10973 0.30297,0.0731 0.45799,0.10969 0.465,0.10969 0.10462,0 0.244,-0.11493 0.41815,-0.34475 0.13245,-0.41124 0.19867,-0.75962 0.19867,-1.04518 0,-0.14629 -0.0106,-0.29258 -0.0316,-0.43887 z"
       inkscape:connector-curvature="0"
       style="fill:#000000;stroke-width:0.26458332"
       id="path4371" />
  </g>
</svg>
