<?xml version="1.0" encoding="UTF-8" standalone="no"?>
<!-- Created with Inkscape (http://www.inkscape.org/) -->

<svg
   xmlns:dc="http://purl.org/dc/elements/1.1/"
   xmlns:cc="http://creativecommons.org/ns#"
   xmlns:rdf="http://www.w3.org/1999/02/22-rdf-syntax-ns#"
   xmlns:svg="http://www.w3.org/2000/svg"
   xmlns="http://www.w3.org/2000/svg"
   xmlns:sodipodi="http://sodipodi.sourceforge.net/DTD/sodipodi-0.dtd"
   xmlns:inkscape="http://www.inkscape.org/namespaces/inkscape"
   width="45.200367"
   height="46.719093"
   viewBox="0 0 11.959263 12.361094"
   version="1.1"
   id="svg1020"
   inkscape:version="0.92.2 2405546, 2018-03-11"
   sodipodi:docname="n.svg">
  <defs
     id="defs1014" />
  <sodipodi:namedview
     id="base"
     pagecolor="#ffffff"
     bordercolor="#666666"
     borderopacity="1.0"
     inkscape:pageopacity="0.0"
     inkscape:pageshadow="2"
     inkscape:zoom="1"
     inkscape:cx="-264.09927"
     inkscape:cy="22.1"
     inkscape:document-units="mm"
     inkscape:current-layer="layer1"
     showgrid="false"
     fit-margin-top="5"
     fit-margin-left="5"
     fit-margin-bottom="5"
     units="px"
     fit-margin-right="5"
     inkscape:window-width="1344"
     inkscape:window-height="718"
     inkscape:window-x="22"
     inkscape:window-y="0"
     inkscape:window-maximized="1" />
  <metadata
     id="metadata1017">
    <rdf:RDF>
      <cc:Work
         rdf:about="">
        <dc:format>image/svg+xml</dc:format>
        <dc:type
           rdf:resource="http://purl.org/dc/dcmitype/StillImage" />
        <dc:title />
      </cc:Work>
    </rdf:RDF>
  </metadata>
  <g
     inkscape:label="Capa 1"
     inkscape:groupmode="layer"
     id="layer1"
     transform="translate(-99.020393,-142.31952)">
    <path
       id="path4490"
       d="m 109.48733,149.09822 c -0.014,-0.0353 -0.0317,-0.053 -0.053,-0.053 -0.0282,0 -0.0811,0.0423 -0.15874,0.12694 -0.0776,0.0846 -0.127,0.11637 -0.14809,0.0953 -0.0917,-0.0775 -0.27163,-0.36679 -0.53969,-0.86783 -0.11994,0.16234 -0.27518,0.42697 -0.46574,0.79386 -0.0988,0.0775 -0.21521,0.0775 -0.34914,0 -0.0917,-0.16234 -0.25052,-0.39166 -0.47638,-0.68794 -0.0775,0.0704 -0.1516,0.1798 -0.22221,0.32815 -0.0493,0.11994 -0.0987,0.23987 -0.14825,0.35979 -0.10573,0.0775 -0.22566,0.0775 -0.35979,0 -0.0704,-0.16945 -0.22556,-0.39876 -0.46542,-0.68794 -0.0848,0.0775 -0.15901,0.19036 -0.22253,0.33848 -0.0493,0.11305 -0.0986,0.22954 -0.14792,0.34946 -0.14127,0.0493 -0.26119,0.0493 -0.3598,0 -0.0988,-0.16945 -0.22587,-0.40231 -0.38112,-0.69859 -0.19056,0.3809 -0.39166,0.62431 -0.60331,0.73025 -0.12706,-0.0424 -0.23644,-0.13769 -0.32815,-0.28583 -0.0917,-0.14814 -0.17991,-0.29273 -0.26452,-0.43377 -0.0635,0.0493 -0.15703,0.17803 -0.28051,0.38612 -0.12348,0.20811 -0.22754,0.32627 -0.31216,0.35448 -0.11283,-0.0351 -0.21154,-0.13383 -0.29617,-0.29618 -0.11994,-0.21876 -0.21876,-0.3669 -0.29649,-0.44442 -0.0706,0.0635 -0.1553,0.19579 -0.25402,0.39678 -0.0987,0.20101 -0.17985,0.33326 -0.24336,0.39679 -0.12704,-0.0211 -0.24343,-0.12338 -0.34914,-0.30684 -0.0917,-0.16235 -0.18001,-0.32814 -0.26485,-0.49738 -0.27517,0.16924 -0.46207,0.43387 -0.56068,0.79388 -0.11305,0 -0.25419,-0.0847 -0.42343,-0.25418 0.13415,-0.25408 0.26818,-0.50804 0.4021,-0.76191 0.18345,-0.30338 0.35281,-0.45863 0.50805,-0.46573 0.11993,0.0635 0.22576,0.17992 0.31749,0.34914 0.12703,0.23297 0.2152,0.38123 0.26452,0.44475 0.0424,-0.0424 0.13769,-0.19068 0.28583,-0.44475 0.11994,-0.21165 0.22221,-0.32803 0.30684,-0.34914 0.0917,0.0142 0.19755,0.10948 0.31748,0.28584 0.0917,0.16924 0.187,0.33503 0.28583,0.49738 0.0777,-0.14814 0.15179,-0.29628 0.22221,-0.44442 0.11993,-0.19766 0.25052,-0.3106 0.39177,-0.3388 0.13393,0.0424 0.24675,0.15535 0.33848,0.3388 0.12704,0.26807 0.20466,0.41621 0.23288,0.44442 0.0493,-0.0353 0.13925,-0.16586 0.26985,-0.39161 0.13058,-0.22576 0.24873,-0.3563 0.35446,-0.39161 0.0706,0.0564 0.16235,0.17634 0.27518,0.35979 0.13413,0.23277 0.2153,0.36681 0.24352,0.40212 0.0353,-0.0353 0.11992,-0.17635 0.25385,-0.42311 0.11305,-0.21166 0.21188,-0.32459 0.29651,-0.3388 0.0917,0.0211 0.19754,0.11993 0.31749,0.29649 0.17633,0.25387 0.28216,0.402 0.31748,0.44442 0.0846,-0.0564 0.18517,-0.1799 0.30165,-0.37045 0.11649,-0.19056 0.2065,-0.31404 0.27001,-0.37046 0.0986,0.0353 0.20788,0.16408 0.32783,0.38628 0.11993,0.22221 0.21876,0.35807 0.2965,0.40761 0.0353,-0.0353 0.14112,-0.20111 0.31748,-0.49739 0.14813,-0.23297 0.27162,-0.3671 0.37046,-0.40244 0.13392,0.0917 0.4302,0.55746 0.88883,1.39726 z"
       style="fill:#000000;stroke-width:0.13229166"
       inkscape:connector-curvature="0" />
  </g>
</svg>
