<?xml version="1.0" encoding="UTF-8" standalone="no"?>
<!-- Created with Inkscape (http://www.inkscape.org/) -->

<svg
   xmlns:dc="http://purl.org/dc/elements/1.1/"
   xmlns:cc="http://creativecommons.org/ns#"
   xmlns:rdf="http://www.w3.org/1999/02/22-rdf-syntax-ns#"
   xmlns:svg="http://www.w3.org/2000/svg"
   xmlns="http://www.w3.org/2000/svg"
   xmlns:sodipodi="http://sodipodi.sourceforge.net/DTD/sodipodi-0.dtd"
   xmlns:inkscape="http://www.inkscape.org/namespaces/inkscape"
   width="45.200367"
   height="46.719093"
   viewBox="0 0 11.959263 12.361094"
   version="1.1"
   id="svg1020"
   inkscape:version="0.92.2 2405546, 2018-03-11"
   sodipodi:docname="o.svg">
  <defs
     id="defs1014" />
  <sodipodi:namedview
     id="base"
     pagecolor="#ffffff"
     bordercolor="#666666"
     borderopacity="1.0"
     inkscape:pageopacity="0.0"
     inkscape:pageshadow="2"
     inkscape:zoom="1"
     inkscape:cx="-304.59927"
     inkscape:cy="22.1"
     inkscape:document-units="mm"
     inkscape:current-layer="layer1"
     showgrid="false"
     fit-margin-top="5"
     fit-margin-left="5"
     fit-margin-bottom="5"
     units="px"
     fit-margin-right="5"
     inkscape:window-width="1344"
     inkscape:window-height="718"
     inkscape:window-x="22"
     inkscape:window-y="0"
     inkscape:window-maximized="1" />
  <metadata
     id="metadata1017">
    <rdf:RDF>
      <cc:Work
         rdf:about="">
        <dc:format>image/svg+xml</dc:format>
        <dc:type
           rdf:resource="http://purl.org/dc/dcmitype/StillImage" />
        <dc:title></dc:title>
      </cc:Work>
    </rdf:RDF>
  </metadata>
  <g
     inkscape:label="Capa 1"
     inkscape:groupmode="layer"
     id="layer1"
     transform="translate(-99.020393,-142.31952)">
    <path
       inkscape:connector-curvature="0"
       style="color:#000000;text-indent:0;text-transform:none;fill:#000000;stroke-width:0.26458332"
       d="m 105.58963,143.92254 c -0.62992,0.01 -1.26384,0.19179 -1.76525,0.55811 -0.50144,0.36634 -0.86373,0.93194 -0.89297,1.64539 -0.0292,0.7116 -0.0222,1.65076 -0.0124,2.34818 -0.61319,-0.23617 -1.22216,-0.20606 -1.80247,-0.2026 a 0.26460979,0.26460979 0 1 0 0.004,0.52917 c 0.68083,-0.004 1.24616,-0.0384 1.8066,0.24805 0.003,0.0416 0.004,0.21468 0.004,0.22738 -0.61751,0.89292 -0.89858,1.61412 -0.88471,2.17869 0.007,0.29085 0.10154,0.54842 0.28524,0.7276 0.18373,0.17918 0.44149,0.25985 0.71107,0.2563 0.6549,-0.008 1.14358,-0.49768 1.23198,-1.13273 0.0856,-0.61482 -0.15613,-1.35848 -0.77721,-2.06293 0.30503,0.0696 0.70183,0.15163 1.09553,0.18603 0.27242,0.0238 0.5302,0.0289 0.76481,-0.0413 0.11731,-0.0351 0.23386,-0.0911 0.3266,-0.19018 0.0928,-0.0991 0.14652,-0.24218 0.14882,-0.38447 a 0.26460979,0.26460979 0 0 0 -0.004,-0.0537 c -0.0579,-0.30752 -0.29004,-0.53768 -0.54571,-0.60772 -0.12784,-0.035 -0.25688,-0.0408 -0.38862,-0.0331 -0.13171,0.008 -0.26384,0.0306 -0.39687,0.062 -0.38666,0.0914 -0.76142,0.24823 -1.04593,0.37205 -0.01,-0.65878 -0.022,-1.67021 0.008,-2.40604 0.0228,-0.55239 0.2791,-0.95184 0.67386,-1.24023 0.39476,-0.2884 0.93226,-0.44675 1.46349,-0.45477 0.53118,-0.008 1.05003,0.13584 1.41386,0.41341 0.36383,0.2776 0.59131,0.66945 0.57052,1.26093 -0.0843,2.39596 -0.28536,4.92575 1.08725,6.84186 a 0.26503858,0.26503858 0 1 0 0.42995,-0.31004 c -1.22759,-1.71381 -1.07278,-4.1021 -0.98804,-6.51113 0.0262,-0.74422 -0.29432,-1.33482 -0.77721,-1.70326 -0.48292,-0.36843 -1.11469,-0.53038 -1.74461,-0.52091 z m -0.53743,4.72519 c 0.0373,0.003 0.0683,0.009 0.0951,0.0164 0.0944,0.0259 0.12689,0.0518 0.15295,0.15711 -0.003,0.003 -0.003,0.009 -0.004,0.0124 -0.007,0.008 -0.0338,0.0284 -0.0909,0.0454 -0.11425,0.0342 -0.327,0.0457 -0.56637,0.0249 -0.13838,-0.0122 -0.28453,-0.0455 -0.42995,-0.0703 0.13854,-0.0498 0.27694,-0.10514 0.40926,-0.13641 0.16663,-0.0394 0.32229,-0.0567 0.4341,-0.0496 z m -1.81488,1.12861 c 0.42077,0.55025 0.56936,1.07751 0.51676,1.4552 -0.0603,0.43358 -0.30208,0.6725 -0.71932,0.678 -0.16526,0.003 -0.2667,-0.0369 -0.33486,-0.10335 -0.0682,-0.0665 -0.11935,-0.17335 -0.12404,-0.3638 -0.008,-0.33893 0.18476,-0.92445 0.66146,-1.66605 z"
       id="path3164" />
  </g>
</svg>
