<?xml version="1.0" encoding="UTF-8" standalone="no"?>
<!-- Created with Inkscape (http://www.inkscape.org/) -->

<svg
   xmlns:dc="http://purl.org/dc/elements/1.1/"
   xmlns:cc="http://creativecommons.org/ns#"
   xmlns:rdf="http://www.w3.org/1999/02/22-rdf-syntax-ns#"
   xmlns:svg="http://www.w3.org/2000/svg"
   xmlns="http://www.w3.org/2000/svg"
   xmlns:sodipodi="http://sodipodi.sourceforge.net/DTD/sodipodi-0.dtd"
   xmlns:inkscape="http://www.inkscape.org/namespaces/inkscape"
   width="45.200367"
   height="46.719093"
   viewBox="0 0 11.959263 12.361094"
   version="1.1"
   id="svg1020"
   inkscape:version="0.92.2 2405546, 2018-03-11"
   sodipodi:docname="q.svg">
  <defs
     id="defs1014" />
  <sodipodi:namedview
     id="base"
     pagecolor="#ffffff"
     bordercolor="#666666"
     borderopacity="1.0"
     inkscape:pageopacity="0.0"
     inkscape:pageshadow="2"
     inkscape:zoom="1"
     inkscape:cx="8.900734"
     inkscape:cy="22.1"
     inkscape:document-units="mm"
     inkscape:current-layer="layer1"
     showgrid="false"
     fit-margin-top="5"
     fit-margin-left="5"
     fit-margin-bottom="5"
     units="px"
     fit-margin-right="5"
     inkscape:window-width="798"
     inkscape:window-height="714"
     inkscape:window-x="701"
     inkscape:window-y="0"
     inkscape:window-maximized="0" />
  <metadata
     id="metadata1017">
    <rdf:RDF>
      <cc:Work
         rdf:about="">
        <dc:format>image/svg+xml</dc:format>
        <dc:type
           rdf:resource="http://purl.org/dc/dcmitype/StillImage" />
        <dc:title />
      </cc:Work>
    </rdf:RDF>
  </metadata>
  <g
     inkscape:label="Capa 1"
     inkscape:groupmode="layer"
     id="layer1"
     transform="translate(-99.020393,-142.31952)">
    <path
       id="path4496"
       d="m 106.50844,146.9169 -0.0636,3.90512 -2.70907,-0.0423 c -0.0706,0 -0.15181,-0.0387 -0.24352,-0.11627 -0.007,-0.3669 0.0352,-0.65262 0.12692,-0.85718 0.0564,-0.11993 0.18518,-0.2875 0.38629,-0.50271 0.2011,-0.21521 0.35107,-0.4111 0.4499,-0.58767 0.0846,-0.13392 0.17634,-0.33492 0.27518,-0.603 0.12704,-0.77621 0.37745,-1.38297 0.75124,-1.82033 0.0495,-0.0495 0.14835,-0.0848 0.29649,-0.10594 0.13393,-0.0142 0.24331,-0.0106 0.32815,0.0107 0.14104,0.0422 0.24331,0.14803 0.30683,0.31748 0.007,0.0211 0.0389,0.15514 0.0953,0.4021 z m -0.44442,-0.074 c 0,-0.0706 -0.0424,-0.12713 -0.12725,-0.16956 -0.23987,0.0777 -0.45498,0.44109 -0.64532,1.09004 -0.21165,0.6985 -0.34924,1.07252 -0.41276,1.12204 -0.17656,0.23987 -0.35657,0.47617 -0.54002,0.70893 -0.19744,0.28229 -0.29617,0.54691 -0.29617,0.79387 h 2.01083 z"
       style="fill:#000000;stroke-width:0.13229166"
       inkscape:connector-curvature="0" />
  </g>
</svg>
