<?xml version="1.0" encoding="UTF-8" standalone="no"?>
<!-- Created with Inkscape (http://www.inkscape.org/) -->

<svg
   xmlns:dc="http://purl.org/dc/elements/1.1/"
   xmlns:cc="http://creativecommons.org/ns#"
   xmlns:rdf="http://www.w3.org/1999/02/22-rdf-syntax-ns#"
   xmlns:svg="http://www.w3.org/2000/svg"
   xmlns="http://www.w3.org/2000/svg"
   xmlns:sodipodi="http://sodipodi.sourceforge.net/DTD/sodipodi-0.dtd"
   xmlns:inkscape="http://www.inkscape.org/namespaces/inkscape"
   width="45.200367"
   height="46.719093"
   viewBox="0 0 11.959263 12.361094"
   version="1.1"
   id="svg1020"
   inkscape:version="0.92.2 2405546, 2018-03-11"
   sodipodi:docname="t.svg">
  <defs
     id="defs1014" />
  <sodipodi:namedview
     id="base"
     pagecolor="#ffffff"
     bordercolor="#666666"
     borderopacity="1.0"
     inkscape:pageopacity="0.0"
     inkscape:pageshadow="2"
     inkscape:zoom="1"
     inkscape:cx="8.900734"
     inkscape:cy="22.1"
     inkscape:document-units="mm"
     inkscape:current-layer="layer1"
     showgrid="false"
     fit-margin-top="5"
     fit-margin-left="5"
     fit-margin-bottom="5"
     units="px"
     fit-margin-right="5"
     inkscape:window-width="798"
     inkscape:window-height="714"
     inkscape:window-x="701"
     inkscape:window-y="0"
     inkscape:window-maximized="0" />
  <metadata
     id="metadata1017">
    <rdf:RDF>
      <cc:Work
         rdf:about="">
        <dc:format>image/svg+xml</dc:format>
        <dc:type
           rdf:resource="http://purl.org/dc/dcmitype/StillImage" />
        <dc:title />
      </cc:Work>
    </rdf:RDF>
  </metadata>
  <g
     inkscape:label="Capa 1"
     inkscape:groupmode="layer"
     id="layer1"
     transform="translate(-99.020393,-142.31952)">
    <path
       id="path4502"
       d="m 107.39169,149.63241 c -0.0704,0.0988 -0.17969,0.14825 -0.32783,0.14825 l -4.2336,-0.0423 c -0.0917,-0.0142 -0.15169,-0.0284 -0.1799,-0.0425 -0.0282,-0.0141 -0.0529,-0.0529 -0.074,-0.11643 0,-0.62787 0.25575,-1.17816 0.76724,-1.65086 0.51148,-0.47273 1.08826,-0.7091 1.73037,-0.7091 0.51503,0 1.03542,0.22931 1.56117,0.68793 0.52569,0.45864 0.78854,0.94902 0.78855,1.47122 -10e-6,0.0846 -0.0107,0.16924 -0.032,0.25385 z m -0.603,-0.38112 c -1e-5,-0.40909 -0.17464,-0.75479 -0.52387,-1.03707 -0.34925,-0.28227 -0.73909,-0.42686 -1.1695,-0.43376 -0.43043,-0.007 -0.85031,0.12694 -1.25962,0.4021 -0.43731,0.31051 -0.65596,0.66674 -0.65596,1.06873 z"
       style="fill:#000000;stroke-width:0.13229166"
       inkscape:connector-curvature="0" />
  </g>
</svg>
