<?xml version="1.0" encoding="UTF-8" standalone="no"?>
<!-- Created with Inkscape (http://www.inkscape.org/) -->

<svg
   xmlns:dc="http://purl.org/dc/elements/1.1/"
   xmlns:cc="http://creativecommons.org/ns#"
   xmlns:rdf="http://www.w3.org/1999/02/22-rdf-syntax-ns#"
   xmlns:svg="http://www.w3.org/2000/svg"
   xmlns="http://www.w3.org/2000/svg"
   xmlns:sodipodi="http://sodipodi.sourceforge.net/DTD/sodipodi-0.dtd"
   xmlns:inkscape="http://www.inkscape.org/namespaces/inkscape"
   width="45.200367"
   height="46.719093"
   viewBox="0 0 11.959263 12.361094"
   version="1.1"
   id="svg1020"
   inkscape:version="0.92.2 2405546, 2018-03-11"
   sodipodi:docname="u.svg">
  <defs
     id="defs1014" />
  <sodipodi:namedview
     id="base"
     pagecolor="#ffffff"
     bordercolor="#666666"
     borderopacity="1.0"
     inkscape:pageopacity="0.0"
     inkscape:pageshadow="2"
     inkscape:zoom="1"
     inkscape:cx="-264.09927"
     inkscape:cy="22.1"
     inkscape:document-units="mm"
     inkscape:current-layer="layer1"
     showgrid="false"
     fit-margin-top="5"
     fit-margin-left="5"
     fit-margin-bottom="5"
     units="px"
     fit-margin-right="5"
     inkscape:window-width="1344"
     inkscape:window-height="718"
     inkscape:window-x="22"
     inkscape:window-y="0"
     inkscape:window-maximized="1" />
  <metadata
     id="metadata1017">
    <rdf:RDF>
      <cc:Work
         rdf:about="">
        <dc:format>image/svg+xml</dc:format>
        <dc:type
           rdf:resource="http://purl.org/dc/dcmitype/StillImage" />
        <dc:title />
      </cc:Work>
    </rdf:RDF>
  </metadata>
  <g
     inkscape:label="Capa 1"
     inkscape:groupmode="layer"
     id="layer1"
     transform="translate(-99.020393,-142.31952)">
    <path
       id="text4506"
       style="fill:#000000;stroke-width:0.26458332"
       inkscape:connector-curvature="0"
       d="m 104.85949,145.99477 c -0.57856,1e-5 -1.01009,0.25275 -1.30637,0.76068 -0.0988,0.16946 -0.14883,0.39592 -0.14883,0.67799 0,0.21166 0.0274,0.38793 0.0909,0.52917 0.11993,0.27517 0.25102,0.47421 0.38862,0.58706 0.13759,0.11282 0.34377,0.17712 0.61184,0.19843 0.23987,0.0211 0.45564,-0.0479 0.65321,-0.2067 0.19755,-0.1588 0.29765,-0.34232 0.29765,-0.55399 0,-0.11993 -0.0454,-0.26298 -0.14056,-0.42169 -0.0952,-0.15869 -0.18801,-0.23151 -0.27284,-0.23151 -0.0493,-0.0213 -0.14835,-0.0213 -0.2894,0 -0.0635,0.0635 -0.091,0.12803 -0.091,0.19844 0,0.0495 0.0274,0.1198 0.091,0.21497 0.0635,0.0952 0.0992,0.16429 0.0992,0.20671 0,0.0635 -0.0381,0.14334 -0.11575,0.23151 -0.0776,0.0882 -0.15378,0.13229 -0.23151,0.13229 -0.15524,0 -0.29115,-0.0977 -0.39688,-0.28112 -0.0917,-0.15524 -0.13228,-0.30776 -0.13229,-0.46302 10e-6,-0.31737 0.0835,-0.58679 0.25632,-0.80201 0.17279,-0.2152 0.40631,-0.32244 0.70278,-0.32247 0.3951,0 0.69921,0.16218 0.91779,0.47956 0.16945,0.26118 0.25631,0.55311 0.25631,0.88471 0,0.43042 -0.10369,0.83315 -0.32247,1.20716 -0.16924,0.28917 -0.43373,0.59193 -0.79375,0.90951 -0.31737,0.26807 -0.64151,0.54221 -0.95911,0.81028 v 0.19844 c 0.0142,0 0.0558,0.012 0.11575,0.0331 0.06,0.0211 0.10641,0.0331 0.14883,0.0331 0.14814,0 0.40915,-0.13708 0.76893,-0.40513 0.41621,-0.31761 0.80952,-0.7574 1.19062,-1.31466 0.23276,-0.3387 0.34727,-0.80709 0.34727,-1.41389 0,-0.34581 -0.0763,-0.67225 -0.23151,-0.97565 -0.21876,-0.40222 -0.4358,-0.65611 -0.66146,-0.76893 -0.16235,-0.0846 -0.44826,-0.13228 -0.84336,-0.13229 z" />
  </g>
</svg>
