<?xml version="1.0" encoding="UTF-8" standalone="no"?>
<!-- Created with Inkscape (http://www.inkscape.org/) -->

<svg
   xmlns:dc="http://purl.org/dc/elements/1.1/"
   xmlns:cc="http://creativecommons.org/ns#"
   xmlns:rdf="http://www.w3.org/1999/02/22-rdf-syntax-ns#"
   xmlns:svg="http://www.w3.org/2000/svg"
   xmlns="http://www.w3.org/2000/svg"
   xmlns:sodipodi="http://sodipodi.sourceforge.net/DTD/sodipodi-0.dtd"
   xmlns:inkscape="http://www.inkscape.org/namespaces/inkscape"
   width="45.200367"
   height="46.719093"
   viewBox="0 0 11.959263 12.361094"
   version="1.1"
   id="svg1020"
   inkscape:version="0.92.2 2405546, 2018-03-11"
   sodipodi:docname="v.svg">
  <defs
     id="defs1014" />
  <sodipodi:namedview
     id="base"
     pagecolor="#ffffff"
     bordercolor="#666666"
     borderopacity="1.0"
     inkscape:pageopacity="0.0"
     inkscape:pageshadow="2"
     inkscape:zoom="1"
     inkscape:cx="-264.09927"
     inkscape:cy="22.1"
     inkscape:document-units="mm"
     inkscape:current-layer="layer1"
     showgrid="false"
     fit-margin-top="5"
     fit-margin-left="5"
     fit-margin-bottom="5"
     units="px"
     fit-margin-right="5"
     inkscape:window-width="1344"
     inkscape:window-height="718"
     inkscape:window-x="22"
     inkscape:window-y="0"
     inkscape:window-maximized="1" />
  <metadata
     id="metadata1017">
    <rdf:RDF>
      <cc:Work
         rdf:about="">
        <dc:format>image/svg+xml</dc:format>
        <dc:type
           rdf:resource="http://purl.org/dc/dcmitype/StillImage" />
        <dc:title />
      </cc:Work>
    </rdf:RDF>
  </metadata>
  <g
     inkscape:label="Capa 1"
     inkscape:groupmode="layer"
     id="layer1"
     transform="translate(-99.020393,-142.31952)">
    <path
       id="path4468"
       d="m 107.89448,143.8346 c -0.0211,1.64398 -0.0493,3.96875 -0.0846,6.97441 -0.007,0.26808 0.007,0.60321 0.0423,1.00543 0.0282,0.43043 0.0423,0.70205 0.0423,0.81488 -2e-5,0.16214 -0.0141,0.28562 -0.0423,0.37046 -0.15526,0.12702 -0.39512,0.19055 -0.7196,0.19055 -0.11994,0 -0.32459,-0.0142 -0.61398,-0.0426 -0.26097,-0.0211 -0.45142,-0.0281 -0.57134,-0.021 -1.07252,0.0706 -2.34606,0.0883 -3.82045,0.053 -0.0142,-0.0635 -0.0213,-0.12348 -0.0213,-0.17989 0,-0.26807 0.16224,-0.46219 0.48672,-0.58233 0.38112,-0.0986 0.76213,-0.19734 1.14303,-0.29618 0.87504,-0.3811 1.39369,-0.61042 1.55575,-0.68794 0.55746,-0.26806 0.9067,-0.49027 1.04773,-0.66662 0.0495,-0.40222 0.0743,-0.95967 0.0743,-1.67243 -10e-6,-0.66318 -0.0265,-1.58565 -0.0795,-2.76741 -0.053,-1.18177 -0.0794,-1.88912 -0.0794,-2.12209 0,-0.16212 0.007,-0.27495 0.0213,-0.33848 0.28207,-0.0424 0.55714,-0.0636 0.82521,-0.0636 0.26829,0.0142 0.53291,0.0249 0.79388,0.032 z m -0.55036,4.77295 c 0.007,-1.32636 0.004,-2.70219 -0.0107,-4.12764 -0.0493,-0.0211 -0.0846,-0.0475 -0.10578,-0.0793 -0.0212,-0.0318 -0.0494,-0.0476 -0.0844,-0.0476 -0.0495,10e-6 -0.16246,0.0212 -0.3388,0.0636 0.11992,1.94734 0.1799,3.43601 0.1799,4.46617 0,1.4605 -0.10227,2.29658 -0.30684,2.50825 -0.0777,0.0846 -0.62452,0.32094 -1.64041,0.70894 -1.03721,0.40222 -1.6088,0.64563 -1.71477,0.73025 0.25408,0.007 0.61742,1e-4 1.09005,-0.021 0.77622,-0.0424 1.2172,-0.0672 1.32291,-0.0743 h 1.01609 c 0.33159,0 0.52031,-0.0229 0.56617,-0.0686 0.0459,-0.0458 0.0653,-0.69661 0.0581,-1.95262 -0.014,-0.70561 -0.0245,-1.40759 -0.0317,-2.10609 z"
       style="fill:#000000;stroke-width:0.13229166"
       inkscape:connector-curvature="0" />
  </g>
</svg>
