<?xml version="1.0" encoding="UTF-8" standalone="no"?>
<!-- Created with Inkscape (http://www.inkscape.org/) -->

<svg
   xmlns:dc="http://purl.org/dc/elements/1.1/"
   xmlns:cc="http://creativecommons.org/ns#"
   xmlns:rdf="http://www.w3.org/1999/02/22-rdf-syntax-ns#"
   xmlns:svg="http://www.w3.org/2000/svg"
   xmlns="http://www.w3.org/2000/svg"
   xmlns:sodipodi="http://sodipodi.sourceforge.net/DTD/sodipodi-0.dtd"
   xmlns:inkscape="http://www.inkscape.org/namespaces/inkscape"
   width="45.200367"
   height="46.719093"
   viewBox="0 0 11.959263 12.361094"
   version="1.1"
   id="svg1020"
   inkscape:version="0.92.2 2405546, 2018-03-11"
   sodipodi:docname="w.svg">
  <defs
     id="defs1014" />
  <sodipodi:namedview
     id="base"
     pagecolor="#ffffff"
     bordercolor="#666666"
     borderopacity="1.0"
     inkscape:pageopacity="0.0"
     inkscape:pageshadow="2"
     inkscape:zoom="1"
     inkscape:cx="-264.09927"
     inkscape:cy="22.1"
     inkscape:document-units="mm"
     inkscape:current-layer="layer1"
     showgrid="false"
     fit-margin-top="5"
     fit-margin-left="5"
     fit-margin-bottom="5"
     units="px"
     fit-margin-right="5"
     inkscape:window-width="1344"
     inkscape:window-height="718"
     inkscape:window-x="22"
     inkscape:window-y="0"
     inkscape:window-maximized="1" />
  <metadata
     id="metadata1017">
    <rdf:RDF>
      <cc:Work
         rdf:about="">
        <dc:format>image/svg+xml</dc:format>
        <dc:type
           rdf:resource="http://purl.org/dc/dcmitype/StillImage" />
        <dc:title />
      </cc:Work>
    </rdf:RDF>
  </metadata>
  <g
     inkscape:label="Capa 1"
     inkscape:groupmode="layer"
     id="layer1"
     transform="translate(-99.020393,-142.31952)">
    <path
       id="path4510"
       d="m 108.56672,149.43964 c 0,0.0635 -0.0529,0.16057 -0.15874,0.29116 -0.10583,0.1306 -0.21172,0.217 -0.31764,0.2592 -0.37402,0.14124 -0.86441,0.25062 -1.47122,0.32813 -0.0704,0.0142 -0.10561,0.0777 -0.10561,0.19057 0,0.0282 0.003,0.0829 0.0105,0.16407 0.007,0.0812 0.0104,0.14286 0.0104,0.18506 0,0.0564 -0.004,0.10229 -0.0107,0.1376 -0.18346,0.62808 -0.38102,1.11491 -0.59267,1.4605 0.0353,0.0706 0.19766,0.1729 0.48706,0.30682 0.25385,0.11304 0.38077,0.27895 0.38079,0.49772 -2e-5,0.0986 -0.0211,0.19022 -0.0633,0.27485 h -0.33882 c 0,-0.0564 -0.0494,-0.11638 -0.14824,-0.1799 -0.0704,-0.0211 -0.23265,-0.0281 -0.48673,-0.021 -0.46573,0.0211 -0.97367,0.0247 -1.52373,0.0107 -0.0566,-0.007 -0.1502,-0.0354 -0.28067,-0.0848 -0.1305,-0.0494 -0.21339,-0.0741 -0.2487,-0.0741 -0.0353,0 -0.14814,0.0459 -0.33848,0.1376 -0.0213,0.0142 -0.20478,0.0213 -0.55035,0.0213 -0.26118,0 -0.41999,-0.007 -0.4764,-0.0213 -0.0988,-0.0211 -0.21177,-0.0846 -0.33881,-0.19057 0,0.007 -0.0493,0.0495 -0.14791,0.12727 -0.0706,0.0564 -0.1306,0.0846 -0.17991,0.0846 -0.0424,0 -0.0901,-0.0177 -0.14291,-0.053 -0.0529,-0.0353 -0.0864,-0.053 -0.10061,-0.053 v -0.29649 c 0.40933,-0.23986 0.71981,-0.35979 0.93148,-0.35979 0.0351,0 0.11973,0.0247 0.25386,0.0741 0.13413,0.0494 0.22586,0.0741 0.27516,0.0741 -0.0211,0 0.12004,-0.0423 0.42343,-0.12693 0.13393,-0.007 0.33492,-0.0177 0.603,-0.0316 0.16946,-0.27518 0.31059,-0.63863 0.42342,-1.09037 0.0282,-0.0986 0.10228,-0.33138 0.22221,-0.69828 0.0988,-0.3176 0.14826,-0.49405 0.14826,-0.52936 0,-0.0775 -0.0776,-0.30682 -0.23287,-0.68794 -0.13393,-0.33848 -0.21855,-0.53949 -0.25385,-0.603 -0.233,-0.49394 -0.58223,-1.21719 -1.04774,-2.16972 -0.0917,-0.14812 -0.21521,-0.38444 -0.37046,-0.70894 -0.0424,-0.13413 -0.0672,-0.32113 -0.0743,-0.561 -0.007,-0.3669 -0.0103,-0.57145 -0.0103,-0.61367 -0.007,-0.10592 -0.12704,-0.2083 -0.35981,-0.30714 -0.28938,-0.13393 -0.46584,-0.23265 -0.52935,-0.29617 0.0142,-0.0635 0.0247,-0.13059 0.0316,-0.20122 0.0495,-0.0917 0.20478,-0.16934 0.46573,-0.23287 0.14126,-0.0493 0.29296,-0.14802 0.45509,-0.29616 0.0988,-0.0917 0.29639,-0.12704 0.59267,-0.10594 0.13413,0.007 0.26817,0.0142 0.4021,0.0213 0.11304,0.0211 0.29477,0.0881 0.54519,0.20105 0.25041,0.11294 0.40038,0.33866 0.44991,0.67713 0.0564,0.38112 0.12337,0.60699 0.20088,0.67761 0.16946,0.11283 0.42697,0.33148 0.77257,0.65597 0.0917,0.16234 0.22231,0.38111 0.39177,0.65628 0.0846,0.0635 0.2081,0.17291 0.37046,0.32815 0.21165,0.23987 0.43386,0.50793 0.66663,0.80421 0.0846,0.17635 0.2293,0.44097 0.43407,0.79389 0.0915,0.16213 0.28906,0.38079 0.59267,0.65597 0.23986,0.21875 0.3598,0.38455 0.3598,0.49737 z m -0.61398,0.0423 v -0.17989 c -0.20456,-0.11993 -0.40911,-0.33514 -0.61366,-0.64563 -0.15525,-0.24675 -0.31049,-0.49717 -0.46574,-0.75125 -0.21877,-0.3529 -0.52214,-0.70215 -0.91014,-1.04773 -0.0282,0.0211 -0.14815,0.074 -0.3598,0.15857 -0.11305,0.0424 -0.17301,0.11661 -0.17989,0.22253 0.14102,0.3385 0.21155,0.57481 0.21155,0.70894 0,0.25408 -0.10229,0.38112 -0.30684,0.38112 -0.28939,0 -0.61575,-0.21699 -0.97911,-0.65097 -0.36335,-0.43397 -0.54502,-0.8344 -0.54501,-1.20131 -1e-5,-0.52215 0.16933,-0.78321 0.50804,-0.78322 0.0846,1e-5 0.17278,0.0247 0.26452,0.0741 0.0917,0.0494 0.13758,0.10944 0.13758,0.18006 0,0.0493 -0.007,0.0864 -0.0212,0.1111 -0.0141,0.0248 -0.0212,0.0406 -0.0212,0.0475 -0.13414,1e-5 -0.21532,0.007 -0.24352,0.0213 -0.14104,0.11283 -0.21156,0.23985 -0.21155,0.3811 -1e-5,0.12683 0.0705,0.33494 0.21155,0.62433 0.0706,0.14814 0.25762,0.35979 0.56101,0.63497 h 0.1799 c -0.19746,-0.45153 -0.29617,-0.73025 -0.29617,-0.83619 0,-0.16214 0.0634,-0.24675 0.19023,-0.25387 0.24697,-0.0211 0.43397,-0.0669 0.56101,-0.13758 0.0211,-0.18345 -0.1447,-0.43043 -0.49737,-0.74091 -0.40222,-0.3669 -0.6351,-0.63152 -0.69861,-0.79389 -0.0351,-0.0775 -0.0544,-0.1815 -0.058,-0.31199 -0.004,-0.13048 -0.0124,-0.21338 -0.0267,-0.2487 -0.14814,-0.3811 -0.43742,-0.57166 -0.86783,-0.57167 -0.19745,1e-5 -0.41966,0.0706 -0.66663,0.21188 -0.0424,0.0351 -0.0636,0.0951 -0.0636,0.1799 0.30337,0.19034 0.45507,0.56069 0.45507,1.11104 v 0.18006 0.15874 c 0,0.0775 0.004,0.13394 0.0107,0.16924 0.0988,0.25408 0.23998,0.55392 0.42343,0.8995 0.23986,0.46574 0.37034,0.71982 0.39145,0.76223 0.374,0.79732 0.64562,1.32292 0.81487,1.57678 0.0706,0.11994 0.29821,0.27869 0.68278,0.47624 0.38454,0.19755 0.665,0.29633 0.84135,0.29633 0.13393,0 0.66307,-0.13759 1.5875,-0.41277 z m -2.0742,1.68275 c 0,-0.14103 -0.0847,-0.35968 -0.25403,-0.65596 -0.16935,-0.29629 -0.28223,-0.44797 -0.33864,-0.45509 -0.3318,1.0654 -0.60354,1.88384 -0.81519,2.45534 0.10594,0.11283 0.27183,0.16924 0.4977,0.16924 0.19035,0 0.3244,-0.0177 0.40212,-0.053 0.0986,-0.23986 0.19732,-0.47617 0.29616,-0.70894 0.14125,-0.35269 0.21188,-0.60321 0.21188,-0.75156 z m -2.32834,-6.74158 c -0.10593,0.0495 -0.18011,0.0743 -0.22252,0.0743 -0.0282,2e-5 -0.0882,-0.0283 -0.17991,-0.0849 v -0.17989 c 0.0566,-0.0351 0.13081,-0.0844 0.22253,-0.14793 0.14104,1e-5 0.21155,0.0493 0.21156,0.14793 -1e-5,0.0424 -0.0106,0.10594 -0.0317,0.19055 z"
       style="fill:#000000;stroke-width:0.13229166"
       inkscape:connector-curvature="0" />
  </g>
</svg>
