<?xml version="1.0" encoding="UTF-8" standalone="no"?>
<!-- Created with Inkscape (http://www.inkscape.org/) -->

<svg
   xmlns:dc="http://purl.org/dc/elements/1.1/"
   xmlns:cc="http://creativecommons.org/ns#"
   xmlns:rdf="http://www.w3.org/1999/02/22-rdf-syntax-ns#"
   xmlns:svg="http://www.w3.org/2000/svg"
   xmlns="http://www.w3.org/2000/svg"
   xmlns:sodipodi="http://sodipodi.sourceforge.net/DTD/sodipodi-0.dtd"
   xmlns:inkscape="http://www.inkscape.org/namespaces/inkscape"
   width="45.200367"
   height="46.719093"
   viewBox="0 0 11.959263 12.361094"
   version="1.1"
   id="svg1020"
   inkscape:version="0.92.2 2405546, 2018-03-11"
   sodipodi:docname="woman.svg">
  <defs
     id="defs1014" />
  <sodipodi:namedview
     id="base"
     pagecolor="#ffffff"
     bordercolor="#666666"
     borderopacity="1.0"
     inkscape:pageopacity="0.0"
     inkscape:pageshadow="2"
     inkscape:zoom="1"
     inkscape:cx="-304.59927"
     inkscape:cy="22.1"
     inkscape:document-units="mm"
     inkscape:current-layer="layer1"
     showgrid="false"
     fit-margin-top="5"
     fit-margin-left="5"
     fit-margin-bottom="5"
     units="px"
     fit-margin-right="5"
     inkscape:window-width="1344"
     inkscape:window-height="718"
     inkscape:window-x="22"
     inkscape:window-y="0"
     inkscape:window-maximized="1" />
  <metadata
     id="metadata1017">
    <rdf:RDF>
      <cc:Work
         rdf:about="">
        <dc:format>image/svg+xml</dc:format>
        <dc:type
           rdf:resource="http://purl.org/dc/dcmitype/StillImage" />
        <dc:title></dc:title>
      </cc:Work>
    </rdf:RDF>
  </metadata>
  <g
     inkscape:label="Capa 1"
     inkscape:groupmode="layer"
     id="layer1"
     transform="translate(-99.020393,-142.31952)">
    <path
       d="m 107.81623,147.12607 c -0.007,0.34827 -0.003,0.68276 0.0106,1.00341 0.014,0.39015 0.0209,0.57822 0.0212,0.56417 -3e-5,0.14629 -0.0262,0.25432 -0.0785,0.32406 -0.0523,0.0697 -0.17946,0.16383 -0.38145,0.28226 -0.007,1.4074 -0.0907,2.53262 -0.25101,3.37555 -0.0138,0.0209 -0.0206,0.0452 -0.0206,0.073 -3e-5,0.0557 0.0626,0.14277 0.18801,0.26123 0.12533,0.11842 0.18801,0.216 0.18801,0.29276 0,0.0627 -0.0279,0.12546 -0.0836,0.1882 l -5.12101,-0.0106 c -0.0906,-0.10461 -0.13587,-0.20222 -0.13587,-0.29278 0,-0.11145 0.12547,-0.24379 0.37634,-0.39709 0.27856,-0.16714 0.44048,-0.31517 0.48575,-0.44413 0.0453,-0.12896 0.0679,-0.2735 0.0679,-0.4336 0,-0.33446 -0.13933,-0.84312 -0.41796,-1.52598 -0.27866,-0.68284 -0.41799,-1.14621 -0.41799,-1.39007 0,-0.26472 0.0975,-0.45982 0.29247,-0.58529 0.1533,-0.0974 0.30311,-0.14607 0.4494,-0.14607 0.25791,0 0.52273,0.16023 0.79448,0.48067 0.0417,0.0557 0.24718,0.3553 0.61651,0.89876 0.22304,0.32044 0.40069,0.48064 0.53295,0.48064 0.007,-0.30639 0.1098,-0.86894 0.3084,-1.68767 0.1986,-0.8187 0.29789,-1.35353 0.29789,-1.60443 0,-0.18796 -0.0384,-0.3133 -0.11512,-0.37603 -0.0209,-0.13946 -0.10091,-0.23006 -0.24016,-0.27173 -0.22307,-0.0768 -0.34499,-0.12205 -0.36584,-0.13586 -0.11141,-0.0768 -0.21241,-0.20571 -0.303,-0.38687 -0.0489,-0.11843 -0.1012,-0.23337 -0.1569,-0.34478 0.0627,-0.14629 0.16722,-0.36222 0.31351,-0.64778 0.12546,-0.27173 0.2509,-0.54007 0.37634,-0.805 0.18116,-0.24389 0.58177,-0.36232 1.20179,-0.35531 1.12181,0.014 1.64433,1.21942 1.56758,3.61606 z m -0.39709,1.19158 c 0.014,-0.0976 0.0106,-0.37285 -0.0106,-0.82574 -0.0209,-0.55052 -0.0312,-0.86402 -0.0312,-0.94057 -0.0349,-0.43907 -0.0715,-0.87979 -0.10972,-1.32217 -0.0383,-0.44236 -0.16888,-0.7855 -0.39182,-1.02939 -0.22294,-0.24387 -0.51909,-0.36581 -0.88839,-0.36581 -0.33449,0 -0.52266,0.16023 -0.56454,0.48064 0.17436,0.0489 0.28588,0.11515 0.33456,0.1987 0.0557,0.10462 0.13237,0.18127 0.22998,0.22998 0.0348,0.0138 0.0906,-0.003 0.16727,-0.0472 0.0767,-0.0453 0.13231,-0.0679 0.16697,-0.0679 0.0768,0 0.14648,0.0592 0.20921,0.17764 0.0417,0.0976 0.0625,0.18127 0.0625,0.25101 0,0.0765 -0.0418,0.16013 -0.12533,0.25067 -0.0836,0.0906 -0.13237,0.19169 -0.1464,0.30334 -0.0209,0.22985 -0.0209,1.17041 0,2.82152 0.0906,-0.014 0.13936,-0.014 0.1464,0 -3e-5,-0.27874 -0.003,-0.56089 -0.0106,-0.84645 -0.0138,-0.59918 0.004,-0.90581 0.0523,-0.91983 0.29276,-0.0695 0.50179,-0.0556 0.62704,0.0418 0.0209,0.0557 0.042,0.30311 0.0628,0.74216 0.0209,0.47376 0.0418,0.76289 0.0628,0.86754 z m -1.42118,-3.08319 c -0.10462,-0.0209 -0.20222,-0.10967 -0.29279,-0.26649 -0.0906,-0.15679 -0.16372,-0.23519 -0.21944,-0.23519 -0.0419,0 -0.0872,0.0175 -0.13587,0.0523 0,-0.007 0.0314,0.0122 0.0941,0.0574 0.0627,0.0453 0.0837,0.13068 0.0628,0.25612 -0.0627,0.0557 -0.12547,0.0836 -0.18817,0.0836 -0.0697,3e-5 -0.13775,-0.0314 -0.20397,-0.0941 -0.0662,-0.0627 -0.10277,-0.0906 -0.10957,-0.0836 -0.0768,0.10462 -0.1081,0.19521 -0.0941,0.27173 -0.007,0.0487 -0.0106,0.094 -0.0106,0.13586 0,0.20201 0.14276,0.36222 0.42833,0.48067 0.32065,0.12544 0.48786,0.20913 0.5017,0.25098 0.0278,-0.0349 0.0418,-0.11149 0.0418,-0.22995 -0.007,-0.14626 -0.007,-0.23333 0,-0.26119 0.007,-0.0349 0.0384,-0.10462 0.0941,-0.20923 0.0419,-0.0695 0.0524,-0.13915 0.0316,-0.20892 z m 0.89876,2.21567 -0.14639,0.0206 c -0.007,0.0768 -0.0209,0.39029 -0.0418,0.94057 -0.014,0.41823 -0.0489,0.65169 -0.10461,0.70038 -0.0487,0.0627 -0.23678,0.0592 -0.5642,-0.0106 -0.0489,-0.007 -0.0734,-0.13245 -0.0734,-0.37634 v -0.44937 c -0.0138,-0.22286 -0.0556,-0.39349 -0.12533,-0.51191 -0.15333,0.47373 -0.26475,1.0102 -0.33425,1.60938 -0.0419,0.4042 -0.0838,0.80478 -0.12568,1.20176 -0.0487,0.32065 -0.14967,0.49488 -0.30297,0.52274 -0.0976,0.0349 -0.40421,-0.34137 -0.91983,-1.12871 -0.53647,-0.81524 -0.90217,-1.22283 -1.09717,-1.22283 -0.0489,0 -0.0942,0.0209 -0.13587,0.0628 -0.11141,0.0138 -0.16711,0.0974 -0.16711,0.25067 0,0.15332 0.12018,0.58004 0.36055,1.28024 0.24038,0.70016 0.36058,1.23142 0.36058,1.59371 0,0.21604 -0.0384,0.40071 -0.11515,0.55401 -0.0209,0.0766 -0.0818,0.17931 -0.18275,0.30827 -0.10102,0.12896 -0.16203,0.21778 -0.18307,0.26646 h 3.7309 c -0.0347,-0.0557 -0.0764,-0.23685 -0.12534,-0.54348 0.23006,-0.59915 0.3451,-1.73479 0.3451,-3.40677 0,-0.82222 -0.0175,-1.37613 -0.0523,-1.66169 z"
       inkscape:connector-curvature="0"
       style="fill:#000000;stroke-width:0.26458332"
       id="path4373" />
  </g>
</svg>
