<?xml version="1.0" encoding="UTF-8" standalone="no"?>
<!-- Created with Inkscape (http://www.inkscape.org/) -->

<svg
   xmlns:dc="http://purl.org/dc/elements/1.1/"
   xmlns:cc="http://creativecommons.org/ns#"
   xmlns:rdf="http://www.w3.org/1999/02/22-rdf-syntax-ns#"
   xmlns:svg="http://www.w3.org/2000/svg"
   xmlns="http://www.w3.org/2000/svg"
   xmlns:sodipodi="http://sodipodi.sourceforge.net/DTD/sodipodi-0.dtd"
   xmlns:inkscape="http://www.inkscape.org/namespaces/inkscape"
   width="45.200367"
   height="46.719093"
   viewBox="0 0 11.959263 12.361094"
   version="1.1"
   id="svg1020"
   inkscape:version="0.92.2 2405546, 2018-03-11"
   sodipodi:docname="y.svg">
  <defs
     id="defs1014" />
  <sodipodi:namedview
     id="base"
     pagecolor="#ffffff"
     bordercolor="#666666"
     borderopacity="1.0"
     inkscape:pageopacity="0.0"
     inkscape:pageshadow="2"
     inkscape:zoom="1"
     inkscape:cx="-264.09927"
     inkscape:cy="22.1"
     inkscape:document-units="mm"
     inkscape:current-layer="layer1"
     showgrid="false"
     fit-margin-top="5"
     fit-margin-left="5"
     fit-margin-bottom="5"
     units="px"
     fit-margin-right="5"
     inkscape:window-width="1344"
     inkscape:window-height="718"
     inkscape:window-x="22"
     inkscape:window-y="0"
     inkscape:window-maximized="1" />
  <metadata
     id="metadata1017">
    <rdf:RDF>
      <cc:Work
         rdf:about="">
        <dc:format>image/svg+xml</dc:format>
        <dc:type
           rdf:resource="http://purl.org/dc/dcmitype/StillImage" />
        <dc:title />
      </cc:Work>
    </rdf:RDF>
  </metadata>
  <g
     inkscape:label="Capa 1"
     inkscape:groupmode="layer"
     id="layer1"
     transform="translate(-99.020393,-142.31952)">
    <path
       id="path4602"
       style="fill:#000000;stroke-width:0.13229166"
       inkscape:connector-curvature="0"
       d="m 102.97436,143.97941 c -0.0775,1e-5 -0.17244,0.0686 -0.28526,0.20256 -0.0213,0.20456 -0.0451,0.33613 -0.0662,0.39275 l -0.63251,4.93196 c 0,0.0706 10e-4,0.1271 0.008,0.16951 0.29628,0.21855 0.59257,0.43972 0.88883,0.6656 0.3176,0.26097 0.54406,0.53858 0.67799,0.83508 0.0917,0.18347 0.12976,0.45345 0.11575,0.80616 -0.0143,0.47283 -0.0154,0.74515 -0.008,0.82269 -1e-5,0.0564 0.0512,0.12368 0.15708,0.1943 0.0351,0.014 0.0918,0.0207 0.16951,0.0207 0.0353,0 0.0913,-0.0114 0.16536,-0.0289 0.0741,-0.0176 0.11945,-0.0248 0.14056,-0.0248 v -1.02526 c -1e-5,-1.96135 -0.007,-3.26998 -0.0207,-3.91914 l -0.0413,-1.90169 c -0.007,-0.51504 -0.10064,-0.97327 -0.27698,-1.36842 -0.23298,-0.51504 -0.56177,-0.77308 -0.99219,-0.77309 z m 3.70417,0 c -0.0775,1e-5 -0.17244,0.0686 -0.28526,0.20256 -0.0213,0.20456 -0.0451,0.33613 -0.0662,0.39275 l -0.63251,4.93196 c 0,0.0706 0.001,0.1271 0.008,0.16951 0.29628,0.21855 0.59258,0.43972 0.88883,0.6656 0.31761,0.26097 0.54406,0.53858 0.67799,0.83508 0.0917,0.18347 0.12977,0.45345 0.11576,0.80616 -0.0143,0.47283 -0.0154,0.74515 -0.008,0.82269 -2e-5,0.0564 0.0512,0.12368 0.15708,0.1943 0.0351,0.014 0.0918,0.0207 0.16951,0.0207 0.0353,0 0.0913,-0.0114 0.16536,-0.0289 0.0741,-0.0176 0.11945,-0.0248 0.14056,-0.0248 v -1.02526 c -10e-6,-1.96135 -0.007,-3.26998 -0.0207,-3.91914 l -0.0414,-1.90169 c -0.007,-0.51504 -0.10063,-0.97327 -0.27698,-1.36842 -0.23298,-0.51504 -0.56176,-0.77308 -0.99218,-0.77309 z m -3.56778,0.45889 c 0.14886,0.002 0.30045,0.1606 0.45474,0.47542 0.0566,0.10594 0.11252,0.33357 0.16537,0.68626 0.0529,0.3527 0.0785,0.61074 0.0785,0.77309 v 4.31601 c -0.29628,-0.33159 -0.52922,-0.59748 -0.69866,-0.80203 -0.35269,-0.32449 -0.57388,-0.50624 -0.6656,-0.54156 l 0.60359,-4.8989 c 0.0212,-0.006 0.0407,-0.008 0.062,-0.008 z m 3.70417,0 c 0.14886,0.002 0.30045,0.1606 0.45474,0.47542 0.0566,0.10594 0.11252,0.33357 0.16537,0.68626 0.0529,0.3527 0.0786,0.61074 0.0786,0.77309 v 4.31601 c -0.29628,-0.33159 -0.52922,-0.59748 -0.69866,-0.80203 -0.35269,-0.32449 -0.57388,-0.50624 -0.6656,-0.54156 l 0.60358,-4.8989 c 0.0212,-0.006 0.0408,-0.008 0.062,-0.008 z" />
  </g>
</svg>
