<?xml version="1.0" encoding="UTF-8" standalone="no"?>
<!-- Created with Inkscape (http://www.inkscape.org/) -->

<svg
   xmlns:dc="http://purl.org/dc/elements/1.1/"
   xmlns:cc="http://creativecommons.org/ns#"
   xmlns:rdf="http://www.w3.org/1999/02/22-rdf-syntax-ns#"
   xmlns:svg="http://www.w3.org/2000/svg"
   xmlns="http://www.w3.org/2000/svg"
   xmlns:sodipodi="http://sodipodi.sourceforge.net/DTD/sodipodi-0.dtd"
   xmlns:inkscape="http://www.inkscape.org/namespaces/inkscape"
   width="45.200367"
   height="46.719093"
   viewBox="0 0 11.959263 12.361094"
   version="1.1"
   id="svg1020"
   inkscape:version="0.92.2 2405546, 2018-03-11"
   sodipodi:docname="z.svg">
  <defs
     id="defs1014" />
  <sodipodi:namedview
     id="base"
     pagecolor="#ffffff"
     bordercolor="#666666"
     borderopacity="1.0"
     inkscape:pageopacity="0.0"
     inkscape:pageshadow="2"
     inkscape:zoom="1"
     inkscape:cx="-392.59927"
     inkscape:cy="22.1"
     inkscape:document-units="mm"
     inkscape:current-layer="layer1"
     showgrid="false"
     fit-margin-top="5"
     fit-margin-left="5"
     fit-margin-bottom="5"
     units="px"
     fit-margin-right="5"
     inkscape:window-width="1344"
     inkscape:window-height="718"
     inkscape:window-x="22"
     inkscape:window-y="0"
     inkscape:window-maximized="1" />
  <metadata
     id="metadata1017">
    <rdf:RDF>
      <cc:Work
         rdf:about="">
        <dc:format>image/svg+xml</dc:format>
        <dc:type
           rdf:resource="http://purl.org/dc/dcmitype/StillImage" />
        <dc:title></dc:title>
      </cc:Work>
    </rdf:RDF>
  </metadata>
  <g
     inkscape:label="Capa 1"
     inkscape:groupmode="layer"
     id="layer1"
     transform="translate(-99.020393,-142.31952)">
    <path
       id="path4610"
       style="fill:#000000;stroke-width:0.13229166"
       inkscape:connector-curvature="0"
       d="m 110.01649,148.70002 h -3.68287 c -0.0282,0.0986 -0.14815,0.2185 -0.35979,0.35964 -0.21167,0.14114 -0.39512,0.22581 -0.55036,0.25401 -0.18347,0.0424 -0.33871,0.0283 -0.46574,-0.0423 -0.16924,0.0424 -0.27863,0.0636 -0.32815,0.0636 -0.11283,0 -0.28567,-0.0688 -0.51854,-0.20639 -0.23286,-0.13758 -0.41626,-0.28045 -0.55019,-0.42859 h -3.577295 v -0.40243 h 3.577295 c 0.45863,-0.42332 0.81487,-0.63497 1.06873,-0.63497 0.0424,0 0.15879,0.0353 0.34915,0.10594 0.14125,-0.0706 0.26127,-0.0988 0.36011,-0.0846 0.54325,0.10573 0.86773,0.31028 0.97345,0.61366 h 3.70417 z m -4.12737,-0.16957 c -0.0917,-0.26096 -0.33171,-0.38089 -0.71992,-0.35979 l 0.0423,0.59267 c 0.0424,0.0142 0.0848,0.0213 0.12725,0.0213 0.11993,0 0.23808,-0.0265 0.35447,-0.0795 0.11638,-0.0529 0.18167,-0.1112 0.19589,-0.17473 z m -1.18533,0.25419 v -0.61398 c -0.12704,0.0353 -0.25763,0.0706 -0.39177,0.10594 -0.0564,0.0211 -0.13048,0.10573 -0.22221,0.25385 0.19055,0.19057 0.39522,0.27529 0.61398,0.25419 z" />
  </g>
</svg>
